<?xml version="1.0" encoding="UTF-8" standalone="no"?>
<!-- Created with Inkscape (http://www.inkscape.org/) -->

<svg
   xmlns:dc="http://purl.org/dc/elements/1.1/"
   xmlns:cc="http://creativecommons.org/ns#"
   xmlns:rdf="http://www.w3.org/1999/02/22-rdf-syntax-ns#"
   xmlns:svg="http://www.w3.org/2000/svg"
   xmlns="http://www.w3.org/2000/svg"
   xmlns:sodipodi="http://sodipodi.sourceforge.net/DTD/sodipodi-0.dtd"
   xmlns:inkscape="http://www.inkscape.org/namespaces/inkscape"
   id="svg2"
   version="1.1"
   inkscape:version="0.48.4 r9939"
   width="690"
   height="292.5"
   xml:space="preserve"
   sodipodi:docname="Logo.eps"><metadata
     id="metadata8"><rdf:RDF><cc:Work
         rdf:about=""><dc:format>image/svg+xml</dc:format><dc:type
           rdf:resource="http://purl.org/dc/dcmitype/StillImage" /><dc:title></dc:title></cc:Work></rdf:RDF></metadata><defs
     id="defs6" /><sodipodi:namedview
     pagecolor="#ffffff"
     bordercolor="#666666"
     borderopacity="1"
     objecttolerance="10"
     gridtolerance="10"
     guidetolerance="10"
     inkscape:pageopacity="0"
     inkscape:pageshadow="2"
     inkscape:window-width="1008"
     inkscape:window-height="738"
     id="namedview4"
     showgrid="false"
     inkscape:zoom="0.97971014"
     inkscape:cx="343.87712"
     inkscape:cy="134.54889"
     inkscape:window-x="0"
     inkscape:window-y="25"
     inkscape:window-maximized="0"
     inkscape:current-layer="g10" /><g
     id="g10"
     inkscape:groupmode="layer"
     inkscape:label="ink_ext_XXXXXX"
     transform="matrix(1.25,0,0,-1.25,0,292.5)"><g
       id="g12"
       transform="scale(0.1,0.1)"><path
         d="m 2.11719,3.99609 5516.75001,0 0,2328.37001 -5516.75001,0 0,-2328.37001 z"
         style="fill:#00a650;fill-opacity:1;fill-rule:evenodd;stroke:none"
         id="path14" /><path
         d="m 2996.84,1969.59 c 23.47,-0.01 38.26,-22.68 31.65,-44.91 L 2691.8,789.934 c -7.44,-28.825 14.27,-52.09 36.19,-52.145 l -341.73,0.984 c -23.06,0.063 -38.05,21.516 -31.25,44.497 l 337.93,1141.76 c 11.23,40.32 -18.1,44.5 -32.47,44.49 l 336.37,0.07 z m -389.8,-1158.586 -162.86,49.711 37.61,123.199 41.02,-12.523 -21.64,-70.883 25.22,-7.695 17.21,56.39 39.36,-12.015 -17.21,-56.391 57.27,-17.477 -15.98,-52.316 z m 43.28,141.766 -162.87,49.71 14.71,48.2 162.87,-49.71 -14.71,-48.2 z m -109.13,116.94 -34.39,10.5 14.71,48.2 34.39,-10.5 -14.71,-48.2 z m 132.48,-40.44 -120.22,36.7 14.71,48.2 120.22,-36.69 -14.71,-48.21 z m -38,139.39 12.99,42.57 c -7.59,1.74 -13.8,1.41 -18.61,-1.08 -4.84,-2.49 -8.26,-7.09 -10.34,-13.88 -1.91,-6.27 -1.47,-11.85 1.39,-16.68 2.81,-4.87 7.68,-8.5 14.57,-10.93 z m 50.26,28.39 13.97,45.79 c 12.12,-7.33 19.83,-17.64 23.15,-30.96 3.33,-13.27 2.15,-29.17 -3.47,-47.58 -6.3,-20.65 -17.04,-35.28 -32.21,-43.9 -15.13,-8.62 -32.42,-9.98 -51.83,-4.06 -20.19,6.16 -34.23,17.21 -42.15,33.16 -7.88,15.94 -8.59,34.6 -2.09,55.89 6.54,21.4 17.99,36.22 34.41,44.45 16.42,8.24 35.9,8.93 58.47,2.04 l 2.87,-0.87 -27.26,-89.72 c 7.73,-2.11 14.28,-1.88 19.59,0.67 5.37,2.57 9.07,7.25 11.16,14.13 1.42,4.64 1.73,8.76 0.94,12.38 -0.79,3.62 -2.64,6.5 -5.55,8.58 z m 17.15,64.04 14.17,46.43 c 5.1,-1.56 9.27,-1.39 12.56,0.46 3.32,1.83 5.77,5.37 7.37,10.62 1.53,5.02 1.87,9.12 1,12.32 -0.88,3.2 -2.96,5.32 -6.21,6.31 -5.36,1.64 -11.17,-3.07 -17.35,-14.14 -0.55,-0.98 -0.98,-1.72 -1.32,-2.28 -11.6,-21 -21.26,-34.11 -28.9,-39.29 -7.6,-5.14 -16.76,-6.11 -27.44,-2.84 -12.91,3.94 -21.19,11.96 -24.87,24.09 -3.69,12.11 -2.56,27.86 3.32,47.14 5.48,17.93 12.89,30.85 22.22,38.73 9.35,7.91 20.48,10.71 33.46,8.35 l -13.13,-43.03 c -3.75,0.74 -7.08,0.06 -10.04,-2.05 -3,-2.14 -5.12,-5.28 -6.4,-9.47 -1.29,-4.23 -1.55,-7.66 -0.79,-10.29 0.76,-2.66 2.5,-4.39 5.25,-5.23 4.76,-1.45 9.97,2.9 15.58,13.03 1.44,2.7 2.55,4.71 3.3,6.09 11.68,20.28 21.34,32.85 28.96,37.7 7.67,4.84 16.94,5.6 27.84,2.27 13.82,-4.22 22.56,-12.74 26.31,-25.6 3.71,-12.86 2.37,-29.82 -4.04,-50.8 -5.94,-19.48 -13.98,-33.24 -24.07,-41.3 -10.15,-8.09 -22.39,-10.49 -36.78,-7.22 z m 20.92,196.95 12.99,42.57 c -7.6,1.75 -13.81,1.41 -18.61,-1.08 -4.84,-2.49 -8.27,-7.09 -10.34,-13.88 -1.91,-6.27 -1.47,-11.85 1.39,-16.68 2.8,-4.86 7.68,-8.5 14.57,-10.93 z m 50.25,28.4 13.98,45.78 c 12.12,-7.33 19.82,-17.65 23.15,-30.95 3.33,-13.28 2.15,-29.18 -3.47,-47.59 -6.3,-20.65 -17.04,-35.28 -32.21,-43.89 -15.13,-8.63 -32.43,-9.99 -51.83,-4.08 -20.19,6.17 -34.23,17.22 -42.15,33.18 -7.89,15.94 -8.59,34.59 -2.09,55.88 6.53,21.4 17.99,36.22 34.41,44.46 16.41,8.23 35.89,8.93 58.46,2.04 l 2.88,-0.88 -27.26,-89.71 c 7.73,-2.11 14.27,-1.89 19.59,0.66 5.36,2.57 9.06,7.26 11.16,14.13 1.42,4.64 1.72,8.76 0.93,12.38 -0.79,3.63 -2.64,6.5 -5.55,8.59 z m 56.8,58.45 -120.22,36.7 13.28,43.48 17.59,-5.37 c -5.32,7.73 -8.62,15.58 -9.96,23.5 -1.32,7.96 -0.63,16.29 2.01,24.97 2.23,7.29 5.43,13.45 9.64,18.47 4.17,5 9.28,8.77 15.28,11.27 5.45,2.29 11.52,3.25 18.21,2.86 6.69,-0.39 17.1,-2.75 31.26,-7.07 l 62.5,-19.08 -14.58,-47.78 -62.28,19 c -9.14,2.79 -15.8,3.51 -19.99,2.11 -4.17,-1.37 -7.15,-5.04 -8.98,-11.05 -1.85,-6.03 -1.21,-11.13 1.85,-15.29 3.1,-4.16 8.73,-7.49 16.92,-9.99 l 62.05,-18.94 -14.58,-47.79"
         style="fill:#fff200;fill-opacity:1;fill-rule:evenodd;stroke:none"
         id="path16" /><path
         d="m 2779.18,383.898 -38.9,-0.015 44.17,212.031 39.28,0.02 -17.44,-83.461 53.28,0.023 17.45,83.461 39.09,0.016 -44.36,-212.032 -39.28,-0.015 20.63,97.558 -53.28,-0.027 -20.64,-97.559"
         style="fill:#fff200;fill-opacity:1;fill-rule:nonzero;stroke:none"
         id="path18" /><path
         d="m 2991.68,460.398 c -2.73,-1.222 -6.62,-2.914 -11.7,-5.125 -22.78,-9.644 -34.15,-20.269 -34.14,-31.828 0,-5.965 1.36,-10.523 4.04,-13.625 2.73,-3.144 6.63,-4.699 11.66,-4.695 7.89,0.004 13.95,3.484 18.13,10.395 4.18,6.957 8.17,21.898 12.01,44.878 z m -9.75,-64.046 c -4.46,-5.879 -9.34,-10.2 -14.65,-12.977 -5.26,-2.777 -11.28,-4.187 -18.04,-4.191 -12.78,-0.008 -22.61,3.703 -29.61,11.074 -6.96,7.375 -10.44,17.851 -10.45,31.433 0,14.707 3.8,26.36 11.41,35.059 7.56,8.648 19.59,14.949 35.98,18.906 1.08,0.278 2.68,0.66 4.8,1.129 26.07,6.258 39.13,15.852 39.12,28.82 0,4.747 -1.41,8.458 -4.28,11.133 -2.82,2.68 -6.86,3.992 -12.12,3.992 -6.63,-0.003 -11.75,-1.882 -15.36,-5.648 -3.62,-3.758 -6.2,-9.871 -7.75,-18.328 l -35.48,-0.016 c 2.39,16.965 8.5,29.61 18.31,37.973 9.82,8.324 23.54,12.512 41.16,12.519 16.4,0.008 29.18,-3.371 38.25,-10.082 9.07,-6.765 13.64,-16.16 13.64,-28.281 0,-1.742 -0.14,-3.949 -0.47,-6.629 -0.32,-2.722 -0.79,-5.73 -1.45,-9.019 l -18.28,-87.785 c -0.48,-2.301 -0.89,-5.309 -1.32,-9.071 -0.41,-3.761 -0.74,-7.894 -1.03,-12.359 l -34.01,-0.012 1.63,12.36"
         style="fill:#fff200;fill-opacity:1;fill-rule:nonzero;stroke:none"
         id="path20" /><path
         d="m 3147.03,541.945 36.65,0.016 -33.52,-157.895 -34.16,-0.015 3.42,13.488 c -6.29,-6.156 -12.63,-10.719 -19.02,-13.773 -6.39,-3.012 -12.92,-4.52 -19.59,-4.524 -9.92,-0.004 -17.58,2.578 -22.93,7.696 -5.36,5.121 -8.05,12.496 -8.05,22.128 0,2.02 0.19,4.512 0.6,7.473 0.43,3.008 1.13,7 2.16,12.074 l 24.24,113.301 36.61,0.016 -23.35,-110.293 c -0.57,-2.582 -0.94,-4.887 -1.22,-6.907 -0.28,-1.972 -0.42,-3.851 -0.42,-5.496 0,-4.324 1.08,-7.566 3.25,-9.82 2.16,-2.254 5.31,-3.383 9.44,-3.379 5.88,0.004 10.62,2.262 14.24,6.817 3.61,4.562 6.57,11.941 8.87,22.234 l 22.78,106.859"
         style="fill:#fff200;fill-opacity:1;fill-rule:nonzero;stroke:none"
         id="path22" /><path
         d="m 3186.97,440.188 31.48,-0.125 c -0.09,-1.458 -0.13,-3.008 -0.18,-4.606 -0.05,-1.598 -0.09,-3.664 -0.09,-6.25 0,-7.797 1.46,-13.437 4.42,-16.965 2.92,-3.519 7.57,-5.304 13.92,-5.301 5.96,0 10.42,1.512 13.34,4.473 2.95,3.008 4.41,7.516 4.41,13.582 0,7.516 -6.45,16.016 -19.28,25.551 l -1.65,1.269 c -12.31,8.875 -20.54,16.86 -24.72,23.86 -4.19,6.996 -6.26,15.406 -6.26,25.133 -0.01,14.941 4.54,26.461 13.61,34.496 9.07,8.043 22.12,12.043 39.08,12.047 15.51,0.007 27.36,-3.7 35.49,-11.122 8.13,-7.421 12.18,-18.179 12.18,-32.324 0,-0.328 -0.04,-1.922 -0.14,-4.742 -0.09,-2.773 -0.13,-5.312 -0.13,-7.613 l -31.86,-0.012 0,4.555 c -0.01,9.726 -1.32,16.304 -3.91,19.828 -2.63,3.476 -7.33,5.211 -14.1,5.211 -4.79,-0.004 -8.55,-1.461 -11.37,-4.332 -2.77,-2.914 -4.18,-6.86 -4.18,-11.934 0.01,-8.082 5.56,-15.883 16.65,-23.394 2.96,-1.922 5.17,-3.473 6.77,-4.555 10.19,-7.324 17.58,-14.652 22.14,-21.934 4.61,-7.332 6.91,-15.316 6.91,-24.007 0.01,-16.258 -4.73,-28.903 -14.17,-37.879 -9.44,-8.981 -22.74,-13.496 -39.88,-13.504 -16.59,-0.004 -29.05,3.75 -37.27,11.308 -8.28,7.559 -12.42,18.93 -12.42,34.012 -0.01,2.492 0.09,4.981 0.33,7.52 0.23,2.492 0.51,5.074 0.88,7.754"
         style="fill:#fff200;fill-opacity:1;fill-rule:nonzero;stroke:none"
         id="path24" /><path
         d="m 3387.55,587.445 -9.9,-45.394 16.4,0.004 -5.06,-23.961 -16.4,-0.012 -19.93,-94.453 c -0.09,-0.473 -0.19,-0.988 -0.28,-1.551 -0.18,-1.457 -0.28,-2.445 -0.28,-3.008 0,-2.961 0.94,-5.027 2.78,-6.25 1.83,-1.269 5.02,-1.875 9.63,-1.871 l 3.71,0 -6.05,-26.789 c -3.38,-0.562 -6.62,-0.988 -9.63,-1.273 -3,-0.282 -6.01,-0.422 -8.93,-0.426 -9.63,-0.004 -17.06,2.062 -22.27,6.242 -5.22,4.176 -7.86,10.192 -7.86,17.945 0,2.493 0.19,5.36 0.61,8.551 0.42,3.196 1.08,6.77 2.02,10.715 l 19.59,92.152 -13.76,-0.003 4.97,23.964 13.86,0.008 9.47,45.391 37.31,0.019"
         style="fill:#fff200;fill-opacity:1;fill-rule:nonzero;stroke:none"
         id="path26" /><path
         d="m 3475.98,484.016 c 0.94,4.324 1.59,8.226 2.02,11.703 0.42,3.523 0.61,6.437 0.61,8.832 -0.01,5.406 -1.32,9.441 -4,12.121 -2.64,2.68 -6.59,3.992 -11.85,3.988 -7.05,-0.004 -12.5,-2.73 -16.39,-8.137 -3.9,-5.402 -7.05,-14.945 -9.44,-28.527 l 39.05,0.02 z m -8.91,-47.368 34.4,0.012 c -1.54,-19.262 -7.13,-33.691 -16.71,-43.324 -9.58,-9.641 -23.16,-14.488 -40.78,-14.496 -17.34,-0.008 -30.21,3.84 -38.68,11.543 -8.41,7.703 -12.64,19.449 -12.65,35.234 0,3.387 0.19,7.285 0.56,11.703 0.37,4.371 0.84,8.973 1.5,13.766 1.73,12.926 3.74,24.531 6.04,34.82 2.3,10.25 4.64,18.332 7.13,24.207 5.59,13.203 12.82,22.7 21.66,28.438 8.87,5.734 20.71,8.605 35.56,8.613 16.78,0.008 29.09,-3.512 36.84,-10.605 7.76,-7.039 11.62,-18.176 11.62,-33.403 0.01,-5.73 -0.51,-12.312 -1.58,-19.781 -1.03,-7.473 -2.58,-15.508 -4.6,-24.156 l -74.99,-0.035 c -1.55,-7.61 -2.72,-14.332 -3.56,-20.157 -0.8,-5.828 -1.22,-10.429 -1.22,-13.722 0,-6.532 1.46,-11.367 4.33,-14.563 2.92,-3.242 7.29,-4.84 13.16,-4.836 6.29,0.004 11.27,2.496 14.85,7.43 3.56,4.984 5.96,12.742 7.12,23.312"
         style="fill:#fff200;fill-opacity:1;fill-rule:nonzero;stroke:none"
         id="path28" /><path
         d="m 3638.11,444.055 c -2.53,-22.325 -8.63,-38.672 -18.25,-49.16 -9.63,-10.481 -23.45,-15.704 -41.4,-15.711 -16.86,-0.008 -29.32,3.886 -37.36,11.64 -8.03,7.746 -12.03,19.727 -12.04,35.938 0,5.074 0.42,11.136 1.31,18.183 0.84,7.047 2.1,15.18 3.74,24.34 2.68,13.77 5.4,24.817 8.26,33.18 2.81,8.363 6.29,15.558 10.33,21.621 5.02,7.519 11.5,13.254 19.44,17.207 7.94,3.949 17.01,5.926 27.3,5.93 15.93,0.007 28.05,-3.84 36.37,-11.586 8.33,-7.75 12.46,-19.121 12.47,-34.063 0,-2.066 -0.09,-4.418 -0.32,-7.004 -0.24,-2.535 -0.61,-5.496 -1.17,-8.789 l -35.25,-0.011 c 0.66,3.476 1.08,6.531 1.36,9.07 0.28,2.582 0.42,4.84 0.42,6.765 0,5.875 -1.37,10.383 -4.05,13.532 -2.72,3.144 -6.53,4.742 -11.46,4.742 -5.22,-0.004 -9.49,-2.027 -12.78,-6.07 -3.33,-4.043 -6.29,-11.137 -8.92,-21.336 -3.75,-14.426 -6.61,-27.164 -8.58,-38.157 -1.97,-11.046 -2.95,-20.117 -2.94,-27.257 0,-7.282 1.17,-12.5 3.52,-15.692 2.31,-3.242 6.07,-4.84 11.19,-4.836 6.39,0.004 11.46,3.106 15.22,9.266 3.75,6.156 6.38,15.555 7.83,28.242 l 35.76,0.016"
         style="fill:#fff200;fill-opacity:1;fill-rule:nonzero;stroke:none"
         id="path30" /><path
         d="m 3690.06,384.309 -36.89,-0.016 45.06,211.465 36.66,0.019 -13.46,-64.285 c 5.21,5.121 10.76,8.981 16.53,11.613 5.83,2.586 11.89,3.907 18.09,3.911 9.92,0 17.58,-2.582 22.94,-7.746 5.36,-5.211 8.04,-12.543 8.04,-22.082 0.01,-2.02 -0.18,-4.418 -0.61,-7.235 -0.42,-2.773 -1.17,-6.769 -2.25,-12.031 l -23.86,-113.582 -36.89,-0.02 23.35,110.297 c 0.85,3.664 1.36,6.344 1.6,7.988 0.23,1.641 0.33,3.098 0.33,4.415 -0.01,4.23 -1.09,7.472 -3.3,9.773 -2.21,2.305 -5.45,3.43 -9.68,3.426 -5.97,-0.004 -10.76,-2.258 -14.38,-6.774 -3.61,-4.465 -6.52,-11.843 -8.73,-21.992 l -22.55,-107.144"
         style="fill:#fff200;fill-opacity:1;fill-rule:nonzero;stroke:none"
         id="path32" /><path
         d="m 3829.43,384.371 -36.93,-0.016 33.52,157.895 34.02,0.016 -3,-13.485 c 6.29,6.157 12.59,10.715 18.88,13.774 6.3,3.008 12.74,4.515 19.31,4.523 10.01,0 17.72,-2.582 23.08,-7.746 5.36,-5.211 8.04,-12.543 8.04,-22.082 0.01,-2.02 -0.18,-4.414 -0.61,-7.234 -0.42,-2.774 -1.17,-6.77 -2.24,-12.032 l -23.87,-113.582 -36.89,-0.015 23.35,110.293 c 0.85,3.664 1.37,6.343 1.6,7.988 0.23,1.641 0.33,3.098 0.33,4.414 0,4.231 -1.09,7.473 -3.3,9.773 -2.21,2.301 -5.45,3.43 -9.63,3.426 -5.97,-0.004 -10.81,-2.258 -14.42,-6.773 -3.62,-4.465 -6.53,-11.844 -8.74,-21.992 l -22.5,-107.145"
         style="fill:#fff200;fill-opacity:1;fill-rule:nonzero;stroke:none"
         id="path34" /><path
         d="m 3970.64,564.305 6.47,31.578 37.22,0.019 -6.76,-31.582 -36.93,-0.015 z m -38.26,-179.887 33.48,157.895 36.93,0.019 -33.57,-157.898 -36.84,-0.016"
         style="fill:#fff200;fill-opacity:1;fill-rule:nonzero;stroke:none"
         id="path36" /><path
         d="m 4003.14,384.449 45.07,211.469 36.65,0.016 -23.4,-111.371 48.47,57.812 42,0.023 -57.67,-65.953 23.72,-91.945 -37.87,-0.016 -14.88,63.426 -15.3,-16.922 -9.9,-46.523 -36.89,-0.016"
         style="fill:#fff200;fill-opacity:1;fill-rule:nonzero;stroke:none"
         id="path38" /><path
         d="m 4312.7,403.992 c -5.87,-8.222 -12.26,-14.336 -19.22,-18.285 -6.9,-3.953 -14.7,-5.93 -23.44,-5.93 -15.69,-0.011 -28.43,5.106 -38.25,15.348 -9.83,10.191 -14.72,23.629 -14.73,40.211 0,5.969 0.32,12.453 1.03,19.41 0.7,7 1.87,15.695 3.51,26.172 2.62,16.074 5.48,30.172 8.58,42.387 3.05,12.218 6.28,22.465 9.66,30.691 6.91,16.543 15.36,28.574 25.32,36.098 10,7.523 22.64,11.289 37.86,11.293 21.29,0.011 36.8,-4.727 46.53,-14.168 9.73,-9.442 14.62,-24.52 14.63,-45.242 0,-2.305 -0.09,-4.606 -0.28,-7 -0.19,-2.399 -0.47,-5.075 -0.84,-7.993 L 4325,526.969 c 0.28,3.379 0.52,6.39 0.65,9.023 0.14,2.582 0.19,4.793 0.19,6.531 0,10.622 -1.7,18.09 -5.09,22.457 -3.43,4.368 -9.16,6.524 -17.25,6.524 -7.32,-0.004 -13.2,-2.59 -17.52,-7.762 -4.36,-5.215 -8.4,-14.711 -12.06,-28.574 -5.96,-22.508 -10.6,-42.715 -14.02,-60.621 -3.38,-17.949 -5.06,-31.016 -5.06,-39.192 0,-8.789 1.93,-15.41 5.74,-19.875 3.81,-4.457 9.49,-6.667 17.11,-6.664 10.19,0.008 18.32,4.664 24.33,13.922 6.01,9.262 9.91,23.215 11.73,41.918 l -24.25,-0.011 6.76,32.425 63.99,0.028 -22.78,-112.5 -27.4,-0.012 2.63,19.406"
         style="fill:#fff200;fill-opacity:1;fill-rule:nonzero;stroke:none"
         id="path40" /><path
         d="m 4406.45,384.629 -36.89,-0.016 33.53,157.899 34.02,0.011 -3.05,-13.484 c 6.25,6.063 12.54,10.625 18.93,13.68 6.39,3.058 12.83,4.613 19.36,4.617 8.31,0 14.94,-1.594 19.73,-4.785 4.85,-3.192 8.23,-8.223 10.26,-14.988 6.9,6.773 13.57,11.804 20,15 6.49,3.199 13.11,4.8 19.88,4.804 10.01,0 17.62,-2.578 22.93,-7.699 5.27,-5.121 7.9,-12.492 7.9,-22.125 0.01,-2.301 -0.18,-5.027 -0.6,-8.18 -0.42,-3.148 -1.07,-6.863 -2.02,-11.09 l -24.1,-113.582 -36.88,-0.015 23.35,110.293 c 0.84,3.664 1.36,6.344 1.59,7.988 0.24,1.645 0.33,3.102 0.33,4.418 -0.01,4.23 -1.08,7.469 -3.29,9.77 -2.22,2.304 -5.46,3.429 -9.64,3.429 -5.97,-0.004 -10.76,-2.261 -14.42,-6.777 -3.62,-4.465 -6.53,-11.844 -8.73,-21.992 l -22.79,-107.145 -36.09,-0.015 23.35,110.293 c 0.85,3.664 1.36,6.343 1.6,7.988 0.23,1.644 0.37,3.101 0.37,4.418 0,4.23 -1.13,7.469 -3.34,9.769 -2.21,2.305 -5.4,3.43 -9.63,3.43 -5.97,-0.004 -10.76,-2.262 -14.38,-6.777 -3.61,-4.465 -6.52,-11.844 -8.73,-21.993 l -22.55,-107.144"
         style="fill:#fff200;fill-opacity:1;fill-rule:nonzero;stroke:none"
         id="path42" /><path
         d="m 4639.69,410.391 c 4.51,0.004 8.5,1.507 12.02,4.468 3.57,3.008 6.44,7.239 8.65,12.739 4.55,12.027 8.21,24.859 10.97,38.531 2.77,13.68 4.12,25.566 4.12,35.668 0,6.863 -1.04,11.75 -3.11,14.566 -2.07,2.867 -5.54,4.274 -10.38,4.274 -4.51,-0.004 -8.46,-1.512 -11.84,-4.473 -3.43,-3.008 -6.3,-7.519 -8.69,-13.582 -1.45,-3.758 -3,-8.41 -4.55,-14.004 -1.55,-5.64 -3.24,-12.406 -5.06,-20.394 -2.02,-9.164 -3.57,-17.059 -4.64,-23.594 -1.04,-6.578 -1.55,-11.746 -1.55,-15.504 0,-6.063 1.23,-10.668 3.62,-13.859 2.45,-3.243 5.93,-4.84 10.44,-4.836 z m 21.67,185.8 -13.74,-63.488 c 3.19,4.985 7.14,8.699 11.88,11.235 4.7,2.496 10.01,3.765 15.89,3.769 12.07,0.004 21.09,-3.797 26.97,-11.453 5.93,-7.656 8.89,-19.359 8.9,-35.051 0,-4.371 -0.28,-9.258 -0.89,-14.66 -0.61,-5.359 -1.55,-11.844 -2.81,-19.453 -1.83,-10.527 -3.99,-20.305 -6.47,-29.235 -2.44,-8.925 -5.11,-16.585 -7.93,-22.929 -5.07,-11.563 -11.13,-20.071 -18.32,-25.571 -7.14,-5.5 -15.55,-8.277 -25.27,-8.281 -7.33,-0.004 -13.49,1.875 -18.52,5.629 -4.98,3.758 -8.7,9.297 -11.05,16.629 l -3.75,-18.609 -37.17,-0.016 45.35,211.469 36.93,0.015"
         style="fill:#fff200;fill-opacity:1;fill-rule:nonzero;stroke:none"
         id="path44" /><path
         d="m 4760.64,384.789 -38.9,-0.019 44.17,212.031 39.28,0.019 -17.44,-83.461 53.29,0.024 17.44,83.461 39.09,0.015 -44.36,-212.031 -39.28,-0.015 20.64,97.558 -53.29,-0.023 -20.64,-97.559"
         style="fill:#fff200;fill-opacity:1;fill-rule:nonzero;stroke:none"
         id="path46" /><path
         d="m 3184.64,742.645 103.35,-0.383 49.42,163.5 39.87,-0.149 c 27.29,-0.101 38.79,-8.011 36.62,-25.843 -0.02,-6.317 -0.56,-11.016 -3.73,-17.832 l -20.2,-67.586 c -5.84,-19.938 -10.61,-35.637 -10.63,-41.942 -0.02,-4.719 -0.03,-5.773 -0.05,-10.488 l 99.16,-0.367 c 2.11,4.707 2.11,5.761 2.13,10.476 0.02,6.313 1.15,22.02 3.8,31.465 l 23.35,75.469 c 1.63,9.43 2.7,17.281 4.84,28.312 0.11,28.844 -14.01,44.118 -44.41,47.371 19.95,5.7 33.11,13.528 45.71,23.438 33.14,22.977 56.41,69.044 58.64,108.904 0.1,25.72 -16.08,50.97 -38.58,61.53 -12.06,5.32 -28.83,8.52 -54.55,8.61 l -169.97,0.63 -124.77,-395.115 z m 206.35,327.135 32.55,-0.12 c 29.37,-0.11 44.03,-9.1 43.95,-29.02 -2.76,-38.81 -35.95,-72.288 -75.82,-72.14 l -32.54,0.121 31.86,101.159 z m 323.53,90.6 80.27,-0.3 17.58,70.24 -75.04,0.27 -22.81,-70.21 z m 154.77,-0.58 81.32,-0.3 20.21,70.23 -77.66,0.29 -23.87,-70.22 z m -345.74,-418.409 110.2,-0.414 38.05,76.441 102.29,-0.379 -7.09,-76.555 105.45,-0.39 7.23,395.546 -115.95,0.43 -240.18,-394.679 z m 275.58,315.309 -16.38,-169.387 -75.02,0.277 91.4,169.11 z m 502.44,-45.93 c 5.84,24.12 9.04,30.41 9.09,46.66 0.67,39.88 -12.87,61.45 -49.05,75.22 -17.79,7.41 -38.79,8.53 -58.7,8.6 -85.53,0.32 -146.52,-33.02 -179.31,-102.68 -24.83,-47.652 -43.43,-111.59 -62.59,-189.172 -3.19,-10.476 -4.82,-24.644 -6.44,-36.164 -0.21,-54.582 28.54,-82.488 93.61,-82.726 45.64,-0.172 74,11.273 110.34,43.664 l -4.86,-35.121 65.59,-0.246 63.2,209.086 -144.3,0.535 -18.57,-62.363 47.74,-0.18 c -15.46,-64.988 -38.64,-91.664 -75.88,-91.528 -22.57,0.083 -31.44,11.657 -30.31,32.641 0.06,17.836 13.36,68.164 25.06,105.359 l 24.91,73.355 c 12.19,36.16 20.13,52.38 38.52,63.88 7.92,7.3 18.42,9.36 29.95,9.32 20.98,-0.08 29.35,-9.54 28.25,-28.41 -0.03,-9.98 -2.7,-19.95 -5.39,-39.36 l 99.14,-0.37 z m 2.12,-272.278 258.67,-0.957 23.87,73.356 -158.44,0.586 32.89,92.726 140.07,-0.519 23.88,73.379 -143.22,0.531 24.96,82.266 147.94,-0.55 23.88,73.37 -250.78,0.93 -123.72,-395.118 z m 335.78,-1.246 100.73,-0.375 52.55,163.488 36.2,-0.132 c 26.77,-0.102 37.23,-8.004 37.16,-25.848 -0.03,-6.316 -1.62,-11.012 -2.69,-17.832 l -23.32,-67.578 c -3.24,-19.949 -5.9,-35.653 -7.54,-41.953 -0.01,-4.715 -0.02,-5.77 -0.04,-10.485 l 101.28,-0.379 c 0.02,4.719 0.02,5.774 0.04,10.489 0.02,6.308 2.7,22.011 5.36,31.461 l 21.26,75.472 c 3.18,9.422 6.38,17.266 6.42,28.305 1.69,28.84 -15.6,44.125 -47.06,47.383 21.01,5.695 34.67,13.523 48.9,23.426 28.39,22.992 54.79,69.042 57.06,108.912 0.09,25.72 -16.08,50.97 -35.96,61.52 -14.68,5.32 -32.01,8.52 -57.17,8.61 l -169.46,0.64 -123.72,-395.124 z m 201.65,327.154 35.13,-0.13 c 29.92,-0.11 44.04,-9.1 43.97,-29.02 -1.72,-38.812 -34.37,-72.293 -76.84,-72.137 l -31.5,0.114 29.24,101.173 z m -1968.11,-320.072 268.84,-1.402 c -22.17,0.082 -32.62,19.664 -25.79,41.687 l 130.97,443.167 192.28,-0.71 c 330.6,-1.23 571.4,210.72 572.49,504.67 0.37,99.64 -47.5,176.82 -127.23,213.34 -47.29,22.01 -117.24,27.62 -223.89,28.01 l -513.8,1.91 c 19.69,-0.22 38.91,-4.99 29.5,-35.11 L 2833.27,798.406 c -12.5,-42.765 10.93,-52.734 39.74,-54.078 z m 547,1053.012 138.75,-0.52 c 101.26,-0.37 159.97,-45.87 159.71,-117.93 -0.59,-158.5 -118.76,-275.81 -278.51,-275.22 l -138.76,0.52 118.81,393.15"
         style="fill:#ffffff;fill-opacity:1;fill-rule:evenodd;stroke:none"
         id="path48" /><path
         d="m 1166.47,1964.53 c 23.89,-0.03 38.25,-22.28 31.66,-44.92 L 859.773,777.855 c -7.816,-24.707 13.051,-44.992 36.317,-45.054 l -340.207,0.894 c -23.059,0.063 -38.039,21.493 -31.242,44.489 L 862.168,1919.95 c 12.832,40.43 -17.289,44.5 -32.07,44.5 l 336.372,0.08 z m 364.78,-0.38 c 23.87,-0.03 38.27,-22.27 31.66,-44.9 L 1224.55,777.484 c -8.87,-28.48 17.13,-45.043 39.36,-45.066 l -343.672,0.367 c -23.039,0.016 -37.629,22.047 -30.824,45.043 L 1227.35,1919.58 c 9.21,40.42 -13.69,44.51 -32.47,44.49 l 336.37,0.08 z m 366.2,-0.29 c 23.9,-0.02 38.27,-22.25 31.67,-44.91 L 1590.76,777.184 c -6.79,-23.551 7.08,-45.098 37.83,-45.125 l -341.72,0.339 c -23.06,0.036 -38.03,22.145 -31.24,45.129 L 1593.57,1919.3 c 10.81,40.32 -15.71,44.49 -32.5,44.5 l 336.38,0.06 z m 730.51,-1.73 c 23.47,-0.01 38.25,-22.68 31.65,-44.9 L 2322.91,782.477 c -7.44,-28.821 14.27,-52.09 36.19,-52.145 l -341.73,0.981 c -23.05,0.066 -38.05,21.519 -31.24,44.503 l 337.93,1141.754 c 11.23,40.32 -18.1,44.5 -32.47,44.5 l 336.37,0.06 z m -365.65,1.36 c 23.47,-0.01 38.26,-22.68 31.65,-44.91 L 1957.26,783.832 c -7.44,-28.824 14.29,-52.09 36.19,-52.141 l -341.73,0.981 c -23.05,0.062 -38.04,21.516 -31.24,44.5 l 337.94,1141.758 c 11.21,40.32 -18.11,44.5 -32.49,44.5 l 336.38,0.06 z m 227.71,-352.89 14.16,48.32 c 3.11,-0.23 5.63,0.53 7.56,2.39 1.92,1.83 3.56,5.03 4.88,9.53 2.1,7.13 1.95,12.45 -0.48,15.87 -2.43,3.43 -9.02,6.76 -19.78,9.91 l -6.66,1.95 c 2.79,-5.3 4.36,-11.12 4.66,-17.36 0.33,-6.28 -0.57,-13.05 -2.7,-20.33 -4.86,-16.57 -14.41,-28.17 -28.66,-34.82 -14.26,-6.65 -30.78,-7.21 -49.58,-1.69 -19.81,5.8 -34.16,15.2 -43.12,28.16 -8.96,12.95 -11.09,27.35 -6.46,43.23 2.61,8.86 6.46,16.13 11.52,21.81 5.04,5.68 11.53,9.97 19.49,12.86 l -15.91,4.67 12.68,43.23 113.23,-33.2 c 21.35,-6.25 34.99,-15.95 40.88,-29.01 5.89,-13.11 5.19,-32.08 -2.08,-56.88 -5.05,-17.23 -12.26,-30.09 -21.6,-38.53 -9.34,-8.47 -20.02,-11.82 -32.03,-10.11 z m -63.53,62.65 c 9.87,-2.89 17.67,-3.42 23.4,-1.59 5.72,1.84 9.56,6.07 11.49,12.66 2.05,7.01 1.21,12.86 -2.46,17.58 -3.69,4.71 -10.48,8.51 -20.42,11.43 -8.86,2.59 -16.29,2.85 -22.22,0.69 -5.95,-2.13 -9.85,-6.48 -11.78,-13.03 -1.92,-6.59 -1.06,-12.2 2.61,-16.79 3.68,-4.59 10.14,-8.24 19.38,-10.95 z m 3.4,-218.95 -122.71,35.99 13,44.39 17.95,-5.27 c -5.49,7.81 -8.93,15.75 -10.38,23.8 -1.44,8.09 -0.83,16.56 1.77,25.43 2.17,7.42 5.37,13.73 9.6,18.88 4.17,5.14 9.33,9.03 15.41,11.64 5.52,2.4 11.68,3.44 18.49,3.11 6.81,-0.32 17.43,-2.59 31.89,-6.84 l 63.8,-18.7 -14.3,-48.78 -63.58,18.64 c -9.33,2.73 -16.12,3.39 -20.36,1.92 -4.24,-1.44 -7.21,-5.22 -9,-11.34 -1.81,-6.16 -1.12,-11.34 2.05,-15.54 3.2,-4.19 8.96,-7.52 17.32,-9.98 l 63.34,-18.56 -14.29,-48.79 z m -130.48,9.56 122.72,-35.98 -13.08,-44.62 -18.07,5.3 c 5.57,-7.82 9.06,-15.79 10.5,-23.84 1.44,-8.07 0.84,-16.51 -1.77,-25.42 -2.17,-7.43 -5.36,-13.74 -9.58,-18.86 -4.19,-5.17 -9.35,-9.06 -15.44,-11.67 -5.4,-2.34 -11.46,-3.32 -18.18,-2.99 -6.72,0.34 -17.51,2.67 -32.34,7.01 l -63.58,18.64 14.3,48.78 63.35,-18.57 c 9.32,-2.73 16.16,-3.41 20.47,-1.95 4.31,1.42 7.33,5.19 9.12,11.31 1.79,6.08 1.05,11.23 -2.2,15.48 -3.25,4.27 -9.04,7.65 -17.4,10.09 l -63.11,18.52 14.29,48.77 z m 26.13,-197.03 c 4.12,-1.21 7.41,-0.87 9.8,1.05 2.4,1.89 4.51,5.92 6.32,12.08 0.52,1.82 0.93,3.21 1.17,4.15 0.24,0.97 0.44,1.91 0.62,2.82 l 35.33,-10.36 c -1.42,-6.11 -2.71,-11.68 -3.97,-16.66 -1.25,-4.99 -2.52,-9.64 -3.78,-13.91 -4.55,-15.49 -10.3,-25.55 -17.3,-30.16 -7,-4.6 -17,-5.02 -30.02,-1.2 l -61.52,18.04 -5.06,-17.26 -28.13,8.25 5.06,17.26 -37.92,11.11 14.24,48.55 37.91,-11.11 6.72,22.89 28.12,-8.26 -6.71,-22.89 49.12,-14.39 z m 4.29,-153.77 -95.04,27.87 -4.49,-15.26 -27.66,8.12 4.47,15.25 -7.66,2.25 c -13.68,4 -22.79,10.35 -27.25,19.07 -4.48,8.73 -4.61,20.26 -0.39,34.64 l 8.01,27.31 30.7,-8.99 c -0.18,-0.62 -0.47,-1.47 -0.87,-2.56 -0.41,-1.13 -0.69,-1.93 -0.85,-2.46 -1.74,-5.94 -1.95,-10.4 -0.63,-13.3 1.27,-2.92 4.44,-5.1 9.37,-6.55 0.39,-0.12 0.98,-0.25 1.81,-0.41 0.79,-0.15 1.46,-0.29 2.01,-0.45 l 6.08,20.77 27.66,-8.11 -6.08,-20.77 95.05,-27.87 -14.24,-48.55 z m -181.43,-89.49 -30.46,8.93 8.26,28.21 30.49,-8.93 -8.29,-28.21 z m 11.98,40.85 -30.47,8.92 8.26,28.21 30.48,-8.93 -8.27,-28.2 z m 37.63,53.57 122.72,-35.99 -13.09,-44.61 -18.07,5.3 c 5.58,-7.83 9.06,-15.79 10.51,-23.83 1.45,-8.09 0.85,-16.53 -1.77,-25.422 -2.17,-7.446 -5.36,-13.739 -9.59,-18.864 -4.19,-5.179 -9.35,-9.062 -15.42,-11.676 -5.42,-2.339 -11.48,-3.332 -18.2,-2.988 -6.73,0.34 -17.51,2.664 -32.34,7.008 l -63.58,18.637 14.3,48.785 63.35,-18.57 c 9.33,-2.74 16.16,-3.4 20.48,-1.95 4.3,1.42 7.33,5.18 9.13,11.3 1.77,6.09 1.02,11.25 -2.2,15.49 -3.27,4.28 -9.06,7.64 -17.42,10.09 l -63.11,18.51 14.3,48.78 z m 41.56,-312.779 -166.25,48.746 15.66,53.402 122.1,-35.793 21.28,72.586 44.15,-12.945 -36.94,-125.996 z m -365.2,5.59 15.26,50.344 -68.18,17.914 18.42,55.054 66.09,-18.965 15.26,51.418 -168.89,45.274 -16.84,-50.86 57.69,-15.265 -17.37,-55.074 -59.26,16.832 -12.65,-52.438 170.47,-44.234 z m 53.85,319.449 -13.19,-47.21 c 8.4,-5.25 11.02,-14.17 6.29,-23.61 -2.64,-13.11 -17.34,-22.03 -32.55,-17.29 l -2.09,0.01 28.93,93.88 -9.43,0.01 c -41.95,11.59 -73.46,-7.79 -87.15,-52.9 -6.32,-20.99 -5.81,-40.92 6.25,-58.25 12.06,-9.97 24.62,-21.53 38.79,-26.261 39.34,-8.961 73.46,11.461 87.66,50.281 7.9,28.85 4.77,50.88 -10.95,69.79 -4.18,5.76 -7.34,6.82 -12.56,11.55 z m -79.29,-52.38 c 3.7,14.15 15.24,19.91 29.39,16.76 L 1864.13,1049 c -12.6,3.15 -18.36,16.28 -15.2,28.87 z m 124.92,63.88 12.66,46.67 -125.36,33.71 -12.12,-47.73 124.82,-32.65 z m -135.3,35.27 13.15,47.74 -35.14,8.95 -15.79,-48.77 37.78,-7.92 z m 152.69,27.65 36.33,125.36 -36.19,11.59 -17.39,-63.47 -36.12,70.87 -34.09,6.86 -34.75,-113.83 37.25,-8.44 15.27,54.57 33.5,-72.97 36.19,-10.54 z m 51.64,230.28 17.32,-3.69 11.59,45.63 -122.22,33.71 -17.36,-49.31 68.17,-17.38 c 14.71,-1.06 19.95,-11.56 18.88,-24.16 -4.21,-7.86 -9.45,-11.52 -15.22,-13.61 -2.62,2.09 -5.78,2.09 -9.45,2.1 l -70.27,17.38 -15.27,-49.82 83.38,-20.03 c 27.81,-5.78 50.38,4.68 59.33,33.52 5.79,18.89 1.61,31.48 -8.88,45.66 z m 34.71,65.02 13.68,47.72 -65.04,16.34 c -13.64,3.69 -19.41,12.61 -14.68,24.14 2.65,13.12 8.95,16.26 19.43,13.1 l 72.91,-18.95 13.17,50.34 -82.87,20.55 c -25.18,8.41 -49.85,-7.82 -56.69,-33.51 -4.74,-12.61 -3.18,-27.29 0.49,-37.26 -0.02,-3.14 2.09,-3.67 4.71,-6.82 l -13.64,3.15 -13.7,-50.35 122.23,-28.45 z m -39.61,263.92 c -12.59,-5.74 -18.39,-14.65 -25.21,-30.39 -10.01,-35.67 7.79,-60.34 49.75,-70.36 40.4,-11.05 70.31,1.51 79.26,37.72 3.68,14.14 2.65,26.22 -2.58,39.87 l 9.44,-2.64 c 10.49,-4.74 16.28,-5.8 18.88,-11.05 1.57,-5.23 1.57,-11.54 -0.01,-16.78 -2.63,-9.45 -10.5,-15.19 -19.96,-15.2 l -11.07,-44.58 c 30.98,1.54 48.29,14.13 58.29,53.98 6.33,22.56 6.33,31.46 1.64,47.74 -1.57,7.87 -2.62,14.69 -8.89,19.44 -5.25,5.77 -14.18,8.91 -24.66,14.17 l -124.84,28.46 -12.63,-47.21 12.59,-3.17 z m 15.71,-23.09 c 6.3,11.54 15.23,14.67 34.64,11.52 19.4,-4.22 27.78,-13.14 24.63,-28.89 -5.25,-13.11 -17.86,-16.77 -36.21,-13.07 -18.88,4.74 -25.7,14.19 -23.06,30.44 z m -710.9,-926.183 184.69,5.586 14.21,50.879 -89.68,43.113 101.27,-5.882 14.73,52.457 -156.77,91.44 -13.7,-52.964 99.64,-48.894 -113.85,5.878 -14.75,-45.093 102.27,-49.434 -112.79,3.266 -15.27,-50.352 z m 251.06,278.343 4.2,-1.05 c 3.14,-2.12 6.29,-2.12 11.54,-0.02 l 14.73,47.73 c -10.49,0.01 -17.31,0.01 -24.65,0.01 l -69.25,18.44 c -8.38,2.64 -19.39,0.02 -28.32,-6.26 -11.56,-8.9 -21,-19.91 -27.86,-47.19 -10.53,-34.62 -7.93,-55.61 10.95,-69.26 5.26,-2.64 7.86,-3.16 13.63,-5.79 l 11.59,46.16 c -8.39,2.62 -11.53,11.02 -8.36,22.04 3.67,9.44 8.94,17.3 17.85,14.14 5.76,0 7.86,-7.36 5.75,-16.26 l -3.71,-34.62 c -3.17,-28.33 5.72,-42.51 24.09,-48.3 27.27,-5.8 46.7,6.77 53.54,33.02 7.36,12.55 7.38,28.83 0.03,37.23 0.01,3.68 -1.55,6.3 -5.75,9.98 z m -30.94,7.89 c 13.11,-3.15 19.39,-16.28 16.23,-28.34 -3.16,-11.54 -11.03,-16.78 -19.96,-14.15 -5.76,2.1 -10.47,8.41 -8.89,16.27 l 0.02,18.36 c 1.05,0.01 1.05,0.01 0.01,4.71 -1.59,3.17 -1.59,3.69 -2.62,6.84 l 15.21,-3.69 z m 18.41,61.9 c 8.41,-2.11 12.61,-2.12 19.94,-0.03 8.4,2.62 17.32,6.27 23.11,11.52 8.92,9.43 16.8,22.55 22.59,44.56 14.73,35.16 1.12,62.97 -24.58,69.81 -17.3,3.16 -34.11,-3.1 -43.04,-22.51 l -19.98,-34.6 c -4.72,-4.2 -5.77,-5.77 -11.54,-4.18 -5.77,1.04 -7.86,6.82 -4.7,14.16 3.15,9.96 8.4,14.69 17.3,11.53 l 15.28,46.15 c -29.38,7.36 -47.76,-11.49 -59.34,-53.46 -11.57,-37.23 -2.68,-60.33 20.91,-65.07 16.27,-6.32 31.48,3.12 44.11,20.41 l 18.38,30.42 c 4.72,7.86 7.36,9.96 13.13,7.85 5.75,-2.11 8.39,-7.88 3.65,-16.26 -2.64,-11.55 -9.46,-17.84 -22.58,-14.67 l -12.64,-45.63 z m 43.18,141.09 c 8.9,-1.59 12.59,-1.6 17.84,-0.03 11.01,2.6 19.41,6.27 24.65,9.95 7.89,7.86 20.49,25.68 25.22,45.61 8.45,36.19 0.08,61.9 -26.14,68.24 -20.46,4.73 -32.54,-3.12 -44.62,-21.47 l -21.55,-36.19 c -3.15,-4.71 -5.77,-5.75 -9.97,-4.71 -2.64,2.12 -4.72,7.36 -2.61,16.28 1.06,11.55 6.84,16.25 17.33,13.62 l 14.21,43.53 c -31.48,7.9 -49.86,-12.53 -62.49,-54.5 -11.57,-34.08 -2.69,-59.28 25.13,-66.12 15.19,-4.22 31.47,3.63 44.08,25.66 l 15.77,26.21 c 4.21,6.28 6.82,11.53 12.07,8.9 8.4,-2.62 8.9,-8.93 6.28,-16.27 -3.67,-9.96 -11.57,-15.72 -22.57,-12.03 l -12.63,-46.68 z m 87.88,272.72 -13.68,-45.62 c 7.86,-4.23 8.91,-12.61 6.26,-25.2 -4.21,-14.17 -15.23,-19.92 -29.91,-16.22 l -1.56,-0.02 25.26,92.84 -6.29,2.64 c -45.12,6.86 -78.19,-11.46 -90.83,-53.96 -7.35,-22.55 -4.75,-41.43 8.36,-57.19 8.9,-14.71 23.58,-24.67 38.25,-27.31 39.35,-10.54 72.96,11.47 85.05,51.85 8.96,28.32 5.84,48.27 -8.85,66.11 -5.24,6.29 -6.3,6.83 -12.06,12.08 z m -78.74,-49.76 c 2.63,10.49 13.65,17.29 28.86,16.22 l -15.25,-45.62 c -13.65,2.64 -18.87,14.71 -13.61,29.4 z m 119.15,61.27 16.33,51.39 -55.61,12.64 c -11.01,3.69 -14.69,6.31 -19.93,13.13 -2.62,4.73 -2.6,14.72 0.02,25.19 0.01,5.26 0.01,8.4 5.28,14.16 l -41.44,9.49 c -3.69,-3.68 -5.8,-6.82 -5.79,-11.55 -4.19,-6.81 -4.2,-14.15 -1.08,-20.97 1.05,-2.62 3.16,-7.87 3.67,-11.55 5.25,-3.16 5.77,-3.15 8.4,-5.25 l -17.85,2.11 -13.68,-46.14 121.68,-32.65 z m -593.41,-786.113 15.28,50.871 -51.39,13.164 -11,17.844 79.76,25.629 17.39,65.562 -125.45,-43.937 -48.7,78.75 -16.34,-62.953 41.91,-65.086 -56.12,16.328 -15.259,-50.883 169.919,-45.289 z m 50.04,178.328 15.26,45.625 -169.42,45.29 -16.31,-49.3 170.47,-41.615 z m 21.57,67.655 14.75,48.77 -125.36,31.61 -13.16,-49.29 123.77,-31.09 z m -136.37,35.28 15.79,47.74 -35.67,7.92 -14.73,-47.22 34.61,-8.44 z m 155.87,36.05 15.78,49.3 -69.25,15.81 c -11.53,1.06 -17.3,11.56 -14.14,20.48 2.64,8.92 9.47,14.17 14.19,13.11 l 4.19,-1.59 73.44,-20.54 14.21,48.78 -68.72,19.48 c -11.54,0.54 -19.92,11.05 -17.3,21.01 2.65,10.5 11.57,14.67 23.11,12.05 l 73.43,-21.07 14.22,50.87 -82.35,22.12 c -28.32,3.71 -50.38,-8.87 -59.85,-37.7 -4.74,-15.75 -2.65,-29.38 9.4,-46.72 -16.79,-2.6 -25.72,-11.5 -31.51,-28.3 -4.21,-14.68 -4.22,-26.21 2.07,-35.15 -0.01,-2.63 0.52,-6.8 5.75,-11.03 l -16.78,4.23 -13.16,-44.06 123.27,-31.08 z m 82.15,312.61 4.2,-1.06 c 2.62,-1.58 5.77,-1.58 11.54,-0.01 l 14.21,48.25 c -11.01,-2.08 -16.78,0.03 -25.7,0.55 l -67.67,19.48 c -12.59,0.54 -20.47,0.02 -28.86,-7.32 -12.59,-8.9 -19.95,-21.48 -28.9,-48.24 -11.05,-34.61 -8.45,-57.17 11.46,-70.83 4.74,-0.53 7.34,-3.15 13.65,-3.69 l 11.57,45.1 c -7.86,3.68 -10.47,12.63 -7.82,23.11 4.72,9.44 8.39,16.77 16.27,14.14 6.3,0 6.29,-7.88 6.28,-16.79 l -5.28,-35.14 c -2.66,-27.29 7.29,-43.56 28.8,-46.72 22.56,-6.85 44.6,3.09 52.49,32.47 5.8,12.58 5.82,26.75 0.05,37.24 -2.11,4.2 -2.1,5.78 -6.29,9.46 z m -29.91,8.95 c 11.03,-3.15 18.36,-17.87 14.16,-28.87 -3.17,-11.02 -10.53,-15.21 -19.43,-14.15 -6.3,1.58 -8.39,7.36 -8.39,14.17 l 0.02,19.94 c 0,0 0,0 0,5.25 0,3.66 0,3.66 -1.03,6.29 l 14.67,-2.63 z M 717.836,994.418 c -8.406,0.016 -12.59,0.016 -20.981,-1.547 -30.968,-3.648 -56.695,-28.808 -64.597,-61.312 -16.84,-52.442 8.816,-98.125 64.418,-109.739 23.609,-7.875 48.793,-4.765 68.754,6.774 25.179,12.031 37.261,26.707 43.062,50.32 8.946,25.16 5.285,39.344 -5.719,56.656 l 16.27,-1.07 12.609,32.52 -94.406,25.273 -22.109,-73.934 36.722,-8.449 6.305,22.559 c 5.254,-3.684 8.395,-7.871 10.496,-14.172 0.52,-5.785 0.5,-13.649 -2.113,-19.938 -3.172,-10.48 -8.434,-20.449 -19.969,-25.152 -6.828,-2.625 -15.742,-2.625 -31.48,-1.031 -18.356,5.793 -25.715,10 -29.368,17.355 -9.957,9.446 -13.097,18.371 -7.839,28.852 4.734,16.273 13.14,24.652 25.726,23.058 l 14.219,52.977 z m 131.242,80.672 1.582,0 c 3.66,-1.06 6.813,-1.07 11.539,-0.03 l 13.156,47.73 c -9.96,0.01 -14.675,0.02 -23.593,2.65 l -67.145,14.76 c -13.117,4.73 -20.988,1.6 -29.906,-5.75 -11.547,-6.8 -19.441,-21.48 -27.856,-46.14 -10.011,-36.19 -8.976,-57.16 10.954,-68.72 5.238,-2.64 7.855,-2.64 11.531,-2.65 l 14.211,41.44 c -8.922,4.21 -12.051,13.12 -8.899,21 3.68,12.05 8.938,17.83 16.813,15.72 7.851,-0.53 8.902,-5.78 7.84,-16.79 l -4.75,-32.53 c -5.278,-28.84 5.73,-44.6 27.234,-49.866 23.086,-6.328 46.18,5.196 52.5,31.936 3.164,15.75 3.176,28.86 -0.492,40.41 0,3.15 -3.145,3.67 -4.719,6.83 z m -31.457,8.43 c 10.996,-3.16 18.863,-15.25 14.125,-28.89 -3.148,-8.38 -11.035,-14.14 -17.844,-10.99 -7.875,0 -11.015,5.78 -8.898,13.13 l 0.008,18.36 c 0,0 0,0 0.004,4.19 0.015,4.2 0.015,6.3 -2.086,8.93 l 14.691,-4.73 z m 18.942,61.37 c 9.972,-2.12 12.593,-2.13 17.832,-0.04 9.972,0.52 16.785,5.76 20.988,9.43 9.992,10.48 21.543,26.21 26.297,44.56 12.617,37.77 1.105,65.58 -26.172,71.39 -17.836,3.69 -28.848,-3.13 -41.473,-22.52 l -23.121,-33.56 c -2.629,-6.29 -4.719,-7.35 -7.863,-6.29 -3.68,2.12 -6.809,8.92 -3.66,16.27 2.636,9.96 5.781,14.69 17.324,11 l 12.117,46.16 c -26.754,4.22 -46.715,-13.6 -61.973,-53.97 -8.421,-38.82 -3.207,-59.29 26.7,-67.2 14.671,-5.76 29.386,4.7 43.046,24.63 l 17.864,29.36 c 3.156,7.87 5.261,9.96 9.965,7.85 6.828,-1.05 6.836,-7.87 6.82,-17.83 -5.797,-12.59 -11.578,-16.26 -22.043,-15.73 l -12.648,-43.51"
         style="fill:#fff200;fill-opacity:1;fill-rule:evenodd;stroke:none"
         id="path50" /><path
         d="m 2655.2,594.453 -76.8,-328.836 2310.8,1.848 0.01,-24.949 -2342.44,-2.012 76.81,328.851 -2110.717,-0.757 -0.011,25.035 2142.348,0.82"
         style="fill:#ffffff;fill-opacity:1;fill-rule:evenodd;stroke:none"
         id="path52" /></g></g></svg>