<?xml version="1.0" encoding="UTF-8" standalone="no"?>
<!-- Created with Inkscape (http://www.inkscape.org/) -->

<svg
   xmlns:dc="http://purl.org/dc/elements/1.1/"
   xmlns:cc="http://creativecommons.org/ns#"
   xmlns:rdf="http://www.w3.org/1999/02/22-rdf-syntax-ns#"
   xmlns:svg="http://www.w3.org/2000/svg"
   xmlns="http://www.w3.org/2000/svg"
   version="1.1"
   width="933.0448"
   height="216.13576"
   id="svg2"
   xml:space="preserve"><metadata
     id="metadata8"><rdf:RDF><cc:Work
         rdf:about=""><dc:format>image/svg+xml</dc:format><dc:type
           rdf:resource="http://purl.org/dc/dcmitype/StillImage" /><dc:title></dc:title></cc:Work></rdf:RDF></metadata><defs
     id="defs6" /><path
     d="m 376.49878,0 c 2.93374,0.0012 4.7825,2.835 3.95625,5.61375 L 338.36878,147.457 c -0.93,3.60312 1.78375,6.51125 4.52375,6.51812 l -42.71625,-0.123 c -2.8825,-0.008 -4.75626,-2.6895 -3.90625,-5.56212 L 338.51127,5.57 c 1.40376,-5.04 -2.26249,-5.5625 -4.05874,-5.56125 L 376.49878,5e-5 z m -48.72501,144.82325 -20.3575,-6.21388 4.70125,-15.39987 5.1275,1.56537 -2.70499,8.86038 3.15249,0.96187 2.15125,-7.04875 4.92,1.50188 -2.15125,7.04887 7.15875,2.18463 -1.9975,6.5395 z m 5.41001,-17.72075 -20.35875,-6.21375 1.83875,-6.025 20.35875,6.21375 -1.83875,6.025 z m -13.64126,-14.6175 -4.29874,-1.3125 1.83875,-6.025 4.29875,1.3125 -1.83876,6.025 z m 16.56001,5.055 -15.0275,-4.5875 1.83875,-6.025 15.0275,4.58625 -1.83875,6.02625 z m -4.75,-17.42375 1.62374,-5.32125 c -0.94875,-0.2175 -1.725,-0.17625 -2.32625,0.135 -0.605,0.31125 -1.0325,0.88625 -1.2925,1.735 -0.23875,0.78375 -0.18375,1.48125 0.17375,2.085 0.35125,0.60875 0.96,1.0625 1.82125,1.36625 z m 6.2825,-3.54875 1.74625,-5.72375 c 1.51499,0.91625 2.47874,2.205 2.89375,3.87 0.41625,1.65875 0.26875,3.64625 -0.43375,5.9475 -0.7875,2.58125 -2.13,4.41 -4.02625,5.4875 -1.89125,1.0775 -4.0525,1.2475 -6.47875,0.5075 -2.52375,-0.77 -4.27875,-2.15125 -5.26875,-4.145 -0.985,-1.9925 -1.07375,-4.325 -0.26125,-6.98625 0.8175,-2.675 2.24874,-4.5275 4.30124,-5.55625 2.05251,-1.03 4.48751,-1.11625 7.30875,-0.255 l 0.35875,0.10875 -3.4075,11.215 c 0.96625,0.26375 1.785,0.235 2.44875,-0.0838 0.67125,-0.32125 1.13375,-0.90625 1.395,-1.76625 0.1775,-0.58 0.21625,-1.095 0.1175,-1.5475 -0.0987,-0.4525 -0.33,-0.8125 -0.69375,-1.0725 z m 2.14375,-8.005 1.77125,-5.80375 c 0.6375,0.195 1.15875,0.17375 1.57,-0.0575 0.415,-0.22875 0.72125,-0.67125 0.92125,-1.3275 0.19125,-0.6275 0.23375,-1.14 0.125,-1.54 -0.11,-0.4 -0.37,-0.665 -0.77625,-0.78875 -0.67,-0.205 -1.39625,0.38375 -2.16875,1.7675 -0.0687,0.1225 -0.1225,0.215 -0.165,0.285 -1.45,2.625 -2.65751,4.26375 -3.6125,4.91125 -0.95,0.6425 -2.09501,0.76375 -3.43001,0.355 -1.61374,-0.4925 -2.64875,-1.495 -3.10874,-3.01125 -0.46125,-1.51375 -0.32,-3.4825 0.415,-5.8925 0.685,-2.24125 1.61125,-3.85625 2.7775,-4.84125 1.16874,-0.98875 2.56,-1.33875 4.1825,-1.04375 l -1.64126,5.37875 c -0.46875,-0.0925 -0.88499,-0.007 -1.25499,0.25625 -0.375,0.2675 -0.64,0.66 -0.80001,1.18375 -0.16125,0.52875 -0.19375,0.9575 -0.0987,1.28625 0.095,0.3325 0.3125,0.54875 0.65625,0.65375 0.59501,0.18125 1.24625,-0.3625 1.9475,-1.62875 0.18,-0.3375 0.31875,-0.58875 0.4125,-0.76125 1.46,-2.535 2.66751,-4.10625 3.62001,-4.7125 0.95875,-0.605 2.1175,-0.7 3.48,-0.28375 1.7275,0.5275 2.82,1.5925 3.28875,3.2 0.46375,1.6075 0.29624,3.7275 -0.505,6.35 -0.7425,2.435 -1.7475,4.155 -3.00876,5.1625 -1.26875,1.01125 -2.79874,1.31125 -4.5975,0.9025 z m 2.615,-24.61875 1.62375,-5.32125 c -0.95,-0.21875 -1.72625,-0.17625 -2.32625,0.135 -0.60501,0.31125 -1.03375,0.88625 -1.29251,1.735 -0.23874,0.78375 -0.18374,1.48125 0.17375,2.085 0.35,0.6075 0.96,1.0625 1.82125,1.36625 z m 6.28125,-3.55 1.7475,-5.7225 c 1.515,0.91625 2.4775,2.20625 2.89375,3.86875 0.41625,1.66 0.26875,3.6475 -0.43375,5.94875 -0.7875,2.58125 -2.13,4.41 -4.02625,5.48625 -1.89125,1.07875 -4.05375,1.24875 -6.47875,0.51 -2.52375,-0.77125 -4.27875,-2.1525 -5.26875,-4.1475 -0.98625,-1.9925 -1.07375,-4.32375 -0.26125,-6.985 0.81625,-2.675 2.24875,-4.5275 4.30125,-5.5575 2.05125,-1.02875 4.48625,-1.11625 7.3075,-0.255 l 0.36,0.11 -3.4075,11.21375 c 0.96625,0.26375 1.78375,0.23625 2.44875,-0.0825 0.67,-0.32125 1.1325,-0.9075 1.395,-1.76625 0.1775,-0.58 0.215,-1.095 0.11625,-1.5475 -0.0987,-0.45375 -0.33,-0.8125 -0.69376,-1.07375 z m 7.1,-7.30625 -15.0275,-4.5875 1.66,-5.435 2.19875,0.67125 c -0.665,-0.96625 -1.0775,-1.9475 -1.245,-2.9375 -0.165,-0.995 -0.0787,-2.03625 0.25125,-3.12125 0.27875,-0.91125 0.67875,-1.68125 1.205,-2.30875 0.52125,-0.625 1.16,-1.09625 1.91,-1.40875 0.68125,-0.28625 1.44,-0.40625 2.27625,-0.3575 0.83625,0.04875 2.1375,0.34375 3.9075,0.88375 l 7.8125,2.385 -1.8225,5.9725 -7.785,-2.375 c -1.1425,-0.34875 -1.975,-0.43875 -2.49875,-0.26375 -0.52125,0.17125 -0.89375,0.63 -1.1225,1.38125 -0.23125,0.75375 -0.15125,1.39125 0.23125,1.91125 0.3875,0.52 1.09125,0.93625 2.115,1.24875 l 7.75625,2.3675 -1.8225,5.97375"
     id="path16"
     style="fill:#fff200;fill-opacity:1;fill-rule:evenodd;stroke:none" /><path
     d="m 499.29127,190.2115 -4.8625,0.002 5.52125,-26.50387 4.91,-0.002 -2.18,10.43262 6.66001,-0.003 2.18124,-10.43262 4.88626,-0.002 -5.54501,26.504 -4.91,0.002 2.57875,-12.19475 -6.66,0.003 -2.58,12.19488"
     id="path18"
     style="fill:#fff200;fill-opacity:1;fill-rule:nonzero;stroke:none" /><path
     d="m 525.85378,180.649 c -0.34125,0.15275 -0.8275,0.36425 -1.4625,0.64062 -2.8475,1.2055 -4.26875,2.53363 -4.2675,3.9785 0,0.74563 0.17,1.31538 0.505,1.70313 0.34125,0.393 0.82875,0.58737 1.4575,0.58687 0.98625,-5e-4 1.74375,-0.4355 2.26625,-1.29937 0.5225,-0.86963 1.02125,-2.73725 1.50125,-5.60975 z m -1.21875,8.00575 c -0.5575,0.73487 -1.1675,1.275 -1.83125,1.62212 -0.6575,0.34713 -1.41001,0.52338 -2.255,0.52388 -1.59751,0.001 -2.82625,-0.46288 -3.70125,-1.38425 -0.87,-0.92187 -1.305,-2.23138 -1.30625,-3.92913 0,-1.83837 0.475,-3.295 1.42625,-4.38237 0.945,-1.081 2.44875,-1.86863 4.4975,-2.36325 0.135,-0.0348 0.33499,-0.0825 0.6,-0.14112 3.25875,-0.78226 4.89124,-1.98151 4.89,-3.60251 0,-0.59337 -0.17625,-1.05725 -0.535,-1.39162 -0.3525,-0.335 -0.8575,-0.499 -1.515,-0.499 -0.82875,3.8e-4 -1.46875,0.23525 -1.92,0.706 -0.4525,0.46975 -0.775,1.23387 -0.96875,2.291 l -4.435,0.002 c 0.29875,-2.12063 1.0625,-3.70125 2.28875,-4.74663 1.2275,-1.04049 2.9425,-1.564 5.145,-1.56487 2.05,-10e-4 3.6475,0.42137 4.78125,1.26025 1.13375,0.84562 1.705,2.02 1.705,3.53512 0,0.21775 -0.0175,0.49363 -0.0588,0.82863 -0.04,0.34025 -0.0987,0.71625 -0.18125,1.12737 l -2.285,10.97313 c -0.06,0.28762 -0.11125,0.66362 -0.165,1.13387 -0.0513,0.47013 -0.0925,0.98675 -0.12875,1.54488 l -4.25125,0.001 0.20375,-1.545"
     id="path20"
     style="fill:#fff200;fill-opacity:1;fill-rule:nonzero;stroke:none" /><path
     d="m 545.27252,170.45562 4.58125,-0.002 -4.19,19.73688 -4.27,0.002 0.4275,-1.686 c -0.78625,0.76951 -1.57875,1.33988 -2.3775,1.72163 -0.79875,0.3765 -1.615,0.565 -2.44875,0.5655 -1.24,5e-4 -2.1975,-0.32225 -2.86625,-0.962 -0.67,-0.64013 -1.00625,-1.562 -1.00625,-2.766 0,-0.2525 0.0238,-0.564 0.075,-0.93413 0.0538,-0.376 0.14125,-0.875 0.27,-1.50925 l 3.03,-14.16262 4.57625,-0.002 -2.91875,13.78662 c -0.0713,0.32275 -0.1175,0.61088 -0.1525,0.86338 -0.035,0.2465 -0.0525,0.48137 -0.0525,0.687 0,0.5405 0.135,0.94575 0.40625,1.2275 0.27,0.28175 0.66375,0.42287 1.18,0.42237 0.735,-5e-4 1.3275,-0.28275 1.78,-0.85212 0.45125,-0.57025 0.82125,-1.49263 1.10875,-2.77925 l 2.8475,-13.35738"
     id="path22"
     style="fill:#fff200;fill-opacity:1;fill-rule:nonzero;stroke:none" /><path
     d="m 550.26503,183.17525 3.93499,0.0156 c -0.0112,0.18225 -0.0162,0.37601 -0.0225,0.57576 -0.006,0.19974 -0.0113,0.45799 -0.0113,0.78125 0,0.97462 0.1825,1.67962 0.5525,2.12062 0.365,0.43987 0.94625,0.663 1.74,0.66262 0.745,0 1.3025,-0.189 1.6675,-0.55912 0.36875,-0.376 0.55125,-0.9395 0.55125,-1.69775 0,-0.9395 -0.80625,-2.002 -2.41,-3.19388 l -0.20619,-0.1586 c -1.53876,-1.10938 -2.5675,-2.1075 -3.09001,-2.9825 -0.52374,-0.8745 -0.7825,-1.92575 -0.7825,-3.14163 -10e-4,-1.86762 0.5675,-3.30762 1.70125,-4.312 1.13375,-1.00537 2.765,-1.50537 4.885,-1.50587 1.93875,-8.8e-4 3.42,0.4625 4.43625,1.39025 1.01625,0.92762 1.5225,2.27237 1.5225,4.0405 0,0.041 -0.005,0.24025 -0.0175,0.59275 -0.0113,0.34662 -0.0163,0.664 -0.0163,0.95162 l -3.9825,10e-4 0,-0.56937 c -0.001,-1.21575 -0.165,-2.038 -0.48875,-2.4785 -0.32875,-0.4345 -0.91625,-0.65138 -1.7625,-0.65138 -0.59875,5e-4 -1.06875,0.18263 -1.42125,0.5415 -0.34625,0.36425 -0.5225,0.8575 -0.5225,1.49175 10e-4,1.01025 0.695,1.98538 2.08125,2.92425 0.37,0.24025 0.64625,0.43413 0.84625,0.56938 1.27375,0.9155 2.1975,1.8315 2.7675,2.74175 0.57625,0.9165 0.86375,1.9145 0.86375,3.00087 10e-4,2.03225 -0.59125,3.61288 -1.77125,4.73488 -1.18,1.12262 -2.8425,1.687 -4.985,1.688 -2.07375,5e-4 -3.63125,-0.46875 -4.65875,-1.4135 -1.035,-0.94488 -1.5525,-2.36625 -1.5525,-4.2515 -10e-4,-0.3115 0.0112,-0.62263 0.0412,-0.94 0.0288,-0.3115 0.0637,-0.63425 0.11,-0.96925"
     id="path24"
     style="fill:#fff200;fill-opacity:1;fill-rule:nonzero;stroke:none" /><path
     d="m 575.33753,164.76812 -1.2375,5.67425 2.05,-5e-4 -0.63251,2.99513 -2.04999,10e-4 -2.49126,11.80662 c -0.0112,0.0591 -0.0238,0.1235 -0.035,0.19388 -0.0225,0.18212 -0.035,0.30562 -0.035,0.376 0,0.37012 0.11749,0.62837 0.3475,0.78125 0.22874,0.15862 0.6275,0.23437 1.20375,0.23387 l 0.46375,0 -0.75625,3.34863 c -0.42251,0.0703 -0.8275,0.1235 -1.20376,0.15912 -0.375,0.0353 -0.75125,0.0528 -1.11625,0.0533 -1.20375,5e-4 -2.1325,-0.25775 -2.78375,-0.78025 -0.6525,-0.522 -0.9825,-1.274 -0.9825,-2.24312 0,-0.31163 0.0238,-0.67 0.0763,-1.06888 0.0525,-0.3995 0.135,-0.84625 0.2525,-1.33937 l 2.44875,-11.519 -1.72,3.7e-4 0.62125,-2.9955 1.7325,-0.001 1.18375,-5.67387 4.66376,-0.002"
     id="path26"
     style="fill:#fff200;fill-opacity:1;fill-rule:nonzero;stroke:none" /><path
     d="m 586.39127,177.69675 c 0.1175,-0.5405 0.19875,-1.02825 0.2525,-1.46288 0.0525,-0.44037 0.0763,-0.80462 0.0763,-1.104 -10e-4,-0.67574 -0.165,-1.18012 -0.5,-1.51512 -0.33,-0.335 -0.82375,-0.499 -1.48125,-0.4985 -0.88125,5e-4 -1.5625,0.34125 -2.04875,1.01712 -0.4875,0.67525 -0.88125,1.86813 -1.18,3.56588 l 4.88125,-0.002 z m -1.11375,5.921 4.3,-0.002 c -0.1925,2.40775 -0.89125,4.21137 -2.08875,5.4155 -1.1975,1.20512 -2.895,1.811 -5.0975,1.812 -2.1675,10e-4 -3.77625,-0.48 -4.835,-1.44288 -1.05125,-0.96287 -1.58,-2.43112 -1.58125,-4.40425 0,-0.42337 0.0238,-0.91062 0.07,-1.46287 0.0462,-0.54638 0.10501,-1.12163 0.1875,-1.72075 0.21625,-1.61575 0.4675,-3.06638 0.755,-4.3525 0.28751,-1.28125 0.58001,-2.2915 0.89126,-3.02588 0.69875,-1.65037 1.60249,-2.8375 2.70749,-3.55475 1.10875,-0.71675 2.58875,-1.07562 4.44501,-1.07662 2.0975,-0.001 3.63625,0.439 4.605,1.32562 0.97,0.87988 1.4525,2.272 1.4525,4.17538 10e-4,0.71625 -0.0637,1.539 -0.1975,2.47262 -0.12875,0.93413 -0.3225,1.9385 -0.575,3.0195 l -9.37375,0.004 c -0.19375,0.95125 -0.34,1.7915 -0.44501,2.51962 -0.1,0.7285 -0.1525,1.30363 -0.1525,1.71525 0,0.8165 0.1825,1.42088 0.54125,1.82038 0.365,0.40525 0.91125,0.605 1.645,0.6045 0.78625,-5e-4 1.40875,-0.312 1.85625,-0.92875 0.44501,-0.623 0.745,-1.59275 0.89,-2.914"
     id="path28"
     style="fill:#fff200;fill-opacity:1;fill-rule:nonzero;stroke:none" /><path
     d="m 606.65752,182.69187 c -0.31625,2.79063 -1.07875,4.834 -2.28125,6.145 -1.20375,1.31013 -2.93125,1.963 -5.175,1.96388 -2.10749,0.001 -3.66499,-0.48575 -4.66999,-1.455 -1.00375,-0.96825 -1.50375,-2.46588 -1.505,-4.49225 0,-0.63425 0.0525,-1.392 0.16375,-2.27288 0.105,-0.88087 0.2625,-1.8975 0.4675,-3.0425 0.335,-1.72125 0.675,-3.10212 1.0325,-4.1475 0.35125,-1.04537 0.78625,-1.94475 1.29125,-2.70262 0.6275,-0.93988 1.4375,-1.65675 2.43,-2.15088 0.99249,-0.49362 2.12625,-0.74075 3.4125,-0.74125 1.99125,-8.7e-4 3.50625,0.48 4.54625,1.44825 1.04125,0.96875 1.5575,2.39013 1.55875,4.25788 0,0.25825 -0.0113,0.55225 -0.04,0.8755 -0.03,0.31688 -0.0763,0.687 -0.14625,1.09862 l -4.40625,0.001 c 0.0825,-0.4345 0.135,-0.81638 0.17,-1.13375 0.035,-0.32275 0.0525,-0.605 0.0525,-0.84563 0,-0.73437 -0.17125,-1.29787 -0.50625,-1.6915 -0.34,-0.393 -0.81625,-0.59275 -1.4325,-0.59275 -0.6525,5e-4 -1.18625,0.25338 -1.5975,0.75875 -0.41625,0.50538 -0.78625,1.39213 -1.115,2.667 -0.46875,1.80325 -0.82625,3.3955 -1.0725,4.76963 -0.24625,1.38075 -0.36875,2.51462 -0.3675,3.40712 0,0.91025 0.14625,1.5625 0.44,1.9615 0.28875,0.40525 0.75875,0.605 1.39875,0.6045 0.79875,-4.9e-4 1.4325,-0.38825 1.9025,-1.15825 0.46875,-0.7695 0.7975,-1.94437 0.97875,-3.53025 l 4.47,-0.002"
     id="path30"
     style="fill:#fff200;fill-opacity:1;fill-rule:nonzero;stroke:none" /><path
     d="m 613.15128,190.16012 -4.61125,0.002 5.6325,-26.43312 4.5825,-0.002 -1.6825,8.03563 c 0.65125,-0.64012 1.345,-1.12263 2.06624,-1.45163 0.72875,-0.32325 1.48626,-0.48837 2.26126,-0.48887 1.24,0 2.1975,0.32275 2.86749,0.96825 0.67,0.65137 1.005,1.56788 1.005,2.76025 10e-4,0.2525 -0.0225,0.55225 -0.0763,0.90437 -0.0525,0.34663 -0.14625,0.84613 -0.28125,1.50388 l -2.9825,14.19775 -4.61125,0.002 2.91875,-13.78713 c 0.10625,-0.458 0.17,-0.79299 0.2,-0.9985 0.0288,-0.20512 0.0412,-0.38725 0.0412,-0.55187 -10e-4,-0.52875 -0.13625,-0.934 -0.4125,-1.22162 -0.27625,-0.28813 -0.68125,-0.42876 -1.21,-0.42825 -0.74625,4.9e-4 -1.345,0.28225 -1.7975,0.84674 -0.45125,0.55813 -0.81501,1.48038 -1.09125,2.749 l -2.81875,13.393"
     id="path32"
     style="fill:#fff200;fill-opacity:1;fill-rule:nonzero;stroke:none" /><path
     d="m 630.57253,190.15237 -4.61626,0.002 4.19001,-19.73687 4.2525,-0.002 -0.375,1.68562 c 0.78625,-0.76962 1.57375,-1.33937 2.36,-1.72174 0.7875,-0.37601 1.5925,-0.56438 2.41375,-0.56538 1.25125,0 2.215,0.32275 2.885,0.96825 0.67,0.65137 1.005,1.56787 1.005,2.76025 10e-4,0.2525 -0.0225,0.55175 -0.0763,0.90425 -0.0525,0.34675 -0.14625,0.84625 -0.28,1.504 l -2.98375,14.19775 -4.61125,0.002 2.91875,-13.78662 c 0.10625,-0.458 0.17125,-0.79288 0.2,-0.9985 0.0288,-0.20513 0.0412,-0.38725 0.0412,-0.55175 0,-0.52888 -0.13625,-0.93413 -0.4125,-1.22163 -0.27625,-0.28762 -0.68125,-0.42875 -1.20375,-0.42825 -0.74625,5e-4 -1.35125,0.28225 -1.8025,0.84663 -0.4525,0.55812 -0.81625,1.4805 -1.0925,2.749 l -2.8125,13.39312"
     id="path34"
     style="fill:#fff200;fill-opacity:1;fill-rule:nonzero;stroke:none" /><path
     d="m 648.22378,167.66062 0.80875,-3.94725 4.6525,-0.002 -0.845,3.94775 -4.61625,0.002 z m -4.7825,22.48588 4.18499,-19.73688 4.61625,-0.002 -4.19624,19.73725 -4.605,0.002"
     id="path36"
     style="fill:#fff200;fill-opacity:1;fill-rule:nonzero;stroke:none" /><path
     d="m 652.28628,190.14262 5.63374,-26.43362 4.58125,-0.002 -2.925,13.92137 6.05876,-7.2265 5.25,-0.003 -7.20875,8.24412 2.965,11.49313 -4.73375,0.002 -1.86,-7.92825 -1.9125,2.11525 -1.2375,5.81537 -4.61125,0.002"
     id="path38"
     style="fill:#fff200;fill-opacity:1;fill-rule:nonzero;stroke:none" /><path
     d="m 690.98127,187.69975 c -0.73375,1.02775 -1.5325,1.792 -2.4025,2.28563 -0.8625,0.49412 -1.8375,0.74124 -2.93,0.74124 -1.96124,0.001 -3.55375,-0.63824 -4.78125,-1.9185 -1.22875,-1.27387 -1.84,-2.95362 -1.84124,-5.02637 0,-0.74612 0.04,-1.55663 0.12875,-2.42625 0.0875,-0.875 0.23374,-1.96187 0.43875,-3.2715 0.3275,-2.00925 0.68499,-3.7715 1.0725,-5.29837 0.38125,-1.52726 0.78499,-2.80813 1.2075,-3.83638 0.86374,-2.06787 1.91999,-3.57175 3.16499,-4.51225 1.25,-0.94038 2.83001,-1.41112 4.7325,-1.41163 2.66125,-0.001 4.6,0.59088 5.81625,1.771 1.21625,1.18025 1.8275,3.065 1.82875,5.65526 0,0.28812 -0.0113,0.57575 -0.035,0.875 -0.0237,0.29987 -0.0587,0.63437 -0.105,0.99912 l -4.7575,0.002 c 0.035,-0.42237 0.065,-0.79875 0.0812,-1.12787 0.0175,-0.32275 0.0238,-0.59912 0.0238,-0.81638 0,-1.32775 -0.2125,-2.26124 -0.63625,-2.80712 -0.42875,-0.546 -1.145,-0.8155 -2.15625,-0.8155 -0.915,5e-4 -1.65,0.32375 -2.19,0.97025 -0.545,0.65187 -1.05,1.83887 -1.5075,3.57175 -0.745,2.8135 -1.325,5.33937 -1.7525,7.57762 -0.4225,2.24363 -0.6325,3.877 -0.6325,4.899 0,1.09863 0.24125,1.92625 0.7175,2.48438 0.47625,0.55712 1.18625,0.83337 2.13875,0.833 1.27375,-0.001 2.29,-0.583 3.04125,-1.74025 0.75125,-1.15775 1.23875,-2.90188 1.46625,-5.23975 l -3.03125,0.001 0.845,-4.05312 7.99875,-0.004 -2.8475,14.0625 -3.425,0.001 0.32875,-2.42575"
     id="path40"
     style="fill:#fff200;fill-opacity:1;fill-rule:nonzero;stroke:none" /><path
     d="m 702.70002,190.12012 -4.61125,0.002 4.19125,-19.73738 4.2525,-0.001 -0.38125,1.6855 c 0.78125,-0.75787 1.5675,-1.32812 2.36625,-1.71 0.79876,-0.38225 1.60375,-0.57662 2.42,-0.57712 1.03875,0 1.8675,0.19925 2.46625,0.59812 0.60625,0.399 1.02875,1.02788 1.2825,1.8735 0.8625,-0.84662 1.69625,-1.4755 2.5,-1.875 0.81125,-0.39987 1.63875,-0.6 2.485,-0.6005 1.25125,0 2.2025,0.32225 2.86625,0.96238 0.65876,0.64012 0.9875,1.5615 0.9875,2.76562 10e-4,0.28763 -0.0225,0.62838 -0.075,1.0225 -0.0525,0.3935 -0.13375,0.85788 -0.2525,1.38625 l -3.0125,14.19775 -4.61,0.002 2.91875,-13.78663 c 0.105,-0.458 0.17,-0.793 0.19875,-0.9985 0.03,-0.20562 0.0412,-0.38775 0.0412,-0.55225 -10e-4,-0.52875 -0.135,-0.93362 -0.41125,-1.22125 -0.2775,-0.288 -0.6825,-0.42862 -1.205,-0.42862 -0.74625,5e-4 -1.345,0.28262 -1.8025,0.84712 -0.4525,0.55813 -0.81625,1.4805 -1.09125,2.749 l -2.84875,13.39313 -4.51125,0.002 2.91875,-13.78662 c 0.10625,-0.458 0.17,-0.79288 0.2,-0.9985 0.0287,-0.2055 0.0462,-0.38763 0.0462,-0.55225 0,-0.52875 -0.14125,-0.93363 -0.4175,-1.22113 -0.27625,-0.28812 -0.675,-0.42875 -1.20375,-0.42875 -0.74625,5e-4 -1.345,0.28275 -1.7975,0.84713 -0.45125,0.55812 -0.815,1.4805 -1.09125,2.74912 l -2.81875,13.393"
     id="path42"
     style="fill:#fff200;fill-opacity:1;fill-rule:nonzero;stroke:none" /><path
     d="m 731.85502,186.89987 c 0.56375,-5e-4 1.0625,-0.18837 1.5025,-0.5585 0.44625,-0.376 0.805,-0.90487 1.08125,-1.59237 0.56875,-1.50338 1.02625,-3.10737 1.37125,-4.81638 0.34626,-1.71 0.515,-3.19575 0.515,-4.4585 0,-0.85787 -0.13,-1.46875 -0.38874,-1.82074 -0.25875,-0.35838 -0.6925,-0.53426 -1.29751,-0.53426 -0.56375,5e-4 -1.0575,0.189 -1.48,0.55913 -0.42875,0.376 -0.7875,0.93987 -1.08624,1.69775 -0.18125,0.46975 -0.375,1.05125 -0.56875,1.7505 -0.19376,0.705 -0.405,1.55075 -0.63251,2.54925 -0.2525,1.1455 -0.44625,2.13237 -0.58,2.94925 -0.13,0.82225 -0.19375,1.46825 -0.19375,1.938 0,0.75787 0.15375,1.3335 0.4525,1.73238 0.30625,0.40537 0.74125,0.60499 1.305,0.60449 z m 2.70875,-23.22499 -1.7175,7.93599 c 0.39875,-0.62312 0.89251,-1.08737 1.485,-1.40437 0.5875,-0.312 1.25126,-0.47063 1.98626,-0.47112 1.50874,-5.1e-4 2.63625,0.47462 3.37125,1.43162 0.74125,0.957 1.11125,2.41987 1.1125,4.38137 0,0.54638 -0.035,1.15725 -0.11126,1.8325 -0.0762,0.66988 -0.19375,1.4805 -0.35125,2.43163 -0.22875,1.31588 -0.49875,2.53813 -0.80875,3.65437 -0.305,1.11563 -0.63875,2.07313 -0.99125,2.86613 -0.63375,1.44538 -1.39125,2.50887 -2.29,3.19637 -0.8925,0.6875 -1.94375,1.03463 -3.15875,1.03513 -0.91625,5e-4 -1.68625,-0.23438 -2.315,-0.70363 -0.6225,-0.46975 -1.08749,-1.16212 -1.38125,-2.07862 l -0.46875,2.32612 -4.64625,0.002 5.66876,-26.43363 4.61625,-0.002"
     id="path44"
     style="fill:#fff200;fill-opacity:1;fill-rule:nonzero;stroke:none" /><path
     d="m 746.97378,190.10012 -4.8625,0.002 5.52125,-26.50388 4.91,-0.002 -2.18,10.43262 6.66125,-0.003 2.18,-10.43262 4.88625,-0.002 -5.545,26.50388 -4.91,0.002 2.58,-12.19475 -6.66125,0.003 -2.58,12.19487"
     id="path46"
     style="fill:#fff200;fill-opacity:1;fill-rule:nonzero;stroke:none" /><path
     d="m 127.70252,0.6325 c 2.98626,0.0037 4.78125,2.785 3.95751,5.615 L 89.36541,148.96687 c -0.977,3.08838 1.63137,5.62401 4.53962,5.63175 l -42.52588,-0.11175 c -2.882375,-0.008 -4.754875,-2.68662 -3.90525,-5.56112 L 89.66478,6.205 c 1.604,-5.05375 -2.16112,-5.5625 -4.00875,-5.5625 z m 49.5975,0.0475 c 2.98375,0.0037 4.78375,2.78375 3.95751,5.6125 l -42.295,142.72075 c -1.10875,3.56 2.14125,5.63037 4.92,5.63325 l -42.959,-0.0459 c -2.87988,-0.002 -4.70363,-2.75588 -3.853,-5.63038 l 42.242,-142.719 C 140.46377,1.19875 137.60128,0.6875 135.25378,0.69 z m 49.775,0.03625 c 2.98751,0.0025 4.78375,2.78125 3.95876,5.61375 l -42.29501,142.72075 c -0.84875,2.94387 0.885,5.63725 4.72875,5.64062 l -42.715,-0.0424 c -2.8825,-0.005 -4.75375,-2.76813 -3.905,-5.64113 L 189.09002,6.28625 c 1.35125,-5.04 -1.96375,-5.56125 -4.0625,-5.5625 z m 99.31375,0.21625 c 2.93375,0.0012 4.78125,2.835 3.95626,5.6125 l -42.0875,141.84413 c -0.93,3.60262 1.78375,6.51124 4.52375,6.51812 l -42.71625,-0.12263 c -2.88125,-0.008 -4.75625,-2.68987 -3.905,-5.56287 L 288.40127,6.5025 c 1.40375,-5.04 -2.2625,-5.5625 -4.05874,-5.5625 z m -49.70625,-0.17 c 2.93375,0.0012 4.78251,2.835 3.95625,5.61375 l -42.0875,141.8435 c -0.93,3.603 1.78625,6.51125 4.52375,6.51762 l -42.71625,-0.12262 c -2.88124,-0.008 -4.75499,-2.6895 -3.905,-5.5625 L 238.69628,6.3325 C 240.09753,1.2925 236.43253,0.77 234.63503,0.77 z m 32.46375,44.11125 1.77,-6.04 c 0.38875,0.02875 0.70375,-0.06625 0.945,-0.29875 0.24,-0.22875 0.445,-0.62875 0.61,-1.19125 0.2625,-0.89125 0.24375,-1.55625 -0.06,-1.98375 -0.30375,-0.42875 -1.1275,-0.845 -2.4725,-1.23875 l -0.8325,-0.24375 c 0.34875,0.6625 0.545,1.39 0.5825,2.17 0.0412,0.785 -0.0713,1.63125 -0.3375,2.54125 -0.6075,2.07125 -1.80125,3.52125 -3.5825,4.3525 -1.7825,0.83125 -3.8475,0.90125 -6.19749,0.21125 -2.47625,-0.725 -4.27,-1.9 -5.39,-3.52 -1.12,-1.61875 -1.38626,-3.41875 -0.8075,-5.40375 0.32625,-1.1075 0.8075,-2.01625 1.44,-2.72625 0.63,-0.71 1.44125,-1.24625 2.43624,-1.6075 l -1.98875,-0.58375 1.585,-5.40375 14.15375,4.15 c 2.66875,0.78125 4.37375,1.99375 5.11,3.62625 0.73625,1.63875 0.64876,4.01 -0.25999,7.11 -0.63126,2.15375 -1.53251,3.76125 -2.7,4.81625 -1.16751,1.05875 -2.5025,1.4775 -4.00376,1.26375 z m -7.94125,-7.83125 c 1.23375,0.36125 2.20875,0.4275 2.925,0.19875 0.715,-0.23 1.195,-0.75875 1.43625,-1.5825 0.25625,-0.87625 0.15125,-1.6075 -0.3075,-2.1975 -0.46125,-0.58875 -1.31,-1.06375 -2.5525,-1.42875 -1.1075,-0.32375 -2.03625,-0.35625 -2.7775,-0.08625 -0.74375,0.26625 -1.23125,0.81 -1.4725,1.62875 -0.24,0.82375 -0.1325,1.525 0.32625,2.09875 0.46,0.57375 1.2675,1.03 2.4225,1.36875 z m 0.425,27.36875 -15.33875,-4.49875 1.625,-5.54875 2.24375,0.65875 c -0.68625,-0.97625 -1.11625,-1.96875 -1.2975,-2.975 -0.18,-1.01125 -0.10375,-2.07 0.22125,-3.17875 0.27125,-0.9275 0.67125,-1.71625 1.2,-2.36 0.52125,-0.6425 1.16625,-1.12875 1.92625,-1.455 0.69,-0.3 1.46,-0.43 2.31125,-0.38875 0.85125,0.04 2.17875,0.32375 3.98625,0.855 l 7.975,2.3375 -1.7875,6.0975 -7.9475,-2.33 c -1.16625,-0.34125 -2.015,-0.42375 -2.545,-0.24 -0.53,0.18 -0.90125,0.6525 -1.125,1.4175 -0.22625,0.77 -0.14,1.4175 0.25625,1.9425 0.4,0.52375 1.12,0.94 2.165,1.2475 l 7.9175,2.32 z m -16.31,-1.195 15.34,4.4975 -1.635,5.5775 -2.25875,-0.6625 c 0.69625,0.9775 1.1325,1.97375 1.3125,2.98 0.18,1.00875 0.105,2.06375 -0.22125,3.1775 -0.27125,0.92875 -0.67,1.7175 -1.1975,2.3575 -0.52375,0.64625 -1.16875,1.1325 -1.93,1.45875 -0.675,0.2925 -1.4325,0.415 -2.2725,0.37375 -0.84,-0.0425 -2.18875,-0.33375 -4.0425,-0.87625 l -7.9475,-2.33 1.7875,-6.0975 7.91875,2.32125 c 1.165,0.34125 2.02,0.42625 2.55875,0.24375 0.53875,-0.1775 0.91625,-0.64875 1.14,-1.41375 0.22375,-0.76 0.13125,-1.40375 -0.275,-1.935 -0.40625,-0.53375 -1.13,-0.95625 -2.175,-1.26125 l -7.88875,-2.315 z m 3.26625,24.62875 c 0.515,0.15125 0.92625,0.10875 1.22501,-0.13125 0.3,-0.23625 0.56375,-0.74 0.79,-1.51 0.065,-0.2275 0.11625,-0.40125 0.14625,-0.51875 0.03,-0.12125 0.055,-0.23875 0.0775,-0.3525 l 4.41625,1.295 c -0.1775,0.76375 -0.33875,1.46 -0.49625,2.0825 -0.15625,0.62375 -0.315,1.205 -0.4725,1.73875 -0.56876,1.93625 -1.28751,3.19375 -2.16251,3.77 -0.875,0.575 -2.125,0.6275 -3.7525,0.15 l -7.69,-2.255 -0.63249,2.1575 -3.51626,-1.03125 0.6325,-2.1575 -4.74,-1.38875 1.78,-6.06875 4.73875,1.38875 0.84,-2.86125 3.515,1.0325 -0.83875,2.86125 z m 0.53625,19.22125 -11.88,-3.48375 -0.56124,1.9075 -3.4575,-1.015 0.55875,-1.90625 -0.9575,-0.28125 c -1.71,-0.5 -2.84875,-1.29375 -3.40625,-2.38375 -0.56,-1.09125 -0.57625,-2.5325 -0.0487,-4.33 l 1.00125,-3.41375 3.8375,1.12375 c -0.0225,0.0775 -0.0587,0.18375 -0.10875,0.32 -0.0513,0.14125 -0.0863,0.24125 -0.10625,0.3075 -0.2175,0.7425 -0.24375,1.3 -0.0788,1.6625 0.15875,0.365 0.555,0.6375 1.17125,0.81875 0.0487,0.015 0.1225,0.0312 0.22625,0.0513 0.0987,0.0187 0.1825,0.0362 0.25125,0.0563 l 0.76,-2.59625 3.4575,1.01375 -0.76,2.59625 11.88125,3.48375 -1.78,6.06875 z m -22.67874,11.18625 -3.80751,-1.11625 1.03251,-3.52625 3.81124,1.11625 z m 1.4975,-5.10625 -3.80875,-1.115 1.0325,-3.52625 3.81,1.11625 z m 4.70375,-6.69625 15.33999,4.49875 -1.63625,5.57625 -2.25875,-0.6625 c 0.6975,0.97875 1.1325,1.97375 1.31375,2.97875 0.18125,1.01125 0.10625,2.06625 -0.22125,3.17775 -0.27125,0.93075 -0.67,1.71738 -1.19875,2.358 -0.52375,0.64738 -1.16875,1.13275 -1.9275,1.4595 -0.6775,0.29238 -1.435,0.4165 -2.275,0.3735 -0.84125,-0.0425 -2.18875,-0.333 -4.0425,-0.876 l -7.9475,-2.32962 1.7875,-6.09813 7.91875,2.32125 c 1.16625,0.3425 2.02,0.425 2.56,0.24375 0.53751,-0.1775 0.91625,-0.6475 1.14125,-1.4125 0.22125,-0.76125 0.1275,-1.40625 -0.27499,-1.93625 -0.40875,-0.535 -1.1325,-0.955 -2.1775,-1.26125 l -7.88876,-2.31375 z m 5.195,39.09738 -20.78125,-6.09325 1.95749,-6.67525 15.2625,4.47412 2.66001,-9.07325 5.51875,1.61813 z m -49.65,-0.69875 1.9075,-6.293 -8.52251,-2.23925 2.30251,-6.88175 8.26124,2.37062 1.9075,-6.42725 -21.11125,-5.65925 -2.105,6.3575 7.21126,1.90813 -2.17125,6.88425 -7.4075,-2.104 -1.58125,6.55475 z m 6.73124,-39.93113 -1.64875,5.90125 c 1.05001,0.65625 1.3775,1.77125 0.78625,2.95125 -0.33,1.63875 -2.1675,2.75375 -4.06875,2.16125 l -0.26124,-0.001 3.61625,-11.735 -1.17875,-0.001 c -5.24376,-1.44875 -9.18251,0.97375 -10.89376,6.6125 -0.79,2.62375 -0.72625,5.115 0.78125,7.28125 1.5075,1.24625 3.0775,2.69125 4.84875,3.28263 4.9175,1.12012 9.1825,-1.43263 10.9575,-6.28513 0.98751,-3.60625 0.59625,-6.36 -1.36875,-8.72375 -0.5225,-0.72 -0.9175,-0.8525 -1.57,-1.44375 z m -9.91124,6.5475 c 0.4625,-1.76875 1.905,-2.48875 3.67375,-2.095 l -1.77375,5.70375 c -1.575,-0.39375 -2.295,-2.035 -1.9,-3.60875 z m 15.615,-7.985 1.5825,-5.83375 -15.67,-4.21375 -1.515,5.96625 z m -16.9125,-4.40875 1.64375,-5.9675 -4.3925,-1.11875 -1.97375,6.09625 z m 19.08625,-3.45625 4.54125,-15.67 -4.52375,-1.44875 -2.17376,7.93375 -4.51499,-8.85875 -4.26125,-0.8575 -4.34375,14.22875 4.65625,1.055 1.90875,-6.82125 4.1875,9.12125 z m 6.455,-28.785 2.165,0.46125 1.44875,-5.70375 -15.2775,-4.21375 -2.17,6.16375 8.52125,2.1725 c 1.83875,0.1325 2.49375,1.445 2.36,3.02 -0.52625,0.9825 -1.18125,1.44 -1.9025,1.70125 -0.3275,-0.26125 -0.7225,-0.26125 -1.18125,-0.2625 l -8.78375,-2.1725 -1.90875,6.2275 10.4225,2.50375 c 3.47625,0.7225 6.2975,-0.585 7.41625,-4.19 0.72375,-2.36125 0.20125,-3.935 -1.11,-5.7075 z m 4.33875,-8.1275 1.71,-5.965 -8.13,-2.0425 c -1.705,-0.46125 -2.42625,-1.57625 -1.835,-3.0175 0.33125,-1.64 1.11875,-2.0325 2.42875,-1.6375 l 9.11375,2.36875 1.64625,-6.2925 -10.35875,-2.56875 c -3.1475,-1.05125 -6.23125,0.9775 -7.08625,4.18875 -0.5925,1.57625 -0.3975,3.41125 0.0613,4.6575 -0.002,0.3925 0.26125,0.45875 0.58875,0.8525 l -1.705,-0.39375 -1.7125,6.29375 15.27875,3.55625 z m -4.95125,-32.99 c -1.57375,0.7175 -2.29875,1.83125 -3.15125,3.79875 -1.25125,4.45875 0.97375,7.5425 6.21875,8.795 5.05,1.38125 8.78875,-0.18875 9.9075,-4.715 0.46,-1.7675 0.33125,-3.2775 -0.3225,-4.98375 l 1.18,0.33 c 1.31125,0.5925 2.035,0.725 2.36,1.38125 0.19625,0.65375 0.19625,1.4425 -10e-4,2.0975 -0.32875,1.18125 -1.3125,1.89875 -2.495,1.9 l -1.38401,5.5725 c 3.8725,-0.1925 6.03625,-1.76625 7.28625,-6.7475 0.79125,-2.82 0.79125,-3.9325 0.205,-5.9675 -0.19625,-0.98375 -0.3275,-1.83625 -1.11125,-2.43 -0.65625,-0.72125 -1.77249,-1.11375 -3.08249,-1.77125 l -15.605,-3.5575 -1.57875,5.90125 z m 1.96374,2.88625 c 0.78751,-1.4425 1.90376,-1.83375 4.33001,-1.44 2.425,0.5275 3.4725,1.6425 3.07874,3.61125 -0.65625,1.63875 -2.23249,2.09625 -4.52625,1.63375 -2.36,-0.5925 -3.21249,-1.77375 -2.8825,-3.805 z m -92.8625,115.77288 23.08625,-0.69825 1.77625,-6.35988 -11.21,-5.38912 12.65875,0.73525 1.84125,-6.55713 -19.59625,-11.43 -1.7125,6.6205 12.45501,6.11175 -14.23125,-0.73475 -1.84375,5.63662 12.78375,6.17925 -14.09875,-0.40825 -1.90875,6.294 z m 31.3825,-34.79288 0.525,0.13125 c 0.3925,0.265 0.78625,0.265 1.4425,0.002 l 1.84125,-5.96575 c -1.31125,-0.001 -2.16375,-0.001 -3.08125,-0.001 l -8.65625,-2.305 c -1.0475,-0.33 -2.42375,-0.002 -3.54,0.7825 -1.445,1.1125 -2.625,2.48875 -3.4825,5.89875 -1.31625,4.3275 -0.99125,6.95125 1.36875,8.6575 0.6575,0.33 0.9825,0.395 1.70376,0.72375 l 1.44875,-5.77 c -1.04876,-0.3275 -1.44125,-1.3775 -1.045,-2.755 0.45875,-1.18 1.1175,-2.1625 2.23125,-1.7675 0.72,0 0.98249,0.92 0.71875,2.0325 l -0.46376,4.3275 c -0.39625,3.54125 0.71501,5.31375 3.01125,6.0375 3.40875,0.725 5.8375,-0.84625 6.6925,-4.1275 0.92,-1.56875 0.9225,-3.60375 0.004,-4.65375 0.001,-0.46 -0.19375,-0.7875 -0.71875,-1.2475 z m -3.8675,-0.98625 c 1.63875,0.39375 2.42375,2.035 2.02875,3.5425 -0.395,1.4425 -1.37875,2.0975 -2.495,1.76875 -0.72,-0.2625 -1.30875,-1.05125 -1.11125,-2.03375 l 0.002,-2.295 c 0.13125,-0.001 0.13125,-0.001 0.001,-0.58875 -0.19875,-0.39625 -0.19875,-0.46125 -0.3275,-0.855 l 1.90125,0.46125 z m 2.30125,-7.7375 c 1.05125,0.26375 1.57625,0.265 2.4925,0.004 1.05001,-0.3275 2.165,-0.78375 2.88875,-1.44 1.115,-1.17875 2.1,-2.81875 2.82375,-5.57 1.84125,-4.395 0.14,-7.87125 -3.0725,-8.72625 -2.1625,-0.395 -4.26375,0.3875 -5.38,2.81375 l -2.4975,4.325 c -0.59,0.525 -0.72125,0.72125 -1.4425,0.5225 -0.72125,-0.13 -0.9825,-0.8525 -0.5875,-1.77 0.39375,-1.245 1.05,-1.83625 2.1625,-1.44125 l 1.91,-5.76875 c -3.6725,-0.92 -5.97,1.43625 -7.4175,6.6825 -1.44625,4.65375 -0.335,7.54125 2.61375,8.13375 2.03375,0.79 3.935,-0.39 5.51375,-2.55125 l 2.2975,-3.8025 c 0.59,-0.9825 0.92,-1.245 1.64126,-0.98125 0.71875,0.26375 1.04875,0.985 0.45625,2.0325 -0.33,1.44375 -1.1825,2.23 -2.8225,1.83375 l -1.58,5.70375 z m 5.3975,-17.63625 c 1.11251,0.19875 1.57375,0.2 2.23,0.004 1.37625,-0.325 2.42625,-0.78375 3.08125,-1.24375 0.98626,-0.9825 2.56125,-3.21 3.1525,-5.70125 1.05626,-4.52375 0.01,-7.7375 -3.2675,-8.53 -2.5575,-0.59125 -4.0675,0.39 -5.5775,2.68375 l -2.69374,4.52375 c -0.39376,0.58875 -0.72125,0.71875 -1.24625,0.58875 -0.33001,-0.265 -0.59001,-0.92 -0.32625,-2.035 0.1325,-1.44375 0.855,-2.03125 2.16625,-1.7025 l 1.77625,-5.44125 c -3.935,-0.9875 -6.2325,1.56625 -7.81125,6.8125 -1.44625,4.26 -0.33625,7.41 3.14125,8.265 1.89875,0.5275 3.93375,-0.45375 5.51,-3.2075 l 1.97125,-3.27625 c 0.52625,-0.785 0.8525,-1.44125 1.50875,-1.1125 1.05,0.3275 1.1125,1.11625 0.78499,2.03375 -0.45875,1.245 -1.44624,1.965 -2.82124,1.50375 l -1.57876,5.835 z m 10.98501,-34.09 -1.71001,5.7025 c 0.9825,0.52875 1.11376,1.57625 0.7825,3.15 -0.52625,1.77125 -1.90375,2.49 -3.73875,2.0275 l -0.195,0.002 3.1575,-11.605 -0.78625,-0.33 c -5.63999,-0.8575 -9.77375,1.4325 -11.35374,6.745 -0.91875,2.81875 -0.59375,5.17875 1.04499,7.14875 1.11251,1.83875 2.9475,3.08375 4.78125,3.41375 4.91875,1.3175 9.12,-1.43375 10.63125,-6.48125 1.12,-3.54 0.73,-6.03375 -1.10625,-8.26375 -0.655,-0.78625 -0.78749,-0.85375 -1.50749,-1.51 z m -9.8425,6.22 c 0.32875,-1.31125 1.70625,-2.16125 3.60749,-2.0275 l -1.90625,5.7025 c -1.70625,-0.33 -2.35874,-1.83875 -1.70124,-3.675 z m 14.89375,-7.65875 2.04125,-6.42375 -6.95125,-1.58 c -1.37625,-0.46125 -1.83625,-0.78875 -2.49125,-1.64125 -0.3275,-0.59125 -0.325,-1.84 0.002,-3.14875 0.001,-0.6575 0.001,-1.05 0.66,-1.77 l -5.18,-1.18625 c -0.46125,0.46 -0.725,0.8525 -0.72375,1.44375 -0.52375,0.85125 -0.525,1.76875 -0.135,2.62125 0.13125,0.3275 0.395,0.98375 0.45875,1.44375 0.65625,0.395 0.72125,0.39375 1.05,0.65625 l -2.23125,-0.26375 -1.71,5.7675 15.21,4.08125 z m -78.17625,98.26413 1.91,-6.35888 -6.42375,-1.6455 -1.375,-2.2305 9.97,-3.20363 2.17375,-8.19525 -15.68125,5.49213 -6.0875,-9.84375 -2.0425,7.86912 5.23875,8.13575 -7.015,-2.041 -1.90737,6.36038 z m 6.255,-22.291 1.9075,-5.70313 -21.1775,-5.66125 -2.03875,6.1625 z m 2.69624,-8.45688 1.84375,-6.09625 -15.66999,-3.95125 -1.64501,6.16125 z m -17.04624,-4.41 1.97375,-5.9675 -4.45876,-0.99 -1.84125,5.9025 z m 19.48374,-4.50625 1.9725,-6.1625 -8.65625,-1.97625 c -1.44125,-0.1325 -2.1625,-1.445 -1.7675,-2.56 0.33,-1.115 1.18375,-1.77125 1.77375,-1.63875 l 0.52375,0.19875 9.18,2.5675 1.77626,-6.0975 -8.59001,-2.435 c -1.44249,-0.0675 -2.49,-1.38125 -2.16249,-2.62625 0.33125,-1.3125 1.44624,-1.83375 2.88874,-1.50625 l 9.17876,2.63375 1.7775,-6.35875 -10.29375,-2.765 c -3.54,-0.46375 -6.2975,1.10875 -7.48125,4.7125 -0.5925,1.96875 -0.33125,3.6725 1.175,5.84 -2.09875,0.325 -3.215,1.4375 -3.93875,3.5375 -0.52625,1.835 -0.5275,3.27625 0.25875,4.39375 -0.001,0.32875 0.065,0.85 0.71875,1.37875 l -2.0975,-0.52875 -1.645,5.5075 z m 10.26876,-39.07625 0.525,0.1325 c 0.32749,0.1975 0.72125,0.1975 1.4425,0.001 l 1.77625,-6.03125 c -1.37625,0.26 -2.0975,-0.004 -3.2125,-0.0688 l -8.45876,-2.435 c -1.57374,-0.0675 -2.55875,-0.002 -3.60749,0.915 -1.57375,1.1125 -2.49375,2.685 -3.61251,6.03 -1.38124,4.32625 -1.05625,7.14625 1.43251,8.85375 0.5925,0.0663 0.91749,0.39375 1.70625,0.46125 l 1.44625,-5.6375 c -0.9825,-0.46 -1.30875,-1.57875 -0.9775,-2.88875 0.59,-1.18 1.04875,-2.09625 2.03375,-1.7675 0.7875,0 0.78625,0.985 0.785,2.09875 l -0.66,4.3925 c -0.3325,3.41125 0.91125,5.445 3.6,5.84 2.81999,0.85625 5.57499,-0.38625 6.56125,-4.05875 0.725,-1.5725 0.72749,-3.34375 0.006,-4.655 -0.26375,-0.525 -0.2625,-0.7225 -0.78625,-1.1825 z M 148.73502,66.095 c 1.37875,0.39375 2.295,2.23375 1.77001,3.60875 -0.39626,1.3775 -1.31625,1.90125 -2.42876,1.76875 -0.78749,-0.1975 -1.04875,-0.92 -1.04875,-1.77125 l 0.002,-2.4925 c 0,0 0,0 0,-0.65625 0,-0.4575 0,-0.4575 -0.12875,-0.78625 l 1.83376,0.32875 z m -77.11174,55.8015 c -1.05075,-0.002 -1.57375,-0.002 -2.62263,0.19337 -3.871,0.456 -7.086875,3.601 -8.074625,7.664 -2.105,6.55525 1.102,12.26563 8.05225,13.71738 2.951125,0.98437 6.099125,0.59562 8.594255,-0.84675 3.14737,-1.50388 4.65763,-3.33838 5.38275,-6.29 1.11825,-3.145 0.66063,-4.918 -0.71487,-7.082 l 2.03375,0.13375 1.57612,-4.065 -11.80075,-3.15912 -2.76363,9.24174 4.59025,1.05613 0.78813,-2.81988 c 0.65675,0.4605 1.04937,0.98388 1.312,1.7715 0.065,0.72313 0.0625,1.70613 -0.26413,2.49225 -0.3965,1.31 -1.05425,2.55613 -2.49613,3.144 -0.8535,0.32813 -1.96775,0.32813 -3.935,0.12888 -2.294495,-0.72413 -3.21437,-1.25 -3.670995,-2.16938 -1.244625,-1.18075 -1.637125,-2.29637 -0.979875,-3.6065 0.59175,-2.03412 1.6425,-3.0815 3.21575,-2.88225 z m 16.40525,-10.084 0.19775,0 c 0.45749,0.1325 0.85161,0.13375 1.44236,0.004 l 1.64452,-5.96625 c -1.24501,-0.001 -1.83438,-0.002 -2.94914,-0.33125 l -8.39312,-1.845 c -1.63962,-0.59125 -2.6235,-0.2 -3.73825,0.71875 -1.44337,0.85 -2.43012,2.685 -3.482,5.7675 -1.25137,4.52375 -1.122,7.145 1.36925,8.59 0.65475,0.33 0.98188,0.33 1.44137,0.33125 l 1.77638,-5.18 c -1.11525,-0.52625 -1.50638,-1.64 -1.11238,-2.625 0.46,-1.50625 1.11725,-2.22875 2.10163,-1.965 0.98137,0.0662 1.11275,0.7225 0.98,2.09875 l -0.59375,4.06625 c -0.65975,3.605 0.71625,5.575 3.40425,6.23325 2.88575,0.791 5.7725,-0.6495 6.5625,-3.992 0.3955,-1.96875 0.397,-3.6075 -0.0615,-5.05125 0,-0.39375 -0.39312,-0.45875 -0.58987,-0.85375 z m -3.93212,-1.05375 c 1.37449,0.395 2.35787,1.90625 1.76562,3.61125 -0.3935,1.0475 -1.37937,1.7675 -2.23051,1.37375 -0.98437,0 -1.37688,-0.7225 -1.11225,-1.64125 l 10e-4,-2.295 c 0,0 0,0 5.1e-4,-0.52375 0.002,-0.525 0.002,-0.7875 -0.26075,-1.11625 l 1.83637,0.59125 z m 2.36775,-7.67125 c 1.2465,0.265 1.57412,0.26625 2.22899,0.005 1.2465,-0.065 2.09813,-0.72 2.6235,-1.17875 1.24901,-1.31 2.69288,-3.27625 3.28713,-5.57 1.57713,-4.72125 0.13812,-8.1975 -3.2715,-8.92375 -2.22951,-0.46125 -3.606,0.39125 -5.18413,2.815 l -2.89012,4.195 c -0.32863,0.78625 -0.58988,0.91875 -0.98288,0.78625 -0.46,-0.265 -0.85112,-1.115 -0.4575,-2.03375 0.3295,-1.245 0.72263,-1.83625 2.1655,-1.375 l 1.51463,-5.77 c -3.34425,-0.5275 -5.83938,1.7 -7.74663,6.74625 -1.05262,4.8525 -0.40087,7.41125 3.3375,8.4 1.83388,0.72 3.67325,-0.5875 5.38075,-3.07875 l 2.233,-3.67 c 0.3945,-0.98375 0.65763,-1.245 1.24563,-0.98125 0.8535,0.13125 0.8545,0.98375 0.8525,2.22875 -0.72463,1.57375 -1.44725,2.0325 -2.75538,1.96625 l -1.581,5.43875"
     id="path50"
     style="fill:#fff200;fill-opacity:1;fill-rule:evenodd;stroke:none" /><path
     d="m 333.79377,171.89212 -9.6,41.1045 608.85,-0.231 10e-4,3.11863 -612.805,0.2515 9.60125,-41.10638 L 0.0014,175.12397 0,171.99459 l 333.79349,-0.1025"
     id="path52"
     style="fill:#ffffff;fill-opacity:1;fill-rule:evenodd;stroke:none" /><g
     transform="matrix(1.8623764,0,0,1.8623764,-724.0466,59.65243)"
     id="g3039"><path
       d="m 595.55146,39.002148 10.77816,0.05621 c -0.88883,-0.0033 -1.30778,-0.788356 -1.03396,-1.671287 l 5.25077,-17.767169 7.70876,0.02848 c 13.25421,0.04931 22.90821,-8.448051 22.95191,-20.23290678 0.0148,-3.99471912 -1.90434,-7.08897152 -5.10083,-8.55310792 -1.89592,-0.8824103 -4.70031,-1.1073233 -8.97605,-1.1229593 l -20.59894,-0.07658 c 0.7894,0.0088 1.55995,0.200056 1.18269,1.4076079 L 593.95823,36.834087 c -0.50115,1.714506 0.4382,2.114178 1.59323,2.168061 z m 21.92997,-42.216683 5.56268,0.020848 c 4.05965,0.014834 6.41341,1.8389907 6.40299,4.727974 -0.0236,6.35448 -4.76125,11.057598 -11.16585,11.033944 l -5.56307,-0.02085 4.76325,-15.7619175"
       id="path48"
       style="fill:#ffffff;fill-opacity:1;fill-rule:evenodd;stroke:none" /><path
       d="m 637.87209,39.891716 12.91875,0.0479 6.1775,-20.4375 4.98375,0.0186 c 3.41125,0.0126 4.84875,1.00138 4.5775,3.23038 -0.002,0.78962 -0.07,1.377 -0.46625,2.229 l -2.525,8.44825 c -0.73,2.49225 -1.32625,4.45462 -1.32875,5.24275 -0.002,0.58987 -0.004,0.72162 -0.006,1.311 l 12.395,0.0459 c 0.26375,-0.58837 0.26375,-0.72012 0.26625,-1.3095 0.002,-0.78912 0.14375,-2.7525 0.475,-3.93312 l 2.91875,-9.43363 c 0.20375,-1.17875 0.3375,-2.16012 0.605,-3.539 0.0137,-3.6055 -1.75125,-5.51475 -5.55125,-5.92137 2.49375,-0.7125 4.13875,-1.691 5.71375,-2.92975 4.1425,-2.872129 7.05125,-8.6304993 7.33,-13.61299931 0.0125,-3.21499999 -2.01,-6.37124969 -4.8225,-7.69124969 -1.5075,-0.665 -3.60375,-1.0650005 -6.81875,-1.0762505 l -21.2465,-0.0788 -15.59625,49.3893695 z m 25.79375,-40.8918693 4.06875,0.015 c 3.67125,0.0138 5.50375,1.13749996 5.49375,3.6275 -0.345,4.85125 -4.49375,9.0359993 -9.4775,9.0174993 l -4.0675,-0.0151 3.9825,-12.6448693 z m 40.44125,-11.3250007 10.03375,0.0375 2.1975,-8.78 -9.38,-0.0337 -2.85125,8.77625 z m 19.34625,0.0725 10.165,0.0375 2.52625,-8.77875 -9.7075,-0.0362 -2.98375,8.7775 z m -43.2175,52.30112 13.775,0.0517 4.75625,-9.55512 12.78625,0.0474 -0.88625,9.56938 13.18125,0.0487 0.90375,-49.4432495 -14.49375,-0.0537 -30.0225,49.3348695 z m 34.4475,-39.41361935 -2.0475,21.17336935 -9.3775,-0.0346 11.425,-21.13874935 z m 62.805,5.74125005 c 0.73,-3.015 1.13,-3.80125 1.13625,-5.83250005 0.0838,-4.98499995 -1.60875,-7.68124965 -6.13125,-9.40249965 -2.22375,-0.9262505 -4.84875,-1.0662505 -7.3375,-1.0750005 -10.69125,-0.04 -18.315,4.1275002 -22.41375,12.8350002 -3.10375,5.9565 -5.42875,13.9487493 -7.82375,23.6464993 -0.39875,1.3095 -0.6025,3.0805 -0.805,4.5205 -0.0263,6.82275 3.5675,10.311 11.70125,10.34075 5.705,0.0215 9.25,-1.40913 13.7925,-5.458 l -0.6075,4.39012 8.19875,0.0308 7.9,-26.13575 -18.0375,-0.0669 -2.32125,7.79537 5.9675,0.0225 c -1.9325,8.1235 -4.83,11.458 -9.485,11.441 -2.82125,-0.0104 -3.93,-1.45712 -3.78875,-4.08012 0.007,-2.2295 1.67,-8.5205 3.1325,-13.16988 l 3.11375,-9.1693693 c 1.52375,-4.52 2.51625,-6.54750005 4.815,-7.98500001 0.99,-0.91249999 2.3025,-1.16999999 3.74375,-1.16499999 2.6225,0.01 3.66875,1.19249999 3.53125,3.55125 -0.004,1.2475 -0.3375,2.49375 -0.67375,4.92 l 12.3925,0.0463 z m 0.265,34.0347493 32.33375,0.11962 2.98375,-9.1695 -19.805,-0.0733 4.11125,-11.59075 17.50875,0.0649 2.985,-9.172379 -17.9025,-0.0664 3.12,-10.28325035 18.4925,0.0687 2.985,-9.17124965 -31.3475,-0.11625 -15.465,49.389749 z m 41.9725,0.15575 12.59125,0.0469 6.56875,-20.436 4.525,0.0165 c 3.34625,0.0128 4.65375,1.0005 4.645,3.231 -0.004,0.7895 -0.2025,1.3765 -0.33625,2.229 l -2.915,8.44725 c -0.405,2.49363 -0.7375,4.45663 -0.9425,5.24413 -10e-4,0.58937 -0.003,0.72125 -0.005,1.31062 l 12.66,0.0474 c 0.002,-0.58988 0.002,-0.72175 0.005,-1.31113 0.002,-0.7885 0.3375,-2.75137 0.67,-3.93262 l 2.6575,-9.434 c 0.3975,-1.17775 0.7975,-2.15825 0.8025,-3.53813 0.21125,-3.605 -1.95,-5.51562 -5.8825,-5.92287 2.62625,-0.71188 4.33375,-1.69038 6.1125,-2.92825 3.54875,-2.873999 6.84875,-8.6302493 7.1325,-13.61399935 0.0113,-3.21499995 -2.01,-6.37124965 -4.495,-7.68999965 -1.835,-0.665 -4.00125,-1.065 -7.14625,-1.07625 l -21.1825,-0.08 -15.465,49.390499 z m 25.20625,-40.89424931 4.39125,0.0163 c 3.74,0.0137 5.505,1.13749996 5.49625,3.62750001 -0.215,4.8515 -4.29625,9.0366193 -9.605,9.0171193 l -3.9375,-0.0142 3.655,-12.64662931 z"
       id="path48-5"
       style="fill:#ffffff;fill-opacity:1;fill-rule:evenodd;stroke:none" /></g></svg>