<?xml version="1.0" encoding="UTF-8" standalone="no"?>
<!-- Created with Inkscape (http://www.inkscape.org/) -->

<svg
   xmlns:dc="http://purl.org/dc/elements/1.1/"
   xmlns:cc="http://creativecommons.org/ns#"
   xmlns:rdf="http://www.w3.org/1999/02/22-rdf-syntax-ns#"
   xmlns:svg="http://www.w3.org/2000/svg"
   xmlns="http://www.w3.org/2000/svg"
   xmlns:sodipodi="http://sodipodi.sourceforge.net/DTD/sodipodi-0.dtd"
   xmlns:inkscape="http://www.inkscape.org/namespaces/inkscape"
   id="svg2"
   version="1.1"
   inkscape:version="0.48.4 r9939"
   width="570.0282"
   height="94.927063"
   xml:space="preserve"
   sodipodi:docname="Logo_phone.svg"><metadata
     id="metadata8"><rdf:RDF><cc:Work
         rdf:about=""><dc:format>image/svg+xml</dc:format><dc:type
           rdf:resource="http://purl.org/dc/dcmitype/StillImage" /><dc:title></dc:title></cc:Work></rdf:RDF></metadata><defs
     id="defs6" /><sodipodi:namedview
     pagecolor="#888888"
     bordercolor="#666666"
     borderopacity="1"
     objecttolerance="10"
     gridtolerance="10"
     guidetolerance="10"
     inkscape:pageopacity="1"
     inkscape:pageshadow="2"
     inkscape:window-width="1920"
     inkscape:window-height="1031"
     id="namedview4"
     showgrid="false"
     inkscape:zoom="0.97971014"
     inkscape:cx="692.60888"
     inkscape:cy="9.5332206"
     inkscape:window-x="0"
     inkscape:window-y="25"
     inkscape:window-maximized="1"
     inkscape:current-layer="g10"
     fit-margin-top="0"
     fit-margin-left="0"
     fit-margin-right="0"
     fit-margin-bottom="0" /><g
     id="g10"
     inkscape:groupmode="layer"
     inkscape:label="ink_ext_XXXXXX"
     transform="matrix(1.25,0,0,-1.25,-198.0665,186.01164)"><path
       inkscape:connector-curvature="0"
       id="path16"
       style="fill:#fff200;fill-opacity:1;fill-rule:evenodd;stroke:none"
       d="m 283.8175,135.4881 c 1.19133,-5.1e-4 1.94207,-1.15123 1.60654,-2.27961 L 268.33378,75.609193 c -0.37765,-1.463146 0.72435,-2.64407 1.83699,-2.646861 l -17.34609,0.04994 c -1.17051,0.0032 -1.9314,1.092144 -1.58623,2.258651 l 17.15319,57.955317 c 0.57003,2.04663 -0.91874,2.25882 -1.64816,2.25829 z"
       sodipodi:nodetypes="ccccccccc" /><path
       inkscape:connector-curvature="0"
       id="path48"
       style="fill:#ffffff;fill-opacity:1;fill-rule:evenodd;stroke:none"
       d="m 284.26661,73.861872 13.49023,-0.07036 c -1.11247,0.0041 -1.63683,0.98673 -1.29413,2.091833 l 6.57203,22.237887 9.64849,-0.03562 c 16.58934,-0.06172 28.67256,10.573818 28.72725,25.324068 0.0186,4.99988 -2.38354,8.87274 -6.38432,10.7053 -2.37301,1.10444 -5.88304,1.38595 -11.23469,1.40551 l -25.78222,0.0959 c 0.98804,-0.0107 1.95249,-0.25039 1.4803,-1.7618 L 282.27247,76.575478 c -0.62725,-2.145925 0.54846,-2.646165 1.99414,-2.713606 z m 27.44816,52.839588 6.96242,-0.0261 c 5.08115,-0.0186 8.02719,-2.30173 8.01416,-5.91766 -0.0296,-7.95345 -5.95931,-13.84001 -13.97549,-13.8104 l -6.9629,0.0261 5.96181,19.72806"
       sodipodi:nodetypes="cccccscccccccccccc" /><path
       inkscape:connector-curvature="0"
       id="path50"
       style="fill:#fff200;fill-opacity:1;fill-rule:evenodd;stroke:none"
       d="m 191.11583,135.64574 c 1.21265,-0.002 1.94156,-1.13092 1.60705,-2.28012 L 175.548,75.410554 c -0.39673,-1.254118 0.66247,-2.283777 1.84344,-2.286924 l -17.26878,0.04538 c -1.17047,0.0032 -1.93085,1.090976 -1.58584,2.258246 l 17.13275,57.955624 c 0.65135,2.05221 -0.87758,2.2588 -1.62785,2.2588 z m 18.5161,-0.0193 c 1.21163,-0.002 1.94258,-1.13041 1.60706,-2.27911 L 194.06395,75.391723 c -0.45024,-1.445634 0.86951,-2.286366 1.9979,-2.287534 l -17.44467,0.01863 c -1.16945,8.12e-4 -1.91003,1.119097 -1.56461,2.286366 l 17.15351,57.954905 c 0.46749,2.05171 -0.6949,2.25932 -1.64817,2.2583 z m 18.58818,-0.0147 c 1.21316,-9.7e-4 1.94258,-1.12941 1.60756,-2.27962 L 212.65264,75.376495 c -0.34466,-1.19544 0.35938,-2.289158 1.92024,-2.290529 l -17.34559,0.01721 c -1.17052,0.0018 -1.93039,1.124072 -1.58573,2.290731 l 17.15372,57.955973 c 0.5487,2.04663 -0.79744,2.2583 -1.64969,2.25881 z m 37.08043,-0.0878 c 1.19132,-5.1e-4 1.94154,-1.15123 1.60654,-2.27911 L 249.81631,75.645165 c -0.37766,-1.462943 0.72433,-2.644069 1.83699,-2.646861 l -17.34609,0.0498 c -1.17001,0.0034 -1.9314,1.092296 -1.58573,2.258955 l 17.1532,57.955011 c 0.57003,2.04663 -0.91875,2.25881 -1.64816,2.25881 z m -18.56027,0.0691 c 1.19133,-5.1e-4 1.94207,-1.15123 1.60654,-2.27962 L 231.25605,75.713945 c -0.37765,-1.463096 0.72535,-2.64407 1.83699,-2.646659 l -17.34609,0.0498 c -1.17001,0.0031 -1.9309,1.092144 -1.58573,2.258803 l 17.15371,57.955211 c 0.56901,2.04664 -0.91926,2.25881 -1.64918,2.25881 z"
       sodipodi:nodetypes="cccccccccccccccccccccccccccccccsccccccccccccc" /><path
       inkscape:connector-curvature="0"
       id="path48-2"
       style="fill:#ffffff;fill-opacity:1;fill-rule:evenodd;stroke:none"
       d="m 334.88407,74.711081 15.6945,-0.05817 7.50483,24.828766 6.05457,-0.0226 c 4.1442,-0.0153 5.89057,-1.216539 5.56104,-3.924468 -0.003,-0.95928 -0.0851,-1.672866 -0.56644,-2.70793 L 366.06505,82.56321 c -0.88685,-3.027737 -1.61121,-5.411754 -1.61426,-6.369218 -0.003,-0.716617 -0.005,-0.876675 -0.008,-1.592685 l 15.05824,-0.05573 c 0.32041,0.71478 0.32041,0.874838 0.32345,1.590862 0.003,0.958664 0.17463,3.343911 0.57705,4.778194 l 3.54589,11.460573 c 0.24754,1.43202 0.41002,2.624251 0.735,4.2994 0.0168,4.380194 -2.12754,6.699674 -6.74401,7.193654 3.02955,0.86559 5.028,2.05434 6.94141,3.55925 5.03258,3.48924 8.56631,10.48489 8.90496,16.53794 0.0152,3.90578 -2.44189,7.74019 -5.85868,9.34381 -1.83141,0.80788 -4.37807,1.29383 -8.28385,1.3075 l -25.81129,0.0957 -18.94731,-60.001318 z m 31.33588,49.678019 4.94296,-0.0181 c 4.46008,-0.0168 6.68631,-1.38191 6.67417,-4.40691 -0.41913,-5.89361 -5.4593,-10.97751 -11.51388,-10.95503 l -4.94145,0.0183 4.8382,15.36179 z m 49.13055,13.75832 12.18964,-0.0456 2.66966,10.66649 -11.39542,0.041 z m 23.50305,-0.0881 12.34908,-0.0456 3.06905,10.66498 -11.79328,0.044 z m -52.50333,-63.538699 16.73473,-0.06288 5.77818,11.608163 15.53355,-0.05759 -1.07666,-11.625491 16.0134,-0.05922 1.09794,60.066787 -17.60792,0.0652 -36.47322,-59.935113 z m 41.84899,47.882149 -2.48744,-25.722741 -11.39237,0.04204 13.87981,25.680671 z m 76.29947,-6.97483 c 0.88685,3.66281 1.3728,4.61799 1.38039,7.08569 0.10167,6.05609 -1.95441,9.33167 -7.44863,11.42275 -2.70156,1.12526 -5.89057,1.29535 -8.91406,1.30598 -12.9884,0.0486 -22.25022,-5.01435 -27.22964,-15.59277 -3.77062,-7.23633 -6.59518,-16.94582 -9.50479,-28.727259 -0.48443,-1.590864 -0.73195,-3.742386 -0.97795,-5.491788 -0.0319,-8.288703 4.33402,-12.52645 14.2154,-12.562591 6.93081,-0.02613 11.2375,1.711895 16.75601,6.630722 l -0.73803,-5.3334 9.96036,-0.03736 9.59741,31.751356 -21.91308,0.0813 -2.82,-9.470312 7.24968,-0.02733 c -2.34772,-9.868939 -5.86778,-13.9199 -11.52298,-13.899248 -3.42743,0.01265 -4.77441,1.770201 -4.6028,4.956788 0.009,2.708536 2.02882,10.35124 3.80555,15.999602 l 3.78279,11.13953 c 1.85114,5.49118 3.0569,7.95431 5.84957,9.70068 1.2027,1.10855 2.79722,1.42138 4.54813,1.41531 3.18599,-0.0122 4.45703,-1.44872 4.29,-4.31428 -0.005,-1.51555 -0.41003,-3.02957 -0.81852,-5.97713 l 15.05519,-0.0563 z m 0.32194,-41.347554 39.28107,-0.145324 3.62485,11.139682 -24.06036,0.08905 4.99461,14.081174 21.27073,-0.07885 3.62636,11.143182 -21.74909,0.0807 3.79038,12.49275 22.46586,-0.0835 3.62636,11.14182 -38.08292,0.1413 -18.78785,-60.001792 z m 50.99084,-0.189216 15.29665,-0.05695 7.98012,24.826938 5.49727,-0.02004 c 4.06523,-0.01555 5.65366,-1.21547 5.64302,-3.925223 -0.005,-0.959133 -0.246,-1.672259 -0.40848,-2.707929 l -3.54133,-10.262247 c -0.49203,-3.029429 -0.89596,-5.414205 -1.14501,-6.370909 -10e-4,-0.715995 -0.003,-0.876221 -0.006,-1.592216 l 15.38018,-0.05756 c 0.003,0.716617 0.003,0.876826 0.006,1.592836 0.003,0.95792 0.41003,3.342545 0.81396,4.777602 l 3.2285,11.461013 c 0.48292,1.430805 0.96886,2.621978 0.97494,4.298344 0.25664,4.379581 -2.36899,6.700721 -7.14645,7.195481 3.19055,0.86483 5.26492,2.05358 7.42586,3.55742 4.31125,3.49152 8.32029,10.48457 8.66501,16.53915 0.0137,3.90578 -2.44188,7.74019 -5.46081,9.34229 -2.22928,0.80789 -4.86097,1.29384 -8.68171,1.3075 l -25.73384,0.0972 z m 30.62213,49.68091 5.33478,-0.0197 c 4.54359,-0.0168 6.68782,-1.38191 6.67718,-4.40691 -0.26118,-5.89391 -5.21934,-10.97826 -11.66875,-10.95457 l -4.78353,0.0173 4.44032,15.36392 z"
       sodipodi:nodetypes="cccccccccccccccccccccccccsccccccccccccccccccccccccccccccccccccccccccccccccccccccccccccccccccccccccccccccccccccccccccccccc" /></g></svg>