<?xml version="1.0" encoding="UTF-8" standalone="no"?>
<!-- Created with Inkscape (http://www.inkscape.org/) -->
<svg xmlns:rdf="http://www.w3.org/1999/02/22-rdf-syntax-ns#" xmlns="http://www.w3.org/2000/svg" xml:space="preserve" version="1.1" xmlns:cc="http://creativecommons.org/ns#" xmlns:dc="http://purl.org/dc/elements/1.1/" viewBox="0 0 570.03 94.927"><metadata><rdf:RDF><cc:Work rdf:about=""><dc:format>image/svg+xml</dc:format><dc:type rdf:resource="http://purl.org/dc/dcmitype/StillImage"/><dc:title/></cc:Work></rdf:RDF></metadata><g transform="matrix(1.25,0,0,-1.25,-198.0665,186.01164)" fill-rule="evenodd"><path d="m283.82,135.49c1.1913-0.00051,1.9421-1.1512,1.6065-2.2796l-17.1-57.601c-0.37765-1.4631,0.72435-2.6441,1.837-2.6469l-17.346,0.04994c-1.1705,0.0032-1.9314,1.0921-1.5862,2.2587l17.153,57.955c0.57003,2.0466-0.91874,2.2588-1.6482,2.2583z" fill="#fff200"/><path d="m284.27,73.862,13.49-0.07036c-1.1125,0.0041-1.6368,0.98673-1.2941,2.0918l6.572,22.238,9.6485-0.03562c16.589-0.06172,28.673,10.574,28.727,25.324,0.0186,4.9999-2.3835,8.8727-6.3843,10.705-2.373,1.1044-5.883,1.386-11.235,1.4055l-25.782,0.0959c0.98804-0.0107,1.9525-0.25039,1.4803-1.7618l-17.23-57.295c-0.62725-2.1459,0.54846-2.6462,1.9941-2.7136zm27.448,52.84,6.9624-0.0261c5.0812-0.0186,8.0272-2.3017,8.0142-5.9177-0.0296-7.9534-5.9593-13.84-13.975-13.81l-6.9629,0.0261,5.9618,19.728" fill="#FFF"/><path d="m191.12,135.65c1.2126-0.002,1.9416-1.1309,1.607-2.2801l-17.18-57.959c-0.39673-1.2541,0.66247-2.2838,1.8434-2.2869l-17.269,0.04538c-1.1705,0.0032-1.9308,1.091-1.5858,2.2582l17.133,57.956c0.65135,2.0522-0.87758,2.2588-1.6278,2.2588zm18.516-0.0193c1.2116-0.002,1.9426-1.1304,1.6071-2.2791l-17.19-57.958c-0.45024-1.4456,0.86951-2.2864,1.9979-2.2875l-17.445,0.01863c-1.1694,0.000812-1.91,1.1191-1.5646,2.2864l17.154,57.955c0.46749,2.0517-0.6949,2.2593-1.6482,2.2583zm18.588-0.0147c1.2132-0.00097,1.9426-1.1294,1.6076-2.2796l-17.19-57.964c-0.34466-1.1954,0.35938-2.2892,1.9202-2.2905l-17.346,0.01721c-1.1705,0.0018-1.9304,1.1241-1.5857,2.2907l17.154,57.956c0.5487,2.0466-0.79744,2.2583-1.6497,2.2588zm37.08-0.0878c1.1913-0.00051,1.9415-1.1512,1.6065-2.2791l-17.1-57.605c-0.37766-1.4629,0.72433-2.6441,1.837-2.6469l-17.346,0.0498c-1.17,0.0034-1.9314,1.0923-1.5857,2.259l17.153,57.955c0.57003,2.0466-0.91875,2.2588-1.6482,2.2588zm-18.56,0.0691c1.1913-0.00051,1.9421-1.1512,1.6065-2.2796l-17.1-57.606c-0.37765-1.4631,0.72535-2.6441,1.837-2.6467l-17.346,0.0498c-1.17,0.0031-1.9309,1.0921-1.5857,2.2588l17.154,57.955c0.56901,2.0466-0.91926,2.2588-1.6492,2.2588z" fill="#fff200"/><path d="m334.88,74.711,15.694-0.05817,7.5048,24.829,6.0546-0.0226c4.1442-0.0153,5.8906-1.2165,5.561-3.9245-0.003-0.95928-0.0851-1.6729-0.56644-2.7079l-3.04-10.263c-0.88685-3.0277-1.6112-5.4118-1.6143-6.3692-0.003-0.71662-0.005-0.87668-0.008-1.5927l15.058-0.05573c0.32041,0.71478,0.32041,0.87484,0.32345,1.5909,0.003,0.95866,0.17463,3.3439,0.57705,4.7782l3.5459,11.461c0.24754,1.432,0.41002,2.6243,0.735,4.2994,0.0168,4.3802-2.1275,6.6997-6.744,7.1937,3.0296,0.86559,5.028,2.0543,6.9414,3.5592,5.0326,3.4892,8.5663,10.485,8.905,16.538,0.0152,3.9058-2.4419,7.7402-5.8587,9.3438-1.8314,0.80788-4.3781,1.2938-8.2838,1.3075l-25.811,0.0957-18.947-60.001zm31.336,49.678,4.943-0.0181c4.4601-0.0168,6.6863-1.3819,6.6742-4.4069-0.41913-5.8936-5.4593-10.978-11.514-10.955l-4.9414,0.0183,4.8382,15.362zm49.131,13.758,12.19-0.0456,2.6697,10.666-11.395,0.041zm23.503-0.0881,12.349-0.0456,3.069,10.665-11.793,0.044zm-52.503-63.539,16.735-0.06288,5.7782,11.608,15.534-0.05759-1.0767-11.625,16.013-0.05922,1.0979,60.067-17.608,0.0652-36.473-59.935zm41.849,47.882-2.4874-25.723-11.392,0.04204,13.88,25.681zm76.299-6.9748c0.88685,3.6628,1.3728,4.618,1.3804,7.0857,0.10167,6.0561-1.9544,9.3317-7.4486,11.423-2.7016,1.1253-5.8906,1.2954-8.9141,1.306-12.988,0.0486-22.25-5.0144-27.23-15.593-3.7706-7.2363-6.5952-16.946-9.5048-28.727-0.48443-1.5909-0.73195-3.7424-0.97795-5.4918-0.0319-8.2887,4.334-12.526,14.215-12.563,6.9308-0.02613,11.238,1.7119,16.756,6.6307l-0.73803-5.3334,9.9604-0.03736,9.5974,31.751-21.913,0.0813-2.82-9.4703,7.2497-0.02733c-2.3477-9.8689-5.8678-13.92-11.523-13.899-3.4274,0.01265-4.7744,1.7702-4.6028,4.9568,0.009,2.7085,2.0288,10.351,3.8056,16l3.7828,11.14c1.8511,5.4912,3.0569,7.9543,5.8496,9.7007,1.2027,1.1086,2.7972,1.4214,4.5481,1.4153,3.186-0.0122,4.457-1.4487,4.29-4.3143-0.005-1.5156-0.41003-3.0296-0.81852-5.9771l15.055-0.0563zm0.32194-41.348,39.281-0.14532,3.6248,11.14-24.06,0.08905,4.9946,14.081,21.271-0.07885,3.6264,11.143-21.749,0.0807,3.7904,12.493,22.466-0.0835,3.6264,11.142-38.083,0.1413-18.788-60.002zm50.991-0.18922,15.297-0.05695,7.9801,24.827,5.4973-0.02004c4.0652-0.01555,5.6537-1.2155,5.643-3.9252-0.005-0.95913-0.246-1.6723-0.40848-2.7079l-3.5413-10.262c-0.49203-3.0294-0.89596-5.4142-1.145-6.3709-0.001-0.716-0.003-0.87622-0.006-1.5922l15.38-0.05756c0.003,0.71662,0.003,0.87683,0.006,1.5928,0.003,0.95792,0.41003,3.3425,0.81396,4.7776l3.2285,11.461c0.48292,1.4308,0.96886,2.622,0.97494,4.2983,0.25664,4.3796-2.369,6.7007-7.1464,7.1955,3.1906,0.86483,5.2649,2.0536,7.4259,3.5574,4.3112,3.4915,8.3203,10.485,8.665,16.539,0.0137,3.9058-2.4419,7.7402-5.4608,9.3423-2.2293,0.80789-4.861,1.2938-8.6817,1.3075l-25.734,0.0972zm30.622,49.681,5.3348-0.0197c4.5436-0.0168,6.6878-1.3819,6.6772-4.4069-0.26118-5.8939-5.2193-10.978-11.669-10.955l-4.7835,0.0173,4.4403,15.364z" fill="#FFF"/></g></svg>
