<?xml version="1.0" encoding="UTF-8" standalone="no"?>
<!-- Created with Inkscape (http://www.inkscape.org/) -->
<svg xmlns:rdf="http://www.w3.org/1999/02/22-rdf-syntax-ns#" xmlns="http://www.w3.org/2000/svg" xml:space="preserve" version="1.1" xmlns:cc="http://creativecommons.org/ns#" xmlns:dc="http://purl.org/dc/elements/1.1/" viewBox="0 0 1364.4 96.807"><metadata><rdf:RDF><cc:Work rdf:about=""><dc:format>image/svg+xml</dc:format><dc:type rdf:resource="http://purl.org/dc/dcmitype/StillImage"/><dc:title/></cc:Work></rdf:RDF></metadata><g transform="matrix(1.25,0,0,-1.25,-198.0665,186.01164)"><path fill="#fff200" d="m283.82,135.49c1.1913-0.00051,1.9421-1.1512,1.6065-2.2796l-17.1-57.601c-0.37765-1.4631,0.72435-2.6441,1.837-2.6469l-17.346,0.04994c-1.1705,0.0032-1.9314,1.0921-1.5862,2.2587l17.153,57.955c0.57003,2.0466-0.91874,2.2588-1.6482,2.2583z" fill-rule="evenodd"/><path fill="#FFF" d="m639.63,72.821-11.208-0.0043,12.726,61.091,11.317,0.005-5.0248-24.047,15.351,0.006,5.0277,24.047,11.263,0.004-12.781-61.091-11.317-0.0043,5.944,28.109-15.351-0.007-5.9468-28.109" fill-rule="nonzero"/><path fill="#FFF" d="m700.85,94.862c-0.78657-0.35209-1.9074-0.83959-3.371-1.4766-6.5634-2.7786-9.8394-5.8399-9.8365-9.1704,0-1.7186,0.39185-3.0319,1.164-3.9257,0.78657-0.90586,1.9102-1.3539,3.3595-1.3527,2.2733,0.0011,4.0193,1.0038,5.2236,2.995,1.2044,2.0045,2.354,6.3093,3.4604,12.93zm-2.81-18.453c-1.285-1.6939-2.6911-2.9388-4.221-3.739-1.5155-0.80012-3.25-1.2064-5.1977-1.2075-3.6822-0.0024-6.5144,1.0669-8.5313,3.1907-2.0053,2.1249-3.008,5.1433-3.0109,9.0565,0,4.2374,1.0949,7.5949,3.2875,10.101,2.1782,2.4917,5.6443,4.3071,10.367,5.4472,0.31117,0.0801,0.77217,0.19015,1.383,0.32528,7.5114,1.8031,11.274,4.5673,11.271,8.3037,0,1.3677-0.40625,2.4369-1.2332,3.2077-0.81251,0.77216-1.9765,1.1502-3.492,1.1502-1.9102-0.00086-3.3854-0.54225-4.4256-1.6273-1.043-1.0828-1.7864-2.844-2.233-5.2807l-10.223-0.004c0.68861,4.888,2.449,8.5313,5.2755,10.941,2.8294,2.3983,6.7824,3.605,11.859,3.607,4.7252,0.002,8.4074-0.97126,11.021-2.9048,2.6133-1.9491,3.93-4.6561,3.93-8.1484,0-0.50189-0.0404-1.1378-0.13541-1.91-0.0921-0.78427-0.22762-1.651-0.41777-2.5986l-5.2669-25.293c-0.13829-0.66297-0.25643-1.5296-0.38032-2.6136-0.11812-1.0836-0.2132-2.2744-0.29676-3.5609l-9.799-0.0035,0.46965,3.5612" fill-rule="nonzero"/><path fill="#FFF" d="m745.61,118.36,10.56,0.004-9.6579-45.493-9.8422-0.0043,0.98537,3.8862c-1.8123-1.7737-3.639-3.0884-5.4801-3.9683-1.8411-0.86782-3.7225-1.3023-5.6443-1.3035-2.8582-0.0011-5.0652,0.74278-6.6066,2.2174-1.5443,1.4755-2.3194,3.6004-2.3194,6.3756,0,0.58201,0.0547,1.3,0.17288,2.1531,0.12389,0.86667,0.32558,2.0169,0.62234,3.4788l6.9841,32.645,10.548,0.004-6.7277-31.778c-0.16422-0.74393-0.27083-1.4081-0.35151-1.9901-0.0806-0.56818-0.12102-1.1096-0.12102-1.5835,0-1.2458,0.31118-2.1799,0.93641-2.8294,0.62235-0.64943,1.5299-0.97472,2.7199-0.97357,1.6942,0.0011,3.0598,0.65173,4.1028,1.9641,1.0401,1.3144,1.893,3.4405,2.5556,6.4061l6.5634,30.788" fill-rule="nonzero"/><path fill="#FFF" d="m757.12,89.039,9.0701-0.03602c-0.026-0.42008-0.0374-0.86667-0.0519-1.3271-0.0145-0.46042-0.026-1.0557-0.026-1.8008,0-2.2465,0.42066-3.8715,1.2735-4.888,0.84132-1.0139,2.1811-1.5282,4.0107-1.5273,1.7172,0,3.0022,0.43564,3.8436,1.2888,0.84996,0.86667,1.2706,2.1655,1.2706,3.9133,0,2.1655-1.8584,4.6146-5.555,7.3618l-0.4754,0.36563c-3.5468,2.5571-5.918,4.8577-7.1224,6.8746-1.2072,2.0157-1.8036,4.4388-1.8036,7.2414-0.003,4.3048,1.3081,7.624,3.9213,9.9391,2.6133,2.3174,6.3733,3.4698,11.26,3.471,4.4688,0.002,7.883-1.0661,10.225-3.2045,2.3424-2.1382,3.5093-5.2378,3.5093-9.3133,0-0.0945-0.0115-0.55377-0.0404-1.3663-0.0259-0.79896-0.0374-1.5305-0.0374-2.1935l-9.1796-0.003v1.3124c-0.003,2.8023-0.38032,4.6975-1.1266,5.7129-0.75776,1.0015-2.1119,1.5014-4.0625,1.5014-1.3801-0.001-2.4635-0.42095-3.276-1.2482-0.79809-0.83959-1.2044-1.9765-1.2044-3.4384,0.003-2.3286,1.602-4.5762,4.7972-6.7403,0.85285-0.55377,1.4896-1.0006,1.9506-1.3124,2.936-2.1102,5.0652-4.2216,6.379-6.3197,1.3282-2.1125,1.9909-4.4129,1.9909-6.917,0.003-4.6843-1.3628-8.3276-4.0827-10.914-2.7199-2.5876-6.5519-3.8885-11.49-3.8908-4.78-0.0011-8.37,1.0805-10.738,3.2581-2.3856,2.1779-3.5785,5.4542-3.5785,9.7996-0.003,0.718,0.026,1.4351,0.0951,2.1667,0.0663,0.718,0.14694,1.4619,0.25355,2.2341" fill-rule="nonzero"/><path fill="#FFF" d="m814.91,131.47-2.8524-13.079,4.7252,0.001-1.4579-6.9037-4.7252-0.003-5.7423-27.214c-0.026-0.13628-0.0547-0.28466-0.0806-0.44688-0.0519-0.41979-0.0806-0.70446-0.0806-0.86667,0-0.85313,0.27082-1.4484,0.80097-1.8008,0.52727-0.36563,1.4464-0.54023,2.7746-0.53908h1.0689l-1.7431-7.7185c-0.97386-0.16192-1.9074-0.28466-2.7746-0.36678-0.86437-0.08126-1.7316-0.12159-2.5729-0.12274-2.7746-0.0011-4.9154,0.59411-6.4165,1.7985-1.504,1.2032-2.2646,2.9365-2.2646,5.1704,0,0.71829,0.0547,1.5443,0.17575,2.4637,0.12102,0.92084,0.31118,1.9506,0.58201,3.0872l5.6443,26.551-3.9646-0.00087,1.432,6.9046,3.9934,0.002,2.7285,13.078,10.75,0.005" fill-rule="nonzero"/><path fill="#FFF" d="m840.39,101.67c0.27082,1.2458,0.45812,2.3701,0.582,3.3719,0.12101,1.0151,0.17576,1.8546,0.17576,2.5447-0.003,1.5576-0.38032,2.7202-1.1525,3.4923-0.76064,0.77217-1.8987,1.1502-3.4142,1.149-2.0313-0.001-3.6015-0.78659-4.7223-2.3444-1.1237-1.5564-2.0313-4.306-2.7199-8.2193l11.251,0.005zm-2.5672-13.648,9.9114,0.0035c-0.44371-5.5498-2.0543-9.7071-4.8145-12.483-2.7602-2.7778-6.6729-4.1743-11.75-4.1766-4.996-0.0024-8.7042,1.1064-11.145,3.3258-2.4231,2.2194-3.6419,5.6037-3.6448,10.152,0,0.97587,0.0547,2.099,0.16135,3.3719,0.10661,1.2594,0.24202,2.5853,0.43219,3.9663,0.49845,3.7243,1.0776,7.0679,1.7402,10.032,0.66269,2.9533,1.3369,5.2818,2.0543,6.9746,1.6106,3.8041,3.6937,6.5404,6.2407,8.1936,2.5556,1.6521,5.967,2.4793,10.246,2.4816,4.8347,0.002,8.3815-1.0119,10.614-3.0556,2.2358-2.0281,3.348-5.2369,3.348-9.6241,0.003-1.651-0.14693-3.5474-0.45523-5.6994-0.29676-2.1531-0.74335-4.4682-1.3254-6.9599l-21.606-0.0101c-0.4466-2.1926-0.78369-4.1294-1.0257-5.8077-0.23051-1.6792-0.35151-3.0048-0.35151-3.9536,0-1.882,0.42065-3.2751,1.2476-4.1959,0.84132-0.93409,2.1004-1.3945,3.7917-1.3934,1.8123,0.0011,3.2471,0.71915,4.2786,2.1407,1.0257,1.436,1.7172,3.6713,2.0514,6.7167" fill-rule="nonzero"/><path fill="#FFF" d="m887.1,90.153c-0.7289-6.4323-2.4865-11.142-5.2582-14.164-2.7746-3.0198-6.7565-4.5247-11.928-4.5267-4.8577-0.0024-8.4478,1.1196-10.764,3.3537-2.3136,2.2318-3.4661,5.6838-3.469,10.355,0,1.4619,0.12101,3.2085,0.37745,5.2389,0.24202,2.0304,0.60506,4.3737,1.0776,7.0129,0.77217,3.9674,1.5559,7.1503,2.3799,9.5599,0.80962,2.4096,1.8123,4.4826,2.9763,6.2295,1.4464,2.1664,3.3134,3.8188,5.6011,4.9577,2.2877,1.1378,4.901,1.7074,7.8657,1.7086,4.5898,0.002,8.0818-1.1064,10.479-3.3382,2.4001-2.233,3.5901-5.5092,3.5929-9.8143,0-0.59526-0.026-1.2729-0.092-2.018-0.069-0.73039-0.1757-1.5835-0.3371-2.5323l-10.156-0.003c0.19017,1.0015,0.31118,1.8817,0.39185,2.6133,0.0806,0.74393,0.12101,1.3945,0.12101,1.9491,0,1.6927-0.39473,2.9916-1.1669,3.8989-0.78369,0.90587-1.8814,1.3663-3.3019,1.3663-1.504-0.001-2.7343-0.58403-3.6822-1.7489-0.95945-1.1649-1.8123-3.2088-2.5701-6.1474-1.0804-4.1565-1.9045-7.8266-2.4721-10.994-0.56759-3.1826-0.84996-5.7962-0.84708-7.8533,0-2.0981,0.3371-3.6015,1.0142-4.5212,0.66557-0.93409,1.7489-1.3945,3.2241-1.3934,1.8411,0.0011,3.3019,0.89491,4.3852,2.6697,1.0805,1.7737,1.8382,4.4817,2.256,8.1372l10.303,0.0045" fill-rule="nonzero"/><path fill="#FFF" d="m902.07,72.939-10.629-0.0046,12.983,60.928,10.563,0.005-3.8781-18.522c1.5011,1.4755,3.1002,2.5876,4.7626,3.346,1.6798,0.74509,3.4258,1.1257,5.2122,1.1268,2.8581,0,5.0652-0.74393,6.6095-2.2318,1.5443-1.5014,2.3165-3.6139,2.3165-6.3623,0-0.582-0.052-1.2729-0.1757-2.0846-0.1211-0.79896-0.3372-1.9503-0.6483-3.4664l-6.8746-32.726-10.629-0.0058,6.7276,31.779c0.2449,1.0557,0.3918,1.8279,0.461,2.3015,0.066,0.47281,0.095,0.89261,0.095,1.2721,0,1.2188-0.3141,2.1528-0.9508,2.8158-0.6368,0.66413-1.5703,0.98826-2.789,0.98711-1.7201-0.001-3.1002-0.65057-4.1432-1.9517-1.0402-1.2865-1.8786-3.4122-2.5153-6.3364l-6.4972-30.871" fill-rule="nonzero"/><path fill="#FFF" d="m942.23,72.957-10.64-0.0046,9.6579,45.493,9.8019,0.004-0.8644-3.8853c1.8123,1.774,3.6275,3.0872,5.4398,3.9686,1.8152,0.86669,3.6707,1.3009,5.5636,1.3032,2.8841,0,5.1056-0.74392,6.6499-2.2318,1.5443-1.5014,2.3165-3.6139,2.3165-6.3623,0-0.582-0.052-1.2718-0.1758-2.0843-0.121-0.79926-0.337-1.9506-0.6454-3.4667l-6.8774-32.726-10.629-0.0043,6.7277,31.778c0.2449,1.0557,0.3947,1.8276,0.461,2.3015,0.066,0.47282,0.095,0.8926,0.095,1.2718,0,1.219-0.3141,2.1531-0.9508,2.8158-0.6368,0.66297-1.5703,0.98826-2.7746,0.9871-1.7201-0.001-3.1146-0.65057-4.1548-1.9514-1.043-1.2865-1.8814-3.4125-2.5181-6.3364l-6.4828-30.871" fill-rule="nonzero"/><path fill="#FFF" d="m982.91,124.8,1.8642,9.0983,10.724,0.005-1.9477-9.0995-10.64-0.004zm-11.024-51.829,9.6463,45.493,10.64,0.005-9.6723-45.494-10.614-0.0045" fill-rule="nonzero"/><path fill="#FFF" d="m992.28,72.979,12.986,60.929,10.56,0.004-6.7421-32.088,13.965,16.657,12.101,0.006-16.616-19.003,6.8343-26.491-10.911-0.0046-4.2873,18.274-4.4082-4.8756-2.8525-13.404-10.629-0.0045" fill-rule="nonzero"/><path fill="#FFF" d="m1081.5,78.61c-1.6912-2.3689-3.5323-4.1305-5.5377-5.2683-1.988-1.1389-4.2354-1.7086-6.7536-1.7086-4.5206-0.0032-8.1913,1.4712-11.021,4.4221-2.8323,2.9363-4.2412,6.808-4.2441,11.586,0,1.7198,0.092,3.588,0.2968,5.5925,0.2017,2.0169,0.5388,4.5221,1.0113,7.5407,0.7549,4.6313,1.5789,8.6932,2.4721,12.213,0.8788,3.5203,1.8094,6.4727,2.7833,8.8428,1.9909,4.7664,4.4255,8.2328,7.2952,10.401,2.8812,2.1675,6.5231,3.2526,10.908,3.2538,6.1341,0.003,10.603-1.362,13.406-4.0821,2.8034-2.7205,4.2123-7.0648,4.2152-13.035,0-0.66413-0.026-1.3271-0.081-2.0169-0.055-0.69121-0.1354-1.4622-0.242-2.303l-10.966-0.004c0.081,0.97357,0.1498,1.8411,0.1873,2.5997,0.04,0.74393,0.055,1.381,0.055,1.8817,0,3.0604-0.4898,5.2121-1.4665,6.4704-0.9883,1.2585-2.6392,1.8797-4.9701,1.8797-2.1091-0.001-3.8033-0.74624-5.0479-2.2364-1.2563-1.5026-2.4203-4.2386-3.4748-8.2328-1.7172-6.4851-3.0541-12.307-4.0395-17.466-0.9738-5.1715-1.4579-8.9364-1.4579-11.292,0-2.5323,0.5561-4.44,1.6539-5.7264,1.0977-1.2842,2.7342-1.9209,4.9297-1.92,2.936,0.0024,5.2784,1.3438,7.01,4.0112,1.7317,2.6686,2.8553,6.6888,3.3797,12.078l-6.987-0.003,1.9478,9.3424,18.437,0.008-6.5634-32.414-7.8946-0.0035,0.7578,5.5913" fill-rule="nonzero"/><path fill="#FFF" d="m1108.5,73.031-10.629-0.0045,9.6607,45.494,9.8019,0.003-0.8788-3.885c1.8008,1.7469,3.613,3.0613,5.4542,3.9415,1.8412,0.88108,3.6966,1.3291,5.5781,1.3303,2.3942,0,4.3046-0.45928,5.6846-1.3787,1.3974-0.91969,2.3712-2.3692,2.9561-4.3184,1.9881,1.9514,3.9098,3.401,5.7624,4.3218,1.87,0.92171,3.7773,1.383,5.728,1.3841,2.8841,0,5.0767-0.74276,6.6065-2.2182,1.5185-1.4755,2.2763-3.5992,2.2763-6.3747,0-0.66296-0.052-1.4484-0.173-2.3568-0.1209-0.907-0.3083-1.9774-0.582-3.1953l-6.9436-32.726-10.626-0.0043,6.7276,31.778c0.242,1.0557,0.3919,1.8278,0.4581,2.3015,0.069,0.47396,0.095,0.89376,0.095,1.2729,0,1.2188-0.3112,2.152-0.9479,2.815-0.6397,0.66383-1.5731,0.98796-2.7776,0.98796-1.7201-0.001-3.1001-0.65144-4.1546-1.9526-1.043-1.2865-1.8815-3.4125-2.5153-6.3364l-6.5663-30.871-10.398-0.0043,6.7277,31.778c0.2448,1.0557,0.3918,1.8276,0.461,2.3015,0.066,0.47366,0.1066,0.89346,0.1066,1.2729,0,1.2188-0.3256,2.152-0.9624,2.8147-0.6367,0.66412-1.5558,0.98826-2.7746,0.98826-1.7201-0.001-3.1002-0.65173-4.1432-1.9526-1.0401-1.2865-1.8785-3.4125-2.5153-6.3367l-6.4971-30.871" fill-rule="nonzero"/><path fill="#FFF" d="m1175.7,80.454c1.2994,0.0011,2.449,0.4342,3.4633,1.2873,1.0285,0.86667,1.8554,2.0857,2.4921,3.6704,1.3111,3.4652,2.3656,7.1624,3.1608,11.102,0.7981,3.9415,1.1871,7.3661,1.1871,10.277,0,1.9774-0.2997,3.3854-0.8961,4.1968-0.5964,0.82605-1.5961,1.2314-2.9906,1.2314-1.2995-0.001-2.4376-0.43564-3.4115-1.2888-0.9881-0.86667-1.8152-2.1664-2.5038-3.9133-0.4177-1.0828-0.8643-2.4231-1.3109-4.0349-0.4465-1.625-0.9335-3.5745-1.4579-5.876-0.582-2.6404-1.0285-4.9151-1.3369-6.798-0.2996-1.8953-0.4466-3.3843-0.4466-4.467,0-1.7469,0.3544-3.0737,1.043-3.9931,0.7059-0.93438,1.7085-1.3945,3.008-1.3934zm6.2436,53.533-3.9587-18.292c0.9189,1.4363,2.0571,2.5064,3.4228,3.237,1.3541,0.71916,2.8841,1.0848,4.5782,1.0859,3.4778,0.001,6.0766-1.094,7.7708-3.2999,1.7085-2.2059,2.5614-5.5778,2.5643-10.099,0-1.2594-0.081-2.6674-0.2566-4.2239-0.1757-1.544-0.4465-3.4125-0.8095-5.6048-0.5273-3.0331-1.1496-5.8503-1.8642-8.4233-0.7031-2.5715-1.4723-4.7785-2.2847-6.6064-1.4609-3.3316-3.2069-5.7829-5.2785-7.3676-2.0572-1.5847-4.4803-2.3848-7.2808-2.3859-2.112-0.0011-3.8869,0.54023-5.336,1.6218-1.4349,1.0828-2.5068,2.6787-3.1838,4.7912l-1.0805-5.3617-10.71-0.0045,13.066,60.929,10.64,0.004" fill-rule="nonzero"/><path fill="#FFF" d="m1210.5,73.077-11.208-0.0055,12.726,61.091,11.318,0.005-5.0249-24.047,15.354,0.007,5.0249,24.047,11.263,0.004-12.781-61.091-11.318-0.0043,5.9469,28.109-15.354-0.006-5.9468-28.109" fill-rule="nonzero"/><path fill="#FFF" d="m284.27,73.862,13.49-0.07036c-1.1125,0.0041-1.6368,0.98673-1.2941,2.0918l6.572,22.238,9.6485-0.03562c16.589-0.06172,28.673,10.574,28.727,25.324,0.0186,4.9999-2.3835,8.8727-6.3843,10.705-2.373,1.1044-5.883,1.386-11.235,1.4055l-25.782,0.0959c0.98804-0.0107,1.9525-0.25039,1.4803-1.7618l-17.23-57.295c-0.62725-2.1459,0.54846-2.6462,1.9941-2.7136zm27.448,52.84,6.9624-0.0261c5.0812-0.0186,8.0272-2.3017,8.0142-5.9177-0.0296-7.9534-5.9593-13.84-13.975-13.81l-6.9629,0.0261,5.9618,19.728" fill-rule="evenodd"/><path fill="#fff200" d="m191.12,135.65c1.2126-0.002,1.9416-1.1309,1.607-2.2801l-17.18-57.959c-0.39673-1.2541,0.66247-2.2838,1.8434-2.2869l-17.269,0.04538c-1.1705,0.0032-1.9308,1.091-1.5858,2.2582l17.133,57.956c0.65135,2.0522-0.87758,2.2588-1.6278,2.2588zm18.516-0.0193c1.2116-0.002,1.9426-1.1304,1.6071-2.2791l-17.19-57.958c-0.45024-1.4456,0.86951-2.2864,1.9979-2.2875l-17.445,0.01863c-1.1694,0.000812-1.91,1.1191-1.5646,2.2864l17.154,57.955c0.46749,2.0517-0.6949,2.2593-1.6482,2.2583zm18.588-0.0147c1.2132-0.00097,1.9426-1.1294,1.6076-2.2796l-17.19-57.964c-0.34466-1.1954,0.35938-2.2892,1.9202-2.2905l-17.346,0.01721c-1.1705,0.0018-1.9304,1.1241-1.5857,2.2907l17.154,57.956c0.5487,2.0466-0.79744,2.2583-1.6497,2.2588zm37.08-0.0878c1.1913-0.00051,1.9415-1.1512,1.6065-2.2791l-17.1-57.605c-0.37766-1.4629,0.72433-2.6441,1.837-2.6469l-17.346,0.0498c-1.17,0.0034-1.9314,1.0923-1.5857,2.259l17.153,57.955c0.57003,2.0466-0.91875,2.2588-1.6482,2.2588zm-18.56,0.0691c1.1913-0.00051,1.9421-1.1512,1.6065-2.2796l-17.1-57.606c-0.37765-1.4631,0.72535-2.6441,1.837-2.6467l-17.346,0.0498c-1.17,0.0031-1.9309,1.0921-1.5857,2.2588l17.154,57.955c0.56901,2.0466-0.91926,2.2588-1.6492,2.2588z" fill-rule="evenodd"/><path fill="#FFF" d="m334.88,74.711,15.694-0.05817,7.5048,24.829,6.0546-0.0226c4.1442-0.0153,5.8906-1.2165,5.561-3.9245-0.003-0.95928-0.0851-1.6729-0.56644-2.7079l-3.04-10.263c-0.88685-3.0277-1.6112-5.4118-1.6143-6.3692-0.003-0.71662-0.005-0.87668-0.008-1.5927l15.058-0.05573c0.32041,0.71478,0.32041,0.87484,0.32345,1.5909,0.003,0.95866,0.17463,3.3439,0.57705,4.7782l3.5459,11.461c0.24754,1.432,0.41002,2.6243,0.735,4.2994,0.0168,4.3802-2.1275,6.6997-6.744,7.1937,3.0296,0.86559,5.028,2.0543,6.9414,3.5592,5.0326,3.4892,8.5663,10.485,8.905,16.538,0.0152,3.9058-2.4419,7.7402-5.8587,9.3438-1.8314,0.80788-4.3781,1.2938-8.2838,1.3075l-25.811,0.0957-18.947-60.001zm31.336,49.678,4.943-0.0181c4.4601-0.0168,6.6863-1.3819,6.6742-4.4069-0.41913-5.8936-5.4593-10.978-11.514-10.955l-4.9414,0.0183,4.8382,15.362zm49.131,13.758,12.19-0.0456,2.6697,10.666-11.395,0.041zm23.503-0.0881,12.349-0.0456,3.069,10.665-11.793,0.044zm-52.503-63.539,16.735-0.06288,5.7782,11.608,15.534-0.05759-1.0767-11.625,16.013-0.05922,1.0979,60.067-17.608,0.0652-36.473-59.935zm41.849,47.882-2.4874-25.723-11.392,0.04204,13.88,25.681zm76.299-6.9748c0.88685,3.6628,1.3728,4.618,1.3804,7.0857,0.10167,6.0561-1.9544,9.3317-7.4486,11.423-2.7016,1.1253-5.8906,1.2954-8.9141,1.306-12.988,0.0486-22.25-5.0144-27.23-15.593-3.7706-7.2363-6.5952-16.946-9.5048-28.727-0.48443-1.5909-0.73195-3.7424-0.97795-5.4918-0.0319-8.2887,4.334-12.526,14.215-12.563,6.9308-0.02613,11.238,1.7119,16.756,6.6307l-0.73803-5.3334,9.9604-0.03736,9.5974,31.751-21.913,0.0813-2.82-9.4703,7.2497-0.02733c-2.3477-9.8689-5.8678-13.92-11.523-13.899-3.4274,0.01265-4.7744,1.7702-4.6028,4.9568,0.009,2.7085,2.0288,10.351,3.8056,16l3.7828,11.14c1.8511,5.4912,3.0569,7.9543,5.8496,9.7007,1.2027,1.1086,2.7972,1.4214,4.5481,1.4153,3.186-0.0122,4.457-1.4487,4.29-4.3143-0.005-1.5156-0.41003-3.0296-0.81852-5.9771l15.055-0.0563zm0.32194-41.348,39.281-0.14532,3.6248,11.14-24.06,0.08905,4.9946,14.081,21.271-0.07885,3.6264,11.143-21.749,0.0807,3.7904,12.493,22.466-0.0835,3.6264,11.142-38.083,0.1413-18.788-60.002zm50.991-0.18922,15.297-0.05695,7.9801,24.827,5.4973-0.02004c4.0652-0.01555,5.6537-1.2155,5.643-3.9252-0.005-0.95913-0.246-1.6723-0.40848-2.7079l-3.5413-10.262c-0.49203-3.0294-0.89596-5.4142-1.145-6.3709-0.001-0.716-0.003-0.87622-0.006-1.5922l15.38-0.05756c0.003,0.71662,0.003,0.87683,0.006,1.5928,0.003,0.95792,0.41003,3.3425,0.81396,4.7776l3.2285,11.461c0.48292,1.4308,0.96886,2.622,0.97494,4.2983,0.25664,4.3796-2.369,6.7007-7.1464,7.1955,3.1906,0.86483,5.2649,2.0536,7.4259,3.5574,4.3112,3.4915,8.3203,10.485,8.665,16.539,0.0137,3.9058-2.4419,7.7402-5.4608,9.3423-2.2293,0.80789-4.861,1.2938-8.6817,1.3075l-25.734,0.0972zm30.622,49.681,5.3348-0.0197c4.5436-0.0168,6.6878-1.3819,6.6772-4.4069-0.26118-5.8939-5.2193-10.978-11.669-10.955l-4.7835,0.0173,4.4403,15.364z" fill-rule="evenodd"/></g></svg>
