<?xml version="1.0" encoding="UTF-8" standalone="no"?>
<!-- Created with Inkscape (http://www.inkscape.org/) -->
<svg xmlns:rdf="http://www.w3.org/1999/02/22-rdf-syntax-ns#" xmlns="http://www.w3.org/2000/svg" xml:space="preserve" version="1.1" xmlns:cc="http://creativecommons.org/ns#" xmlns:dc="http://purl.org/dc/elements/1.1/" viewBox="0 0 933.04 216.14"><metadata><rdf:RDF><cc:Work rdf:about=""><dc:format>image/svg+xml</dc:format><dc:type rdf:resource="http://purl.org/dc/dcmitype/StillImage"/><dc:title/></cc:Work></rdf:RDF></metadata><path fill="#fff200" d="m376.5,0c2.9337,0.0012,4.7825,2.835,3.9562,5.6138l-42.09,141.85c-0.93,3.6031,1.7838,6.5112,4.5238,6.5181l-42.716-0.123c-2.8825-0.008-4.7563-2.6895-3.9062-5.5621l42.25-142.73c1.4038-5.04-2.2625-5.5625-4.0587-5.5612l42.05-0.00875zm-48.725,144.82-20.358-6.2139,4.7012-15.4,5.1275,1.5654-2.705,8.8604,3.1525,0.96187,2.1512-7.0488,4.92,1.5019-2.1512,7.0489,7.1588,2.1846-1.9975,6.5395zm5.41-17.721-20.359-6.2138,1.8388-6.025,20.359,6.2138-1.8388,6.025zm-13.641-14.618-4.2987-1.3125,1.8388-6.025,4.2988,1.3125-1.8388,6.025zm16.56,5.055-15.028-4.5875,1.8388-6.025,15.028,4.5862-1.8388,6.0262zm-4.75-17.424,1.6237-5.3212c-0.94875-0.2175-1.725-0.17625-2.3262,0.135-0.605,0.31125-1.0325,0.88625-1.2925,1.735-0.23875,0.78375-0.18375,1.4812,0.17375,2.085,0.35125,0.60875,0.96,1.0625,1.8212,1.3662zm6.2825-3.5488,1.7462-5.7238c1.515,0.91625,2.4787,2.205,2.8938,3.87,0.41625,1.6588,0.26875,3.6462-0.43375,5.9475-0.7875,2.5812-2.13,4.41-4.0262,5.4875-1.8912,1.0775-4.0525,1.2475-6.4788,0.5075-2.5238-0.77-4.2788-2.1512-5.2688-4.145-0.985-1.9925-1.0738-4.325-0.26125-6.9862,0.8175-2.675,2.2487-4.5275,4.3012-5.5562,2.0525-1.03,4.4875-1.1162,7.3088-0.255l0.35875,0.10875-3.4075,11.215c0.96625,0.26375,1.785,0.235,2.4488-0.0838,0.67125-0.32125,1.1338-0.90625,1.395-1.7662,0.1775-0.58,0.21625-1.095,0.1175-1.5475-0.0987-0.4525-0.33-0.8125-0.69375-1.0725zm2.1438-8.005,1.7712-5.8038c0.6375,0.195,1.1588,0.17375,1.57-0.0575,0.415-0.22875,0.72125-0.67125,0.92125-1.3275,0.19125-0.6275,0.23375-1.14,0.125-1.54-0.11-0.4-0.37-0.665-0.77625-0.78875-0.67-0.205-1.3962,0.38375-2.1688,1.7675-0.0687,0.1225-0.1225,0.215-0.165,0.285-1.45,2.625-2.6575,4.2638-3.6125,4.9112-0.95,0.6425-2.095,0.76375-3.43,0.355-1.6137-0.4925-2.6488-1.495-3.1087-3.0112-0.46125-1.5138-0.32-3.4825,0.415-5.8925,0.685-2.2412,1.6112-3.8562,2.7775-4.8412,1.1687-0.98875,2.56-1.3388,4.1825-1.0438l-1.6413,5.3788c-0.46875-0.0925-0.88499-0.007-1.255,0.25625-0.375,0.2675-0.64,0.66-0.80001,1.1838-0.16125,0.52875-0.19375,0.9575-0.0987,1.2862,0.095,0.3325,0.3125,0.54875,0.65625,0.65375,0.59501,0.18125,1.2462-0.3625,1.9475-1.6288,0.18-0.3375,0.31875-0.58875,0.4125-0.76125,1.46-2.535,2.6675-4.1062,3.62-4.7125,0.95875-0.605,2.1175-0.7,3.48-0.28375,1.7275,0.5275,2.82,1.5925,3.2888,3.2,0.46375,1.6075,0.29624,3.7275-0.505,6.35-0.7425,2.435-1.7475,4.155-3.0088,5.1625-1.2688,1.0112-2.7987,1.3112-4.5975,0.9025zm2.615-24.619,1.6238-5.3212c-0.95-0.21875-1.7262-0.17625-2.3262,0.135-0.60501,0.31125-1.0338,0.88625-1.2925,1.735-0.23874,0.78375-0.18374,1.4812,0.17375,2.085,0.35,0.6075,0.96,1.0625,1.8212,1.3662zm6.2812-3.55,1.7475-5.7225c1.515,0.91625,2.4775,2.2062,2.8938,3.8688,0.41625,1.66,0.26875,3.6475-0.43375,5.9488-0.7875,2.5812-2.13,4.41-4.0262,5.4862-1.8912,1.0788-4.0538,1.2488-6.4788,0.51-2.5238-0.77125-4.2788-2.1525-5.2688-4.1475-0.98625-1.9925-1.0738-4.3238-0.26125-6.985,0.81625-2.675,2.2488-4.5275,4.3012-5.5575,2.0512-1.0288,4.4862-1.1162,7.3075-0.255l0.36,0.11-3.4075,11.214c0.96625,0.26375,1.7838,0.23625,2.4488-0.0825,0.67-0.32125,1.1325-0.9075,1.395-1.7662,0.1775-0.58,0.215-1.095,0.11625-1.5475-0.0987-0.45375-0.33-0.8125-0.69376-1.0738zm7.1-7.3062-15.028-4.5875,1.66-5.435,2.1988,0.67125c-0.665-0.96625-1.0775-1.9475-1.245-2.9375-0.165-0.995-0.0787-2.0362,0.25125-3.1212,0.27875-0.91125,0.67875-1.6812,1.205-2.3088,0.52125-0.625,1.16-1.0962,1.91-1.4088,0.68125-0.28625,1.44-0.40625,2.2762-0.3575,0.83625,0.04875,2.1375,0.34375,3.9075,0.88375l7.8125,2.385-1.8225,5.9725-7.785-2.375c-1.1425-0.34875-1.975-0.43875-2.4988-0.26375-0.52125,0.17125-0.89375,0.63-1.1225,1.3812-0.23125,0.75375-0.15125,1.3912,0.23125,1.9112,0.3875,0.52,1.0912,0.93625,2.115,1.2488l7.7562,2.3675-1.8225,5.9738" fill-rule="evenodd"/><path fill="#fff200" d="m499.29,190.21-4.8625,0.002,5.5212-26.504,4.91-0.002-2.18,10.433,6.66-0.003,2.1812-10.433,4.8863-0.002-5.545,26.504-4.91,0.002,2.5788-12.195-6.66,0.003-2.58,12.195" fill-rule="nonzero"/><path fill="#fff200" d="m525.85,180.65c-0.34125,0.15275-0.8275,0.36425-1.4625,0.64062-2.8475,1.2055-4.2688,2.5336-4.2675,3.9785,0,0.74563,0.17,1.3154,0.505,1.7031,0.34125,0.393,0.82875,0.58737,1.4575,0.58687,0.98625-0.0005,1.7438-0.4355,2.2662-1.2994,0.5225-0.86963,1.0212-2.7372,1.5012-5.6098zm-1.2188,8.0058c-0.5575,0.73487-1.1675,1.275-1.8312,1.6221-0.6575,0.34713-1.41,0.52338-2.255,0.52388-1.5975,0.001-2.8262-0.46288-3.7012-1.3842-0.87-0.92187-1.305-2.2314-1.3062-3.9291,0-1.8384,0.475-3.295,1.4262-4.3824,0.945-1.081,2.4488-1.8686,4.4975-2.3632,0.135-0.0348,0.33499-0.0825,0.6-0.14112,3.2588-0.78226,4.8912-1.9815,4.89-3.6025,0-0.59337-0.17625-1.0572-0.535-1.3916-0.3525-0.335-0.8575-0.499-1.515-0.499-0.82875,0.00038-1.4688,0.23525-1.92,0.706-0.4525,0.46975-0.775,1.2339-0.96875,2.291l-4.435,0.002c0.29875-2.1206,1.0625-3.7012,2.2888-4.7466,1.2275-1.0405,2.9425-1.564,5.145-1.5649,2.05-0.001,3.6475,0.42137,4.7812,1.2602,1.1338,0.84562,1.705,2.02,1.705,3.5351,0,0.21775-0.0175,0.49363-0.0588,0.82863-0.04,0.34025-0.0987,0.71625-0.18125,1.1274l-2.285,10.973c-0.06,0.28762-0.11125,0.66362-0.165,1.1339-0.0513,0.47013-0.0925,0.98675-0.12875,1.5449l-4.2512,0.001,0.20375-1.545" fill-rule="nonzero"/><path fill="#fff200" d="m545.27,170.46,4.5812-0.002-4.19,19.737-4.27,0.002,0.4275-1.686c-0.78625,0.76951-1.5788,1.3399-2.3775,1.7216-0.79875,0.3765-1.615,0.565-2.4488,0.5655-1.24,0.0005-2.1975-0.32225-2.8662-0.962-0.67-0.64013-1.0062-1.562-1.0062-2.766,0-0.2525,0.0238-0.564,0.075-0.93413,0.0538-0.376,0.14125-0.875,0.27-1.5092l3.03-14.163,4.5762-0.002-2.9188,13.787c-0.0713,0.32275-0.1175,0.61088-0.1525,0.86338-0.035,0.2465-0.0525,0.48137-0.0525,0.687,0,0.5405,0.135,0.94575,0.40625,1.2275,0.27,0.28175,0.66375,0.42287,1.18,0.42237,0.735-0.0005,1.3275-0.28275,1.78-0.85212,0.45125-0.57025,0.82125-1.4926,1.1088-2.7792l2.8475-13.357" fill-rule="nonzero"/><path fill="#fff200" d="m550.27,183.18,3.935,0.0156c-0.0112,0.18225-0.0162,0.37601-0.0225,0.57576-0.006,0.19974-0.0113,0.45799-0.0113,0.78125,0,0.97462,0.1825,1.6796,0.5525,2.1206,0.365,0.43987,0.94625,0.663,1.74,0.66262,0.745,0,1.3025-0.189,1.6675-0.55912,0.36875-0.376,0.55125-0.9395,0.55125-1.6978,0-0.9395-0.80625-2.002-2.41-3.1939l-0.20619-0.1586c-1.5388-1.1094-2.5675-2.1075-3.09-2.9825-0.52374-0.8745-0.7825-1.9258-0.7825-3.1416-0.001-1.8676,0.5675-3.3076,1.7012-4.312,1.1338-1.0054,2.765-1.5054,4.885-1.5059,1.9388-0.00088,3.42,0.4625,4.4362,1.3902,1.0162,0.92762,1.5225,2.2724,1.5225,4.0405,0,0.041-0.005,0.24025-0.0175,0.59275-0.0113,0.34662-0.0163,0.664-0.0163,0.95162l-3.9825,0.001v-0.56937c-0.001-1.2158-0.165-2.038-0.48875-2.4785-0.32875-0.4345-0.91625-0.65138-1.7625-0.65138-0.59875,0.0005-1.0688,0.18263-1.4212,0.5415-0.34625,0.36425-0.5225,0.8575-0.5225,1.4918,0.001,1.0102,0.695,1.9854,2.0812,2.9242,0.37,0.24025,0.64625,0.43413,0.84625,0.56938,1.2738,0.9155,2.1975,1.8315,2.7675,2.7418,0.57625,0.9165,0.86375,1.9145,0.86375,3.0009,0.001,2.0322-0.59125,3.6129-1.7712,4.7349-1.18,1.1226-2.8425,1.687-4.985,1.688-2.0738,0.0005-3.6312-0.46875-4.6588-1.4135-1.035-0.94488-1.5525-2.3662-1.5525-4.2515-0.001-0.3115,0.0112-0.62263,0.0412-0.94,0.0288-0.3115,0.0637-0.63425,0.11-0.96925" fill-rule="nonzero"/><path fill="#fff200" d="m575.34,164.77-1.2375,5.6742,2.05-0.0005-0.63251,2.9951-2.05,0.001-2.4913,11.807c-0.0112,0.0591-0.0238,0.1235-0.035,0.19388-0.0225,0.18212-0.035,0.30562-0.035,0.376,0,0.37012,0.11749,0.62837,0.3475,0.78125,0.22874,0.15862,0.6275,0.23437,1.2038,0.23387h0.46375l-0.75625,3.3486c-0.42251,0.0703-0.8275,0.1235-1.2038,0.15912-0.375,0.0353-0.75125,0.0528-1.1162,0.0533-1.2038,0.0005-2.1325-0.25775-2.7838-0.78025-0.6525-0.522-0.9825-1.274-0.9825-2.2431,0-0.31163,0.0238-0.67,0.0763-1.0689,0.0525-0.3995,0.135-0.84625,0.2525-1.3394l2.4488-11.519-1.72,0.00037,0.62125-2.9955,1.7325-0.001,1.1838-5.6739,4.6638-0.002" fill-rule="nonzero"/><path fill="#fff200" d="m586.39,177.7c0.1175-0.5405,0.19875-1.0282,0.2525-1.4629,0.0525-0.44037,0.0763-0.80462,0.0763-1.104-0.001-0.67574-0.165-1.1801-0.5-1.5151-0.33-0.335-0.82375-0.499-1.4812-0.4985-0.88125,0.0005-1.5625,0.34125-2.0488,1.0171-0.4875,0.67525-0.88125,1.8681-1.18,3.5659l4.8812-0.002zm-1.1138,5.921,4.3-0.002c-0.1925,2.4078-0.89125,4.2114-2.0888,5.4155-1.1975,1.2051-2.895,1.811-5.0975,1.812-2.1675,0.001-3.7762-0.48-4.835-1.4429-1.0512-0.96287-1.58-2.4311-1.5812-4.4042,0-0.42337,0.0238-0.91062,0.07-1.4629,0.0462-0.54638,0.10501-1.1216,0.1875-1.7208,0.21625-1.6158,0.4675-3.0664,0.755-4.3525,0.28751-1.2812,0.58001-2.2915,0.89126-3.0259,0.69875-1.6504,1.6025-2.8375,2.7075-3.5548,1.1088-0.71675,2.5888-1.0756,4.445-1.0766,2.0975-0.001,3.6362,0.439,4.605,1.3256,0.97,0.87988,1.4525,2.272,1.4525,4.1754,0.001,0.71625-0.0637,1.539-0.1975,2.4726-0.12875,0.93413-0.3225,1.9385-0.575,3.0195l-9.3738,0.004c-0.19375,0.95125-0.34,1.7915-0.44501,2.5196-0.1,0.7285-0.1525,1.3036-0.1525,1.7152,0,0.8165,0.1825,1.4209,0.54125,1.8204,0.365,0.40525,0.91125,0.605,1.645,0.6045,0.78625-0.0005,1.4088-0.312,1.8562-0.92875,0.44501-0.623,0.745-1.5928,0.89-2.914" fill-rule="nonzero"/><path fill="#fff200" d="m606.66,182.69c-0.31625,2.7906-1.0788,4.834-2.2812,6.145-1.2038,1.3101-2.9312,1.963-5.175,1.9639-2.1075,0.001-3.665-0.48575-4.67-1.455-1.0038-0.96825-1.5038-2.4659-1.505-4.4922,0-0.63425,0.0525-1.392,0.16375-2.2729,0.105-0.88087,0.2625-1.8975,0.4675-3.0425,0.335-1.7212,0.675-3.1021,1.0325-4.1475,0.35125-1.0454,0.78625-1.9448,1.2912-2.7026,0.6275-0.93988,1.4375-1.6568,2.43-2.1509,0.99249-0.49362,2.1262-0.74075,3.4125-0.74125,1.9912-0.00087,3.5062,0.48,4.5462,1.4482,1.0412,0.96875,1.5575,2.3901,1.5588,4.2579,0,0.25825-0.0113,0.55225-0.04,0.8755-0.03,0.31688-0.0763,0.687-0.14625,1.0986l-4.4062,0.001c0.0825-0.4345,0.135-0.81638,0.17-1.1338,0.035-0.32275,0.0525-0.605,0.0525-0.84563,0-0.73437-0.17125-1.2979-0.50625-1.6915-0.34-0.393-0.81625-0.59275-1.4325-0.59275-0.6525,0.0005-1.1862,0.25338-1.5975,0.75875-0.41625,0.50538-0.78625,1.3921-1.115,2.667-0.46875,1.8032-0.82625,3.3955-1.0725,4.7696-0.24625,1.3808-0.36875,2.5146-0.3675,3.4071,0,0.91025,0.14625,1.5625,0.44,1.9615,0.28875,0.40525,0.75875,0.605,1.3988,0.6045,0.79875-0.00049,1.4325-0.38825,1.9025-1.1582,0.46875-0.7695,0.7975-1.9444,0.97875-3.5302l4.47-0.002" fill-rule="nonzero"/><path fill="#fff200" d="m613.15,190.16-4.6112,0.002,5.6325-26.433,4.5825-0.002-1.6825,8.0356c0.65125-0.64012,1.345-1.1226,2.0662-1.4516,0.72875-0.32325,1.4863-0.48837,2.2613-0.48887,1.24,0,2.1975,0.32275,2.8675,0.96825,0.67,0.65137,1.005,1.5679,1.005,2.7602,0.001,0.2525-0.0225,0.55225-0.0763,0.90437-0.0525,0.34663-0.14625,0.84613-0.28125,1.5039l-2.9825,14.198-4.6112,0.002,2.9188-13.787c0.10625-0.458,0.17-0.79299,0.2-0.9985,0.0288-0.20512,0.0412-0.38725,0.0412-0.55187-0.001-0.52875-0.13625-0.934-0.4125-1.2216-0.27625-0.28813-0.68125-0.42876-1.21-0.42825-0.74625,0.00049-1.345,0.28225-1.7975,0.84674-0.45125,0.55813-0.81501,1.4804-1.0912,2.749l-2.8188,13.393" fill-rule="nonzero"/><path fill="#fff200" d="m630.57,190.15-4.6163,0.002,4.19-19.737,4.2525-0.002-0.375,1.6856c0.78625-0.76962,1.5738-1.3394,2.36-1.7217,0.7875-0.37601,1.5925-0.56438,2.4138-0.56538,1.2512,0,2.215,0.32275,2.885,0.96825,0.67,0.65137,1.005,1.5679,1.005,2.7602,0.001,0.2525-0.0225,0.55175-0.0763,0.90425-0.0525,0.34675-0.14625,0.84625-0.28,1.504l-2.9838,14.198-4.6112,0.002,2.9188-13.787c0.10625-0.458,0.17125-0.79288,0.2-0.9985,0.0288-0.20513,0.0412-0.38725,0.0412-0.55175,0-0.52888-0.13625-0.93413-0.4125-1.2216-0.27625-0.28762-0.68125-0.42875-1.2038-0.42825-0.74625,0.0005-1.3512,0.28225-1.8025,0.84663-0.4525,0.55812-0.81625,1.4805-1.0925,2.749l-2.8125,13.393" fill-rule="nonzero"/><path fill="#fff200" d="m648.22,167.66,0.80875-3.9472,4.6525-0.002-0.845,3.9478-4.6162,0.002zm-4.7825,22.486,4.185-19.737,4.6162-0.002-4.1962,19.737-4.605,0.002" fill-rule="nonzero"/><path fill="#fff200" d="m652.29,190.14,5.6337-26.434,4.5812-0.002-2.925,13.921,6.0588-7.2265,5.25-0.003-7.2088,8.2441,2.965,11.493-4.7338,0.002-1.86-7.9282-1.9125,2.1152-1.2375,5.8154-4.6112,0.002" fill-rule="nonzero"/><path fill="#fff200" d="m690.98,187.7c-0.73375,1.0278-1.5325,1.792-2.4025,2.2856-0.8625,0.49412-1.8375,0.74124-2.93,0.74124-1.9612,0.001-3.5538-0.63824-4.7812-1.9185-1.2288-1.2739-1.84-2.9536-1.8412-5.0264,0-0.74612,0.04-1.5566,0.12875-2.4262,0.0875-0.875,0.23374-1.9619,0.43875-3.2715,0.3275-2.0092,0.68499-3.7715,1.0725-5.2984,0.38125-1.5273,0.78499-2.8081,1.2075-3.8364,0.86374-2.0679,1.92-3.5718,3.165-4.5122,1.25-0.94038,2.83-1.4111,4.7325-1.4116,2.6612-0.001,4.6,0.59088,5.8162,1.771,1.2162,1.1802,1.8275,3.065,1.8288,5.6553,0,0.28812-0.0113,0.57575-0.035,0.875-0.0237,0.29987-0.0587,0.63437-0.105,0.99912l-4.7575,0.002c0.035-0.42237,0.065-0.79875,0.0812-1.1279,0.0175-0.32275,0.0238-0.59912,0.0238-0.81638,0-1.3278-0.2125-2.2612-0.63625-2.8071-0.42875-0.546-1.145-0.8155-2.1562-0.8155-0.915,0.0005-1.65,0.32375-2.19,0.97025-0.545,0.65187-1.05,1.8389-1.5075,3.5718-0.745,2.8135-1.325,5.3394-1.7525,7.5776-0.4225,2.2436-0.6325,3.877-0.6325,4.899,0,1.0986,0.24125,1.9262,0.7175,2.4844,0.47625,0.55712,1.1862,0.83337,2.1388,0.833,1.2738-0.001,2.29-0.583,3.0412-1.7402,0.75125-1.1578,1.2388-2.9019,1.4662-5.2398l-3.0312,0.001,0.845-4.0531,7.9988-0.004-2.8475,14.062-3.425,0.001,0.32875-2.4258" fill-rule="nonzero"/><path fill="#fff200" d="m702.7,190.12-4.6112,0.002,4.1912-19.737,4.2525-0.001-0.38125,1.6855c0.78125-0.75787,1.5675-1.3281,2.3662-1.71,0.79876-0.38225,1.6038-0.57662,2.42-0.57712,1.0388,0,1.8675,0.19925,2.4662,0.59812,0.60625,0.399,1.0288,1.0279,1.2825,1.8735,0.8625-0.84662,1.6962-1.4755,2.5-1.875,0.81125-0.39987,1.6388-0.6,2.485-0.6005,1.2512,0,2.2025,0.32225,2.8662,0.96238,0.65876,0.64012,0.9875,1.5615,0.9875,2.7656,0.001,0.28763-0.0225,0.62838-0.075,1.0225-0.0525,0.3935-0.13375,0.85788-0.2525,1.3862l-3.0125,14.198-4.61,0.002,2.9188-13.787c0.105-0.458,0.17-0.793,0.19875-0.9985,0.03-0.20562,0.0412-0.38775,0.0412-0.55225-0.001-0.52875-0.135-0.93362-0.41125-1.2212-0.2775-0.288-0.6825-0.42862-1.205-0.42862-0.74625,0.0005-1.345,0.28262-1.8025,0.84712-0.4525,0.55813-0.81625,1.4805-1.0912,2.749l-2.8488,13.393-4.5112,0.002,2.9188-13.787c0.10625-0.458,0.17-0.79288,0.2-0.9985,0.0287-0.2055,0.0462-0.38763,0.0462-0.55225,0-0.52875-0.14125-0.93363-0.4175-1.2211-0.27625-0.28812-0.675-0.42875-1.2038-0.42875-0.74625,0.0005-1.345,0.28275-1.7975,0.84713-0.45125,0.55812-0.815,1.4805-1.0912,2.7491l-2.8188,13.393" fill-rule="nonzero"/><path fill="#fff200" d="m731.86,186.9c0.56375-0.0005,1.0625-0.18837,1.5025-0.5585,0.44625-0.376,0.805-0.90487,1.0812-1.5924,0.56875-1.5034,1.0262-3.1074,1.3712-4.8164,0.34626-1.71,0.515-3.1958,0.515-4.4585,0-0.85787-0.13-1.4688-0.38874-1.8207-0.25875-0.35838-0.6925-0.53426-1.2975-0.53426-0.56375,0.0005-1.0575,0.189-1.48,0.55913-0.42875,0.376-0.7875,0.93987-1.0862,1.6978-0.18125,0.46975-0.375,1.0512-0.56875,1.7505-0.19376,0.705-0.405,1.5508-0.63251,2.5492-0.2525,1.1455-0.44625,2.1324-0.58,2.9492-0.13,0.82225-0.19375,1.4682-0.19375,1.938,0,0.75787,0.15375,1.3335,0.4525,1.7324,0.30625,0.40537,0.74125,0.60499,1.305,0.60449zm2.7088-23.225-1.7175,7.936c0.39875-0.62312,0.89251-1.0874,1.485-1.4044,0.5875-0.312,1.2513-0.47063,1.9863-0.47112,1.5087-0.00051,2.6362,0.47462,3.3712,1.4316,0.74125,0.957,1.1112,2.4199,1.1125,4.3814,0,0.54638-0.035,1.1572-0.11126,1.8325-0.0762,0.66988-0.19375,1.4805-0.35125,2.4316-0.22875,1.3159-0.49875,2.5381-0.80875,3.6544-0.305,1.1156-0.63875,2.0731-0.99125,2.8661-0.63375,1.4454-1.3912,2.5089-2.29,3.1964-0.8925,0.6875-1.9438,1.0346-3.1588,1.0351-0.91625,0.0005-1.6862-0.23438-2.315-0.70363-0.6225-0.46975-1.0875-1.1621-1.3812-2.0786l-0.46875,2.3261-4.6462,0.002,5.6688-26.434,4.6162-0.002" fill-rule="nonzero"/><path fill="#fff200" d="m746.97,190.1-4.8625,0.002,5.5212-26.504,4.91-0.002-2.18,10.433,6.6612-0.003,2.18-10.433,4.8862-0.002-5.545,26.504-4.91,0.002,2.58-12.195-6.6612,0.003-2.58,12.195" fill-rule="nonzero"/><path fill="#fff200" d="m127.7,0.6325c2.9863,0.0037,4.7812,2.785,3.9575,5.615l-42.295,142.72c-0.977,3.0884,1.6314,5.624,4.5396,5.6318l-42.526-0.11175c-2.8824-0.008-4.7549-2.6866-3.9052-5.5611l42.191-142.72c1.604-5.0538-2.1611-5.5625-4.0088-5.5625zm49.598,0.0475c2.9838,0.0037,4.7838,2.7838,3.9575,5.6125l-42.295,142.72c-1.1088,3.56,2.1412,5.6304,4.92,5.6332l-42.959-0.0459c-2.8799-0.002-4.7036-2.7559-3.853-5.6304l42.242-142.72c1.15-5.0412-1.71-5.5525-4.06-5.55zm49.775,0.03625c2.9875,0.0025,4.7838,2.7812,3.9588,5.6138l-42.295,142.72c-0.84875,2.9439,0.885,5.6372,4.7288,5.6406l-42.715-0.0424c-2.8825-0.005-4.7538-2.7681-3.905-5.6411l42.23-142.72c1.3512-5.04-1.9638-5.5612-4.0625-5.5625zm99.314,0.21625c2.9338,0.0012,4.7812,2.835,3.9563,5.6125l-42.088,141.84c-0.93,3.6026,1.7838,6.5112,4.5238,6.5181l-42.716-0.12263c-2.8812-0.008-4.7562-2.6899-3.905-5.5629l42.24-142.72c1.4038-5.04-2.2625-5.5625-4.0587-5.5625zm-49.706-0.17c2.9338,0.0012,4.7825,2.835,3.9562,5.6138l-42.088,141.84c-0.93,3.603,1.7862,6.5112,4.5238,6.5176l-42.716-0.12262c-2.8812-0.008-4.755-2.6895-3.905-5.5625l42.26-142.73c1.4-5.04-2.27-5.5625-4.06-5.5625zm32.464,44.111,1.77-6.04c0.38875,0.02875,0.70375-0.06625,0.945-0.29875,0.24-0.22875,0.445-0.62875,0.61-1.1912,0.2625-0.89125,0.24375-1.5562-0.06-1.9838-0.30375-0.42875-1.1275-0.845-2.4725-1.2388l-0.8325-0.24375c0.34875,0.6625,0.545,1.39,0.5825,2.17,0.0412,0.785-0.0713,1.6312-0.3375,2.5412-0.6075,2.0712-1.8012,3.5212-3.5825,4.3525-1.7825,0.83125-3.8475,0.90125-6.1975,0.21125-2.4762-0.725-4.27-1.9-5.39-3.52-1.12-1.6188-1.3863-3.4188-0.8075-5.4038,0.32625-1.1075,0.8075-2.0162,1.44-2.7262,0.63-0.71,1.4412-1.2462,2.4362-1.6075l-1.9888-0.58375,1.585-5.4038,14.154,4.15c2.6688,0.78125,4.3738,1.9938,5.11,3.6262,0.73625,1.6388,0.64876,4.01-0.25999,7.11-0.63126,2.1538-1.5325,3.7612-2.7,4.8162-1.1675,1.0588-2.5025,1.4775-4.0038,1.2638zm-7.9412-7.8312c1.2338,0.36125,2.2088,0.4275,2.925,0.19875,0.715-0.23,1.195-0.75875,1.4362-1.5825,0.25625-0.87625,0.15125-1.6075-0.3075-2.1975-0.46125-0.58875-1.31-1.0638-2.5525-1.4288-1.1075-0.32375-2.0362-0.35625-2.7775-0.08625-0.74375,0.26625-1.2312,0.81-1.4725,1.6288-0.24,0.82375-0.1325,1.525,0.32625,2.0988,0.46,0.57375,1.2675,1.03,2.4225,1.3688zm0.425,27.369-15.339-4.4988,1.625-5.5488,2.2438,0.65875c-0.68625-0.97625-1.1162-1.9688-1.2975-2.975-0.18-1.0112-0.10375-2.07,0.22125-3.1788,0.27125-0.9275,0.67125-1.7162,1.2-2.36,0.52125-0.6425,1.1662-1.1288,1.9262-1.455,0.69-0.3,1.46-0.43,2.3112-0.38875,0.85125,0.04,2.1788,0.32375,3.9862,0.855l7.975,2.3375-1.7875,6.0975-7.9475-2.33c-1.1662-0.34125-2.015-0.42375-2.545-0.24-0.53,0.18-0.90125,0.6525-1.125,1.4175-0.22625,0.77-0.14,1.4175,0.25625,1.9425,0.4,0.52375,1.12,0.94,2.165,1.2475l7.9175,2.32zm-16.31-1.195,15.34,4.4975-1.635,5.5775-2.2588-0.6625c0.69625,0.9775,1.1325,1.9738,1.3125,2.98,0.18,1.0088,0.105,2.0638-0.22125,3.1775-0.27125,0.92875-0.67,1.7175-1.1975,2.3575-0.52375,0.64625-1.1688,1.1325-1.93,1.4588-0.675,0.2925-1.4325,0.415-2.2725,0.37375-0.84-0.0425-2.1888-0.33375-4.0425-0.87625l-7.9475-2.33,1.7875-6.0975,7.9188,2.3212c1.165,0.34125,2.02,0.42625,2.5588,0.24375,0.53875-0.1775,0.91625-0.64875,1.14-1.4138,0.22375-0.76,0.13125-1.4038-0.275-1.935-0.40625-0.53375-1.13-0.95625-2.175-1.2612l-7.8888-2.315zm3.2662,24.629c0.515,0.15125,0.92625,0.10875,1.225-0.13125,0.3-0.23625,0.56375-0.74,0.79-1.51,0.065-0.2275,0.11625-0.40125,0.14625-0.51875,0.03-0.12125,0.055-0.23875,0.0775-0.3525l4.4162,1.295c-0.1775,0.76375-0.33875,1.46-0.49625,2.0825-0.15625,0.62375-0.315,1.205-0.4725,1.7388-0.56876,1.9362-1.2875,3.1938-2.1625,3.77-0.875,0.575-2.125,0.6275-3.7525,0.15l-7.69-2.255-0.63249,2.1575-3.5163-1.0312,0.6325-2.1575-4.74-1.3888,1.78-6.0688,4.7388,1.3888,0.84-2.8612,3.515,1.0325-0.83875,2.8612zm0.53625,19.221-11.88-3.4838-0.56124,1.9075-3.4575-1.015,0.55875-1.9062-0.9575-0.28125c-1.71-0.5-2.8488-1.2938-3.4062-2.3838-0.56-1.0912-0.57625-2.5325-0.0487-4.33l1.0012-3.4138,3.8375,1.1238c-0.0225,0.0775-0.0587,0.18375-0.10875,0.32-0.0513,0.14125-0.0863,0.24125-0.10625,0.3075-0.2175,0.7425-0.24375,1.3-0.0788,1.6625,0.15875,0.365,0.555,0.6375,1.1712,0.81875,0.0487,0.015,0.1225,0.0312,0.22625,0.0513,0.0987,0.0187,0.1825,0.0362,0.25125,0.0563l0.76-2.5962,3.4575,1.0138-0.76,2.5962,11.881,3.4838-1.78,6.0688zm-22.679,11.186-3.8075-1.1162,1.0325-3.5262,3.8112,1.1162zm1.4975-5.1062-3.8088-1.115,1.0325-3.5262,3.81,1.1162zm4.7038-6.6962,15.34,4.4988-1.6362,5.5762-2.2588-0.6625c0.6975,0.97875,1.1325,1.9738,1.3138,2.9788,0.18125,1.0112,0.10625,2.0662-0.22125,3.1778-0.27125,0.93075-0.67,1.7174-1.1988,2.358-0.52375,0.64738-1.1688,1.1328-1.9275,1.4595-0.6775,0.29238-1.435,0.4165-2.275,0.3735-0.84125-0.0425-2.1888-0.333-4.0425-0.876l-7.9475-2.3296,1.7875-6.0981,7.9188,2.3212c1.1662,0.3425,2.02,0.425,2.56,0.24375,0.53751-0.1775,0.91625-0.6475,1.1412-1.4125,0.22125-0.76125,0.1275-1.4062-0.27499-1.9362-0.40875-0.535-1.1325-0.955-2.1775-1.2612l-7.8888-2.3138zm5.195,39.097-20.781-6.0932,1.9575-6.6752,15.262,4.4741,2.66-9.0732,5.5188,1.6181zm-49.65-0.69875,1.9075-6.293-8.5225-2.2392,2.3025-6.8818,8.2612,2.3706,1.9075-6.4272-21.111-5.6592-2.105,6.3575,7.2113,1.9081-2.1712,6.8842-7.4075-2.104-1.5812,6.5548zm6.7312-39.931-1.6488,5.9012c1.05,0.65625,1.3775,1.7712,0.78625,2.9512-0.33,1.6388-2.1675,2.7538-4.0688,2.1612l-0.26124-0.001,3.6162-11.735-1.1788-0.001c-5.2438-1.4488-9.1825,0.97375-10.894,6.6125-0.79,2.6238-0.72625,5.115,0.78125,7.2812,1.5075,1.2462,3.0775,2.6912,4.8488,3.2826,4.9175,1.1201,9.1825-1.4326,10.958-6.2851,0.98751-3.6062,0.59625-6.36-1.3688-8.7238-0.5225-0.72-0.9175-0.8525-1.57-1.4438zm-9.9112,6.5475c0.4625-1.7688,1.905-2.4888,3.6738-2.095l-1.7738,5.7038c-1.575-0.39375-2.295-2.035-1.9-3.6088zm15.615-7.985,1.5825-5.8338-15.67-4.2138-1.515,5.9662zm-16.912-4.4088,1.6438-5.9675-4.3925-1.1188-1.9738,6.0962zm19.086-3.4562,4.5412-15.67-4.5238-1.4488-2.1738,7.9338-4.515-8.8588-4.2612-0.8575-4.3438,14.229,4.6562,1.055,1.9088-6.8212,4.1875,9.1212zm6.455-28.785,2.165,0.46125,1.4488-5.7038-15.278-4.2138-2.17,6.1638,8.5212,2.1725c1.8388,0.1325,2.4938,1.445,2.36,3.02-0.52625,0.9825-1.1812,1.44-1.9025,1.7012-0.3275-0.26125-0.7225-0.26125-1.1812-0.2625l-8.7838-2.1725-1.9088,6.2275,10.422,2.5038c3.4762,0.7225,6.2975-0.585,7.4162-4.19,0.72375-2.3612,0.20125-3.935-1.11-5.7075zm4.3388-8.1275,1.71-5.965-8.13-2.0425c-1.705-0.46125-2.4262-1.5762-1.835-3.0175,0.33125-1.64,1.1188-2.0325,2.4288-1.6375l9.1138,2.3688,1.6462-6.2925-10.359-2.5688c-3.1475-1.0512-6.2312,0.9775-7.0862,4.1888-0.5925,1.5762-0.3975,3.4112,0.0613,4.6575-0.002,0.3925,0.26125,0.45875,0.58875,0.8525l-1.705-0.39375-1.7125,6.2938,15.279,3.5562zm-4.9512-32.99c-1.5738,0.7175-2.2988,1.8312-3.1512,3.7988-1.2512,4.4588,0.97375,7.5425,6.2188,8.795,5.05,1.3812,8.7888-0.18875,9.9075-4.715,0.46-1.7675,0.33125-3.2775-0.3225-4.9838l1.18,0.33c1.3112,0.5925,2.035,0.725,2.36,1.3812,0.19625,0.65375,0.19625,1.4425-0.001,2.0975-0.32875,1.1812-1.3125,1.8988-2.495,1.9l-1.384,5.5725c3.8725-0.1925,6.0362-1.7662,7.2862-6.7475,0.79125-2.82,0.79125-3.9325,0.205-5.9675-0.19625-0.98375-0.3275-1.8362-1.1112-2.43-0.65625-0.72125-1.7725-1.1138-3.0825-1.7712l-15.605-3.5575-1.5788,5.9012zm1.9637,2.8862c0.78751-1.4425,1.9038-1.8338,4.33-1.44,2.425,0.5275,3.4725,1.6425,3.0787,3.6112-0.65625,1.6388-2.2325,2.0962-4.5262,1.6338-2.36-0.5925-3.2125-1.7738-2.8825-3.805zm-92.862,115.77,23.086-0.69825,1.7762-6.3599-11.21-5.3891,12.659,0.73525,1.8412-6.5571-19.596-11.43-1.7125,6.6205,12.455,6.1118-14.231-0.73475-1.8438,5.6366,12.784,6.1792-14.099-0.40825-1.9088,6.294zm31.382-34.793,0.525,0.13125c0.3925,0.265,0.78625,0.265,1.4425,0.002l1.8412-5.9658c-1.3112-0.001-2.1638-0.001-3.0812-0.001l-8.6562-2.305c-1.0475-0.33-2.4238-0.002-3.54,0.7825-1.445,1.1125-2.625,2.4888-3.4825,5.8988-1.3162,4.3275-0.99125,6.9512,1.3688,8.6575,0.6575,0.33,0.9825,0.395,1.7038,0.72375l1.4488-5.77c-1.0488-0.3275-1.4412-1.3775-1.045-2.755,0.45875-1.18,1.1175-2.1625,2.2312-1.7675,0.72,0,0.98249,0.92,0.71875,2.0325l-0.46376,4.3275c-0.39625,3.5412,0.71501,5.3138,3.0112,6.0375,3.4088,0.725,5.8375-0.84625,6.6925-4.1275,0.92-1.5688,0.9225-3.6038,0.004-4.6538,0.001-0.46-0.19375-0.7875-0.71875-1.2475zm-3.8675-0.98625c1.6388,0.39375,2.4238,2.035,2.0288,3.5425-0.395,1.4425-1.3788,2.0975-2.495,1.7688-0.72-0.2625-1.3088-1.0512-1.1112-2.0338l0.002-2.295c0.13125-0.001,0.13125-0.001,0.001-0.58875-0.19875-0.39625-0.19875-0.46125-0.3275-0.855l1.9012,0.46125zm2.3012-7.7375c1.0512,0.26375,1.5762,0.265,2.4925,0.004,1.05-0.3275,2.165-0.78375,2.8888-1.44,1.115-1.1788,2.1-2.8188,2.8238-5.57,1.8412-4.395,0.14-7.8712-3.0725-8.7262-2.1625-0.395-4.2638,0.3875-5.38,2.8138l-2.4975,4.325c-0.59,0.525-0.72125,0.72125-1.4425,0.5225-0.72125-0.13-0.9825-0.8525-0.5875-1.77,0.39375-1.245,1.05-1.8362,2.1625-1.4412l1.91-5.7688c-3.6725-0.92-5.97,1.4362-7.4175,6.6825-1.4462,4.6538-0.335,7.5412,2.6138,8.1338,2.0338,0.79,3.935-0.39,5.5138-2.5512l2.2975-3.8025c0.59-0.9825,0.92-1.245,1.6413-0.98125,0.71875,0.26375,1.0488,0.985,0.45625,2.0325-0.33,1.4438-1.1825,2.23-2.8225,1.8338l-1.58,5.7038zm5.3975-17.636c1.1125,0.19875,1.5738,0.2,2.23,0.004,1.3762-0.325,2.4262-0.78375,3.0812-1.2438,0.98626-0.9825,2.5612-3.21,3.1525-5.7012,1.0563-4.5238,0.01-7.7375-3.2675-8.53-2.5575-0.59125-4.0675,0.39-5.5775,2.6838l-2.6937,4.5238c-0.39376,0.58875-0.72125,0.71875-1.2462,0.58875-0.33001-0.265-0.59001-0.92-0.32625-2.035,0.1325-1.4438,0.855-2.0312,2.1662-1.7025l1.7762-5.4412c-3.935-0.9875-6.2325,1.5662-7.8112,6.8125-1.4462,4.26-0.33625,7.41,3.1412,8.265,1.8988,0.5275,3.9338-0.45375,5.51-3.2075l1.9712-3.2762c0.52625-0.785,0.8525-1.4412,1.5088-1.1125,1.05,0.3275,1.1125,1.1162,0.78499,2.0338-0.45875,1.245-1.4462,1.965-2.8212,1.5038l-1.5788,5.835zm10.985-34.09-1.71,5.7025c0.9825,0.52875,1.1138,1.5762,0.7825,3.15-0.52625,1.7712-1.9038,2.49-3.7388,2.0275l-0.195,0.002,3.1575-11.605-0.78625-0.33c-5.64-0.8575-9.7738,1.4325-11.354,6.745-0.91875,2.8188-0.59375,5.1788,1.045,7.1488,1.1125,1.8388,2.9475,3.0838,4.7812,3.4138,4.9188,1.3175,9.12-1.4338,10.631-6.4812,1.12-3.54,0.73-6.0338-1.1062-8.2638-0.655-0.78625-0.78749-0.85375-1.5075-1.51zm-9.8425,6.22c0.32875-1.3112,1.7062-2.1612,3.6075-2.0275l-1.9062,5.7025c-1.7062-0.33-2.3587-1.8388-1.7012-3.675zm14.894-7.6588,2.0412-6.4238-6.9512-1.58c-1.3762-0.46125-1.8362-0.78875-2.4912-1.6412-0.3275-0.59125-0.325-1.84,0.002-3.1488,0.001-0.6575,0.001-1.05,0.66-1.77l-5.18-1.1862c-0.46125,0.46-0.725,0.8525-0.72375,1.4438-0.52375,0.85125-0.525,1.7688-0.135,2.6212,0.13125,0.3275,0.395,0.98375,0.45875,1.4438,0.65625,0.395,0.72125,0.39375,1.05,0.65625l-2.2312-0.26375-1.71,5.7675,15.21,4.0812zm-78.176,98.264,1.91-6.3589-6.4238-1.6455-1.375-2.2305,9.97-3.2036,2.1738-8.1952-15.681,5.4921-6.0875-9.8438-2.0425,7.8691,5.2388,8.1358-7.015-2.041-1.9074,6.3604zm6.255-22.291,1.9075-5.7031-21.178-5.6612-2.0388,6.1625zm2.6962-8.4569,1.8438-6.0962-15.67-3.9512-1.645,6.1612zm-17.046-4.41,1.9738-5.9675-4.4588-0.99-1.8412,5.9025zm19.484-4.5062,1.9725-6.1625-8.6562-1.9762c-1.4412-0.1325-2.1625-1.445-1.7675-2.56,0.33-1.115,1.1838-1.7712,1.7738-1.6388l0.52375,0.19875,9.18,2.5675,1.7763-6.0975-8.59-2.435c-1.4425-0.0675-2.49-1.3812-2.1625-2.6262,0.33125-1.3125,1.4462-1.8338,2.8887-1.5062l9.1788,2.6338,1.7775-6.3588-10.294-2.765c-3.54-0.46375-6.2975,1.1088-7.4812,4.7125-0.5925,1.9688-0.33125,3.6725,1.175,5.84-2.0988,0.325-3.215,1.4375-3.9388,3.5375-0.52625,1.835-0.5275,3.2762,0.25875,4.3938-0.001,0.32875,0.065,0.85,0.71875,1.3788l-2.0975-0.52875-1.645,5.5075zm10.269-39.076,0.525,0.1325c0.32749,0.1975,0.72125,0.1975,1.4425,0.001l1.7762-6.0312c-1.3762,0.26-2.0975-0.004-3.2125-0.0688l-8.4588-2.435c-1.5737-0.0675-2.5588-0.002-3.6075,0.915-1.5738,1.1125-2.4938,2.685-3.6125,6.03-1.3812,4.3262-1.0562,7.1462,1.4325,8.8538,0.5925,0.0663,0.91749,0.39375,1.7062,0.46125l1.4462-5.6375c-0.9825-0.46-1.3088-1.5788-0.9775-2.8888,0.59-1.18,1.0488-2.0962,2.0338-1.7675,0.7875,0,0.78625,0.985,0.785,2.0988l-0.66,4.3925c-0.3325,3.4112,0.91125,5.445,3.6,5.84,2.82,0.85625,5.575-0.38625,6.5612-4.0588,0.725-1.5725,0.72749-3.3438,0.006-4.655-0.26375-0.525-0.2625-0.7225-0.78625-1.1825zm-3.72-1.109c1.3788,0.39375,2.295,2.2338,1.77,3.6088-0.39626,1.3775-1.3162,1.9012-2.4288,1.7688-0.78749-0.1975-1.0488-0.92-1.0488-1.7712l0.002-2.4925v-0.65625c0-0.4575,0-0.4575-0.12875-0.78625l1.8338,0.32875zm-77.112,55.802c-1.0508-0.002-1.5738-0.002-2.6226,0.19337-3.871,0.456-7.0869,3.601-8.0746,7.664-2.105,6.5552,1.102,12.266,8.0522,13.717,2.9511,0.98437,6.0991,0.59562,8.5943-0.84675,3.1474-1.5039,4.6576-3.3384,5.3828-6.29,1.1182-3.145,0.66063-4.918-0.71487-7.082l2.0338,0.13375,1.5761-4.065-11.801-3.1591-2.7636,9.2417,4.5902,1.0561,0.78813-2.8199c0.65675,0.4605,1.0494,0.98388,1.312,1.7715,0.065,0.72313,0.0625,1.7061-0.26413,2.4922-0.3965,1.31-1.0542,2.5561-2.4961,3.144-0.8535,0.32813-1.9678,0.32813-3.935,0.12888-2.2945-0.72413-3.2144-1.25-3.671-2.1694-1.2446-1.1808-1.6371-2.2964-0.97988-3.6065,0.59175-2.0341,1.6425-3.0815,3.2158-2.8822zm16.405-10.084,0.19775,0c0.45749,0.1325,0.85161,0.13375,1.4424,0.004l1.6445-5.9662c-1.245-0.001-1.8344-0.002-2.9491-0.33125l-8.3931-1.845c-1.6396-0.59125-2.6235-0.2-3.7382,0.71875-1.4434,0.85-2.4301,2.685-3.482,5.7675-1.2514,4.5238-1.122,7.145,1.3692,8.59,0.65475,0.33,0.98188,0.33,1.4414,0.33125l1.7764-5.18c-1.1152-0.52625-1.5064-1.64-1.1124-2.625,0.46-1.5062,1.1172-2.2288,2.1016-1.965,0.98137,0.0662,1.1128,0.7225,0.98,2.0988l-0.59375,4.0662c-0.65975,3.605,0.71625,5.575,3.4042,6.2332,2.8858,0.791,5.7725-0.6495,6.5625-3.992,0.3955-1.9688,0.397-3.6075-0.0615-5.0512,0-0.39375-0.39312-0.45875-0.58987-0.85375zm-3.9321-1.0538c1.3745,0.395,2.3579,1.9062,1.7656,3.6112-0.3935,1.0475-1.3794,1.7675-2.2305,1.3738-0.98437,0-1.3769-0.7225-1.1122-1.6412l0.001-2.295,0.00051-0.52375c0.002-0.525,0.002-0.7875-0.26075-1.1162l1.8364,0.59125zm2.3678-7.6712c1.2465,0.265,1.5741,0.26625,2.229,0.005,1.2465-0.065,2.0981-0.72,2.6235-1.1788,1.249-1.31,2.6929-3.2762,3.2871-5.57,1.5771-4.7212,0.13812-8.1975-3.2715-8.9238-2.2295-0.46125-3.606,0.39125-5.1841,2.815l-2.8901,4.195c-0.32863,0.78625-0.58988,0.91875-0.98288,0.78625-0.46-0.265-0.85112-1.115-0.4575-2.0338,0.3295-1.245,0.72263-1.8362,2.1655-1.375l1.5146-5.77c-3.3442-0.5275-5.8394,1.7-7.7466,6.7462-1.0526,4.8525-0.40087,7.4112,3.3375,8.4,1.8339,0.72,3.6732-0.5875,5.3808-3.0788l2.233-3.67c0.3945-0.98375,0.65763-1.245,1.2456-0.98125,0.8535,0.13125,0.8545,0.98375,0.8525,2.2288-0.72463,1.5738-1.4472,2.0325-2.7554,1.9662l-1.581,5.4388" fill-rule="evenodd"/><path fill="#FFF" d="m333.79,171.89-9.6,41.104,608.85-0.231,0.001,3.1186-612.8,0.2515,9.6012-41.106l-329.84,0.1-0.0014-3.13,333.79-0.1025" fill-rule="evenodd"/><g fill="#FFF" transform="matrix(1.8623764,0,0,1.8623764,-724.0466,59.65243)" fill-rule="evenodd"><path d="m595.55,39.002,10.778,0.05621c-0.88883-0.0033-1.3078-0.78836-1.034-1.6713l5.2508-17.767,7.7088,0.02848c13.254,0.04931,22.908-8.4481,22.952-20.233,0.0148-3.9947-1.9043-7.089-5.1008-8.5531-1.8959-0.88241-4.7003-1.1073-8.976-1.123l-20.599-0.07658c0.7894,0.0088,1.56,0.20006,1.1827,1.4076l-13.75,45.764c-0.50115,1.7145,0.4382,2.1142,1.5932,2.1681zm21.93-42.217,5.5627,0.020848c4.0596,0.014834,6.4134,1.839,6.403,4.728-0.0236,6.3545-4.7612,11.058-11.166,11.034l-5.5631-0.02085,4.7632-15.762"/><path d="m637.87,39.892,12.919,0.0479,6.1775-20.438,4.9838,0.0186c3.4112,0.0126,4.8488,1.0014,4.5775,3.2304-0.002,0.78962-0.07,1.377-0.46625,2.229l-2.525,8.4482c-0.73,2.4922-1.3262,4.4546-1.3288,5.2428-0.002,0.58987-0.004,0.72162-0.006,1.311l12.395,0.0459c0.26375-0.58837,0.26375-0.72012,0.26625-1.3095,0.002-0.78912,0.14375-2.7525,0.475-3.9331l2.9188-9.4336c0.20375-1.1788,0.3375-2.1601,0.605-3.539,0.0137-3.6055-1.7512-5.5148-5.5512-5.9214,2.4938-0.7125,4.1388-1.691,5.7138-2.9298,4.1425-2.8721,7.0512-8.6305,7.33-13.613,0.0125-3.215-2.01-6.3712-4.8225-7.6912-1.5075-0.665-3.6038-1.065-6.8188-1.0763l-21.246-0.0788-15.596,49.389zm25.794-40.892,4.0688,0.015c3.6712,0.0138,5.5038,1.1375,5.4938,3.6275-0.345,4.8512-4.4938,9.036-9.4775,9.0175l-4.0675-0.0151,3.9825-12.645zm40.441-11.325,10.034,0.0375,2.1975-8.78-9.38-0.0337-2.8512,8.7762zm19.346,0.0725,10.165,0.0375,2.5262-8.7788-9.7075-0.0362-2.9838,8.7775zm-43.218,52.301,13.775,0.0517,4.7562-9.5551,12.786,0.0474-0.88625,9.5694,13.181,0.0487,0.90375-49.443-14.494-0.0537-30.022,49.335zm34.448-39.414-2.0475,21.173-9.3775-0.0346,11.425-21.139zm62.805,5.7413c0.73-3.015,1.13-3.8012,1.1362-5.8325,0.0838-4.985-1.6088-7.6812-6.1312-9.4025-2.2238-0.92625-4.8488-1.0663-7.3375-1.075-10.691-0.04-18.315,4.1275-22.414,12.835-3.1038,5.9565-5.4288,13.949-7.8238,23.646-0.39875,1.3095-0.6025,3.0805-0.805,4.5205-0.0263,6.8228,3.5675,10.311,11.701,10.341,5.705,0.0215,9.25-1.4091,13.792-5.458l-0.6075,4.3901,8.1988,0.0308,7.9-26.136-18.038-0.0669-2.3212,7.7954,5.9675,0.0225c-1.9325,8.1235-4.83,11.458-9.485,11.441-2.8212-0.0104-3.93-1.4571-3.7888-4.0801,0.007-2.2295,1.67-8.5205,3.1325-13.17l3.1138-9.1694c1.5238-4.52,2.5162-6.5475,4.815-7.985,0.99-0.9125,2.3025-1.17,3.7438-1.165,2.6225,0.01,3.6688,1.1925,3.5312,3.5512-0.004,1.2475-0.3375,2.4938-0.67375,4.92l12.392,0.0463zm0.265,34.035,32.334,0.11962,2.9838-9.1695-19.805-0.0733,4.1112-11.591,17.509,0.0649,2.985-9.1724-17.902-0.0664,3.12-10.283,18.492,0.0687,2.985-9.1712-31.348-0.11625-15.465,49.39zm41.972,0.15575,12.591,0.0469,6.5688-20.436,4.525,0.0165c3.3462,0.0128,4.6538,1.0005,4.645,3.231-0.004,0.7895-0.2025,1.3765-0.33625,2.229l-2.915,8.4472c-0.405,2.4936-0.7375,4.4566-0.9425,5.2441-0.001,0.58937-0.003,0.72125-0.005,1.3106l12.66,0.0474c0.002-0.58988,0.002-0.72175,0.005-1.3111,0.002-0.7885,0.3375-2.7514,0.67-3.9326l2.6575-9.434c0.3975-1.1778,0.7975-2.1582,0.8025-3.5381,0.21125-3.605-1.95-5.5156-5.8825-5.9229,2.6262-0.71188,4.3338-1.6904,6.1125-2.9282,3.5488-2.874,6.8488-8.6302,7.1325-13.614,0.0113-3.215-2.01-6.3712-4.495-7.69-1.835-0.665-4.0012-1.065-7.1462-1.0762l-21.182-0.08-15.465,49.39zm25.206-40.894,4.3912,0.0163c3.74,0.0137,5.505,1.1375,5.4962,3.6275-0.215,4.8515-4.2962,9.0366-9.605,9.0171l-3.9375-0.0142,3.655-12.647z"/></g></svg>
