<?xml version="1.0" encoding="UTF-8" standalone="no"?>
<!-- Created with Inkscape (http://www.inkscape.org/) -->

<svg
   xmlns:dc="http://purl.org/dc/elements/1.1/"
   xmlns:cc="http://creativecommons.org/ns#"
   xmlns:rdf="http://www.w3.org/1999/02/22-rdf-syntax-ns#"
   xmlns:svg="http://www.w3.org/2000/svg"
   xmlns="http://www.w3.org/2000/svg"
   version="1.1"
   width="1364.4108"
   height="96.80748"
   id="svg2"
   xml:space="preserve"><metadata
     id="metadata8"><rdf:RDF><cc:Work
         rdf:about=""><dc:format>image/svg+xml</dc:format><dc:type
           rdf:resource="http://purl.org/dc/dcmitype/StillImage" /><dc:title></dc:title></cc:Work></rdf:RDF></metadata><defs
     id="defs6" /><g
     transform="matrix(1.25,0,0,-1.25,-198.0665,186.01164)"
     id="g10"><path
       d="m 283.8175,135.4881 c 1.19133,-5.1e-4 1.94207,-1.15123 1.60654,-2.27961 L 268.33378,75.609193 c -0.37765,-1.463146 0.72435,-2.64407 1.83699,-2.646861 l -17.34609,0.04994 c -1.17051,0.0032 -1.9314,1.092144 -1.58623,2.258651 l 17.15319,57.955317 c 0.57003,2.04663 -0.91874,2.25882 -1.64816,2.25829 z"
       id="path16"
       style="fill:#fff200;fill-opacity:1;fill-rule:evenodd;stroke:none" /><path
       d="m 639.6265,72.820612 -11.20796,-0.0043 12.72636,61.090858 11.31744,0.005 -5.02484,-24.04698 15.35115,0.006 5.02773,24.04696 11.2627,0.004 -12.7811,-61.091144 -11.31745,-0.0043 5.94396,28.108644 -15.35115,-0.007 -5.94684,-28.108924"
       id="path18"
       style="fill:#ffffff;fill-opacity:1;fill-rule:nonzero;stroke:none" /><path
       d="m 700.85248,94.861968 c -0.78657,-0.35209 -1.90737,-0.83959 -3.37104,-1.47663 -6.56342,-2.77865 -9.83936,-5.839949 -9.83649,-9.170354 0,-1.71865 0.39185,-3.031911 1.16402,-3.925666 0.78657,-0.905857 1.91025,-1.353888 3.35951,-1.352735 2.27328,0.0011 4.0193,1.003818 5.22365,2.995032 1.20436,2.004466 2.35396,6.309302 3.46035,12.930353 z M 698.0433,76.408886 c -1.28504,-1.693871 -2.69108,-2.938847 -4.221,-3.738963 -1.51553,-0.800115 -3.25001,-1.206368 -5.19773,-1.20752 -3.6822,-0.0024 -6.51444,1.066918 -8.5313,3.190667 -2.00532,2.124901 -3.00799,5.14327 -3.01088,9.056547 0,4.237414 1.09486,7.594903 3.28747,10.101281 2.17821,2.49168 5.64432,4.30714 10.36665,5.44724 0.31117,0.0801 0.77217,0.19015 1.38298,0.32528 7.51136,1.803082 11.27423,4.567332 11.27135,8.303692 0,1.36772 -0.40625,2.43694 -1.23316,3.20767 -0.81251,0.77216 -1.97652,1.15018 -3.49204,1.15018 -1.91025,-8.6e-4 -3.38544,-0.54225 -4.42556,-1.62732 -1.04301,-1.08276 -1.78636,-2.84405 -2.23295,-5.2807 l -10.22258,-0.004 c 0.68861,4.888 2.44904,8.53131 5.27551,10.94087 2.82938,2.39834 6.78241,3.60499 11.85912,3.607 4.72521,0.002 8.40741,-0.97126 11.02067,-2.90484 2.61328,-1.94914 3.92999,-4.65607 3.92999,-8.1484 0,-0.50189 -0.0404,-1.13778 -0.13541,-1.90995 -0.0921,-0.78427 -0.22762,-1.65095 -0.41777,-2.59858 l -5.26689,-25.292812 c -0.13829,-0.662969 -0.25643,-1.529642 -0.38032,-2.613557 -0.11812,-1.083628 -0.2132,-2.274437 -0.29676,-3.560904 l -9.79904,-0.0035 0.46965,3.561191"
       id="path20"
       style="fill:#ffffff;fill-opacity:1;fill-rule:nonzero;stroke:none" /><path
       d="m 745.61227,118.35747 10.5597,0.004 -9.65787,-45.493079 -9.84225,-0.0043 0.98537,3.886194 c -1.81229,-1.773681 -3.63899,-3.088383 -5.48008,-3.968308 -1.8411,-0.867824 -3.72254,-1.302313 -5.64432,-1.303465 -2.85817,-0.0011 -5.06519,0.742779 -6.60665,2.217388 -1.54434,1.475475 -2.31938,3.600376 -2.31938,6.375571 0,0.582007 0.0547,1.300008 0.17288,2.153137 0.12389,0.866672 0.32558,2.016856 0.62234,3.478789 l 6.98409,32.644543 10.54815,0.004 -6.72766,-31.777867 c -0.16422,-0.743932 -0.27083,-1.408053 -0.35151,-1.99006 -0.0806,-0.568178 -0.12102,-1.109559 -0.12102,-1.583521 0,-1.24584 0.31118,-2.179933 0.93641,-2.829359 0.62235,-0.649429 1.52994,-0.974719 2.71988,-0.973566 1.69416,0.0011 3.05985,0.651732 4.10285,1.964129 1.04013,1.314414 1.89297,3.440468 2.55565,6.406111 l 6.56342,30.788463"
       id="path22"
       style="fill:#ffffff;fill-opacity:1;fill-rule:nonzero;stroke:none" /><path
       d="m 757.11988,89.039015 9.07009,-0.03602 c -0.026,-0.420083 -0.0374,-0.866673 -0.0519,-1.327091 -0.0145,-0.46042 -0.026,-1.055682 -0.026,-1.800765 0,-2.24649 0.42066,-3.871499 1.2735,-4.887995 0.84132,-1.013902 2.18109,-1.528201 4.01066,-1.527336 1.71722,0 3.00224,0.435641 3.84356,1.288771 0.84996,0.866673 1.27062,2.165527 1.27062,3.913277 0,2.165527 -1.85839,4.614566 -5.555,7.361813 l -0.4754,0.365627 c -3.54679,2.557082 -5.91804,4.857742 -7.12238,6.874602 -1.20723,2.015712 -1.80365,4.438812 -1.80365,7.241372 -0.003,4.30484 1.30808,7.62401 3.92134,9.93908 2.61327,2.31737 6.37327,3.46985 11.25983,3.47101 4.46877,0.002 7.88301,-1.06606 10.22546,-3.20451 2.34243,-2.13816 3.50933,-5.23777 3.50933,-9.31326 0,-0.0945 -0.0115,-0.55377 -0.0404,-1.36627 -0.0259,-0.79896 -0.0374,-1.53051 -0.0374,-2.19347 l -9.17958,-0.003 0,1.31241 c -0.003,2.80227 -0.38032,4.69754 -1.12656,5.71289 -0.75776,1.0015 -2.11193,1.5014 -4.06251,1.5014 -1.38011,-10e-4 -2.46346,-0.42095 -3.27596,-1.24815 -0.79809,-0.83959 -1.20435,-1.97652 -1.20435,-3.43844 0.003,-2.3286 1.60196,-4.57625 4.79723,-6.74034 0.85285,-0.55377 1.4896,-1.000642 1.9506,-1.312392 2.93595,-2.11022 5.06518,-4.22157 6.37902,-6.31968 1.32824,-2.112514 1.99092,-4.412882 1.99092,-6.916954 0.003,-4.684292 -1.36281,-8.327597 -4.08269,-10.913784 -2.71987,-2.587626 -6.55189,-3.888497 -11.49031,-3.890803 -4.77995,-0.0011 -8.36996,1.080459 -10.73833,3.258088 -2.38565,2.177916 -3.57848,5.454154 -3.57848,9.799614 -0.003,0.718001 0.026,1.435137 0.0951,2.166679 0.0663,0.718002 0.14694,1.461933 0.25355,2.234101"
       id="path24"
       style="fill:#ffffff;fill-opacity:1;fill-rule:nonzero;stroke:none" /><path
       d="m 814.91146,131.46703 -2.85242,-13.07901 4.7252,0.001 -1.45789,-6.9037 -4.72521,-0.003 -5.74227,-27.21402 c -0.026,-0.136282 -0.0547,-0.284664 -0.0806,-0.446878 -0.0519,-0.419793 -0.0806,-0.704458 -0.0806,-0.866671 0,-0.853131 0.27082,-1.448391 0.80097,-1.800765 0.52727,-0.365626 1.44639,-0.540229 2.77463,-0.539077 l 1.06893,0 -1.74314,-7.718508 c -0.97386,-0.161924 -1.90737,-0.284664 -2.77462,-0.366779 -0.86437,-0.08126 -1.73162,-0.121587 -2.57293,-0.12274 -2.77462,-0.0011 -4.91537,0.594107 -6.41648,1.798459 -1.504,1.203199 -2.26465,2.936543 -2.26465,5.170355 0,0.718288 0.0547,1.544335 0.17575,2.463733 0.12102,0.92084 0.31118,1.950588 0.58201,3.08723 l 5.64433,26.551051 -3.96457,-8.7e-4 1.43197,6.90457 3.99337,0.002 2.72852,13.07815 10.74985,0.005"
       id="path26"
       style="fill:#ffffff;fill-opacity:1;fill-rule:nonzero;stroke:none" /><path
       d="m 840.39011,101.66684 c 0.27082,1.24584 0.45812,2.3701 0.582,3.37189 0.12101,1.01506 0.17576,1.85464 0.17576,2.5447 -0.003,1.55759 -0.38032,2.72017 -1.1525,3.49233 -0.76064,0.77217 -1.89872,1.15018 -3.41424,1.14904 -2.03126,-0.001 -3.60154,-0.78659 -4.72233,-2.34445 -1.12367,-1.55644 -2.03126,-4.306 -2.71987,-8.21927 l 11.25118,0.005 z m -2.56718,-13.647778 9.91142,0.0035 c -0.44371,-5.549813 -2.05432,-9.707129 -4.81453,-12.482612 -2.76022,-2.777786 -6.67292,-4.174314 -11.74963,-4.17662 -4.99604,-0.0024 -8.70418,1.10639 -11.14457,3.325795 -2.42311,2.219407 -3.64187,5.603691 -3.64475,10.151702 0,0.97587 0.0547,2.09897 0.16135,3.371894 0.10661,1.259383 0.24202,2.585322 0.43219,3.966292 0.49845,3.724265 1.07757,7.067925 1.74025,10.032417 0.66269,2.95326 1.33689,5.28185 2.05432,6.97458 1.6106,3.80408 3.69372,6.54037 6.24072,8.19361 2.55565,1.65211 5.96701,2.47929 10.24563,2.48161 4.83469,0.002 8.38148,-1.01188 10.61443,-3.05555 2.23583,-2.02807 3.34797,-5.2369 3.34797,-9.62414 0.003,-1.65095 -0.14693,-3.54735 -0.45523,-5.69935 -0.29676,-2.153142 -0.74335,-4.468202 -1.32536,-6.959882 l -21.60629,-0.0101 c -0.4466,-2.192608 -0.78369,-4.129366 -1.02571,-5.807677 -0.23051,-1.679178 -0.35151,-3.004828 -0.35151,-3.953615 0,-1.882015 0.42065,-3.275085 1.24756,-4.195924 0.84132,-0.934093 2.10042,-1.394512 3.79169,-1.39336 1.81229,0.0011 3.24714,0.719152 4.27863,2.140748 1.02571,1.436002 1.71721,3.671255 2.05142,6.716707"
       id="path28"
       style="fill:#ffffff;fill-opacity:1;fill-rule:nonzero;stroke:none" /><path
       d="m 887.10333,90.153184 c -0.7289,-6.432329 -2.4865,-11.142264 -5.2582,-14.164092 -2.77462,-3.019809 -6.75647,-4.524672 -11.92826,-4.526689 -4.85774,-0.0024 -8.44775,1.119643 -10.76424,3.353744 -2.31362,2.231795 -3.46612,5.683788 -3.469,10.354538 0,1.461933 0.12101,3.20853 0.37745,5.238928 0.24202,2.030397 0.60506,4.373695 1.07757,7.012895 0.77217,3.967442 1.55586,7.150332 2.37989,9.559902 0.80962,2.40957 1.81229,4.48261 2.9763,6.2295 1.44639,2.16639 3.31341,3.81876 5.6011,4.95771 2.2877,1.13779 4.90096,1.70741 7.86574,1.70857 4.58978,0.002 8.08185,-1.1064 10.47895,-3.33819 2.4001,-2.23295 3.5901,-5.50919 3.5929,-9.81431 0,-0.59526 -0.026,-1.27292 -0.092,-2.01801 -0.069,-0.73039 -0.1757,-1.58352 -0.3371,-2.5323 l -10.15629,-0.003 c 0.19017,1.00151 0.31118,1.88172 0.39185,2.61327 0.0806,0.74393 0.12101,1.39451 0.12101,1.94914 0,1.69272 -0.39473,2.99158 -1.16689,3.89887 -0.78369,0.90587 -1.88144,1.36629 -3.30188,1.36629 -1.50401,-0.001 -2.73429,-0.58403 -3.68221,-1.7489 -0.95945,-1.16489 -1.81229,-3.20882 -2.57006,-6.14738 -1.08045,-4.156452 -1.90447,-7.826562 -2.47208,-10.993892 -0.56759,-3.182599 -0.84996,-5.796156 -0.84708,-7.853349 0,-2.098106 0.3371,-3.601528 1.01419,-4.521214 0.66557,-0.934093 1.7489,-1.394513 3.22409,-1.393359 1.84111,0.0011 3.30188,0.894906 4.38521,2.66974 1.08047,1.773681 1.83823,4.481743 2.25601,8.13715 l 10.30323,0.0045"
       id="path30"
       style="fill:#ffffff;fill-opacity:1;fill-rule:nonzero;stroke:none" /><path
       d="m 902.07133,72.93903 -10.6288,-0.0046 12.9827,60.92778 10.5626,0.005 -3.8781,-18.52195 c 1.5011,1.47548 3.1002,2.58764 4.7626,3.34596 1.6798,0.74509 3.4258,1.1257 5.2122,1.12685 2.8581,0 5.0652,-0.74393 6.6095,-2.23179 1.5443,-1.50141 2.3165,-3.61392 2.3165,-6.36232 0,-0.582 -0.052,-1.27293 -0.1757,-2.08456 -0.1211,-0.79896 -0.3372,-1.95031 -0.6483,-3.46641 l -6.8746,-32.725503 -10.6288,-0.0058 6.7276,31.779013 c 0.2449,1.05569 0.3918,1.82786 0.461,2.30153 0.066,0.47281 0.095,0.89261 0.095,1.27206 0,1.21876 -0.3141,2.15285 -0.9508,2.81582 -0.6368,0.66413 -1.5703,0.98826 -2.789,0.98711 -1.7201,-10e-4 -3.1002,-0.65057 -4.1432,-1.95174 -1.0402,-1.28646 -1.8786,-3.41224 -2.5153,-6.33639 l -6.4972,-30.870572"
       id="path32"
       style="fill:#ffffff;fill-opacity:1;fill-rule:nonzero;stroke:none" /><path
       d="m 942.22693,72.956894 -10.6404,-0.0046 9.6579,45.493066 9.8019,0.004 -0.8644,-3.88534 c 1.8123,1.77397 3.6275,3.08723 5.4398,3.96859 1.8152,0.86669 3.6707,1.30088 5.5636,1.30318 2.8841,0 5.1056,-0.74392 6.6499,-2.23179 1.5443,-1.5014 2.3165,-3.61392 2.3165,-6.36232 0,-0.582 -0.052,-1.27177 -0.1758,-2.08427 -0.121,-0.79926 -0.337,-1.9506 -0.6454,-3.46669 l -6.8774,-32.725509 -10.6289,-0.0043 6.7277,31.777859 c 0.2449,1.05568 0.3947,1.82757 0.461,2.30153 0.066,0.47282 0.095,0.8926 0.095,1.27177 0,1.21905 -0.3141,2.15314 -0.9508,2.81582 -0.6368,0.66297 -1.5703,0.98826 -2.7746,0.9871 -1.7201,-0.001 -3.1146,-0.65057 -4.1548,-1.95144 -1.043,-1.28647 -1.8814,-3.41252 -2.5181,-6.33639 l -6.4828,-30.870858"
       id="path34"
       style="fill:#ffffff;fill-opacity:1;fill-rule:nonzero;stroke:none" /><path
       d="m 982.91263,124.79989 1.8642,9.09832 10.7239,0.005 -1.9477,-9.09946 -10.6404,-0.004 z m -11.0235,-51.829455 9.6463,45.493075 10.6404,0.005 -9.6723,-45.493939 -10.6144,-0.0045"
       id="path36"
       style="fill:#ffffff;fill-opacity:1;fill-rule:nonzero;stroke:none" /><path
       d="m 992.27663,72.979368 12.98567,60.928932 10.5597,0.004 -6.7421,-32.08847 13.9653,16.65693 12.1011,0.006 -16.616,-19.002542 6.8343,-26.491392 -10.9112,-0.0046 -4.2873,18.274444 -4.4082,-4.875605 -2.8525,-13.404313 -10.62877,-0.0045"
       id="path38"
       style="fill:#ffffff;fill-opacity:1;fill-rule:nonzero;stroke:none" /><path
       d="m 1081.4677,78.610141 c -1.6912,-2.368942 -3.5323,-4.130521 -5.5377,-5.268316 -1.988,-1.138947 -4.2354,-1.708565 -6.7536,-1.708565 -4.5206,-0.0032 -8.1913,1.471151 -11.0206,4.4221 -2.8323,2.936255 -4.2412,6.808042 -4.2441,11.585686 0,1.719801 0.092,3.587986 0.2968,5.592452 0.2017,2.01686 0.5388,4.52208 1.0113,7.540742 0.7549,4.63128 1.5789,8.69322 2.4721,12.21263 0.8788,3.52028 1.8094,6.47267 2.7833,8.84276 1.9909,4.76642 4.4255,8.23281 7.2952,10.40065 2.8812,2.16754 6.5231,3.25261 10.9083,3.25377 6.1341,0.003 10.6029,-1.36196 13.4064,-4.08212 2.8034,-2.72046 4.2123,-7.06476 4.2152,-13.03523 0,-0.66413 -0.026,-1.32709 -0.081,-2.01686 -0.055,-0.69121 -0.1354,-1.46222 -0.242,-2.30296 l -10.966,-0.004 c 0.081,0.97357 0.1498,1.84111 0.1873,2.59974 0.04,0.74393 0.055,1.38096 0.055,1.88172 0,3.06043 -0.4898,5.21213 -1.4665,6.47037 -0.9883,1.25851 -2.6392,1.8797 -4.9701,1.8797 -2.1091,-10e-4 -3.8033,-0.74624 -5.0479,-2.2364 -1.2563,-1.50256 -2.4203,-4.23857 -3.4748,-8.23281 -1.7172,-6.48506 -3.0541,-12.30714 -4.0395,-17.466262 -0.9738,-5.17151 -1.4579,-8.936402 -1.4579,-11.29209 0,-2.532307 0.5561,-4.439964 1.6539,-5.72643 1.0977,-1.284161 2.7342,-1.920912 4.9297,-1.920048 2.936,0.0024 5.2784,1.343803 7.01,4.011239 1.7317,2.668589 2.8553,6.688758 3.3797,12.077509 l -6.987,-0.003 1.9478,9.342372 18.4369,0.008 -6.5634,-32.413769 -7.8946,-0.0035 0.7578,5.591302"
       id="path40"
       style="fill:#ffffff;fill-opacity:1;fill-rule:nonzero;stroke:none" /><path
       d="m 1108.4792,73.031229 -10.6288,-0.0045 9.6607,45.494231 9.8019,0.003 -0.8788,-3.88505 c 1.8008,1.7469 3.613,3.06131 5.4542,3.94153 1.8412,0.88108 3.6966,1.32911 5.5781,1.33026 2.3942,0 4.3046,-0.45928 5.6846,-1.37867 1.3974,-0.91969 2.3712,-2.36924 2.9561,-4.31837 1.9881,1.95144 3.9098,3.40099 5.7624,4.32182 1.87,0.92171 3.7773,1.38299 5.728,1.38414 2.8841,0 5.0767,-0.74276 6.6065,-2.21824 1.5185,-1.47548 2.2763,-3.59923 2.2763,-6.37471 0,-0.66296 -0.052,-1.44839 -0.173,-2.35685 -0.1209,-0.907 -0.3083,-1.97737 -0.582,-3.19526 l -6.9436,-32.725519 -10.626,-0.0043 6.7276,31.777869 c 0.242,1.05568 0.3919,1.82785 0.4581,2.30152 0.069,0.47396 0.095,0.89376 0.095,1.27292 0,1.21876 -0.3112,2.15198 -0.9479,2.81496 -0.6397,0.66383 -1.5731,0.98796 -2.7776,0.98796 -1.7201,-10e-4 -3.1001,-0.65144 -4.1546,-1.9526 -1.043,-1.28647 -1.8815,-3.41252 -2.5153,-6.33638 l -6.5663,-30.870858 -10.3984,-0.0043 6.7277,31.777878 c 0.2448,1.05567 0.3918,1.82756 0.461,2.30152 0.066,0.47366 0.1066,0.89346 0.1066,1.27293 0,1.21875 -0.3256,2.15198 -0.9624,2.81466 -0.6367,0.66412 -1.5558,0.98826 -2.7746,0.98826 -1.7201,-0.001 -3.1002,-0.65173 -4.1432,-1.9526 -1.0401,-1.28647 -1.8785,-3.41252 -2.5153,-6.33667 l -6.4971,-30.870587"
       id="path42"
       style="fill:#ffffff;fill-opacity:1;fill-rule:nonzero;stroke:none" /><path
       d="m 1175.6808,80.453836 c 1.2994,0.0011 2.449,0.4342 3.4633,1.28733 1.0285,0.866672 1.8554,2.085717 2.4921,3.670389 1.3111,3.465247 2.3656,7.162433 3.1608,11.101643 0.7981,3.941522 1.1871,7.366132 1.1871,10.276742 0,1.97739 -0.2997,3.38544 -0.8961,4.19679 -0.5964,0.82605 -1.5961,1.23144 -2.9906,1.23144 -1.2995,-0.001 -2.4376,-0.43564 -3.4115,-1.28878 -0.9881,-0.86667 -1.8152,-2.16639 -2.5038,-3.91327 -0.4177,-1.08276 -0.8643,-2.42311 -1.3109,-4.03486 -0.4465,-1.62501 -0.9335,-3.574452 -1.4579,-5.875972 -0.582,-2.64035 -1.0285,-4.91508 -1.3369,-6.797959 -0.2996,-1.895269 -0.4466,-3.384284 -0.4466,-4.467047 0,-1.746886 0.3544,-3.073688 1.043,-3.993088 0.7059,-0.93438 1.7085,-1.394512 3.008,-1.393358 z m 6.2436,53.533124 -3.9587,-18.29231 c 0.9189,1.43629 2.0571,2.50637 3.4228,3.23705 1.3541,0.71916 2.8841,1.08478 4.5782,1.08593 3.4778,0.001 6.0766,-1.09399 7.7708,-3.29986 1.7085,-2.20587 2.5614,-5.57775 2.5643,-10.09896 0,-1.25939 -0.081,-2.66745 -0.2566,-4.22389 -0.1757,-1.54405 -0.4465,-3.412522 -0.8095,-5.604842 -0.5273,-3.03306 -1.1496,-5.85032 -1.8642,-8.423252 -0.7031,-2.571492 -1.4723,-4.778508 -2.2847,-6.606356 -1.4609,-3.331557 -3.2069,-5.782903 -5.2785,-7.367574 -2.0572,-1.584673 -4.4803,-2.38479 -7.2808,-2.385942 -2.112,-0.0011 -3.8869,0.540229 -5.336,1.621841 -1.4349,1.082762 -2.5068,2.678672 -3.1838,4.791185 l -1.0805,-5.361668 -10.7095,-0.0045 13.0663,60.928938 10.6404,0.004"
       id="path44"
       style="fill:#ffffff;fill-opacity:1;fill-rule:nonzero;stroke:none" /><path
       d="m 1210.5292,73.077329 -11.208,-0.0055 12.7264,61.090861 11.3175,0.005 -5.0249,-24.04698 15.354,0.007 5.0249,24.04698 11.2627,0.004 -12.7811,-61.090855 -11.3175,-0.0043 5.9469,28.108645 -15.3541,-0.006 -5.9468,-28.108919"
       id="path46"
       style="fill:#ffffff;fill-opacity:1;fill-rule:nonzero;stroke:none" /><path
       d="m 284.26661,73.861872 13.49023,-0.07036 c -1.11247,0.0041 -1.63683,0.98673 -1.29413,2.091833 l 6.57203,22.237887 9.64849,-0.03562 c 16.58934,-0.06172 28.67256,10.573818 28.72725,25.324068 0.0186,4.99988 -2.38354,8.87274 -6.38432,10.7053 -2.37301,1.10444 -5.88304,1.38595 -11.23469,1.40551 l -25.78222,0.0959 c 0.98804,-0.0107 1.95249,-0.25039 1.4803,-1.7618 L 282.27247,76.575478 c -0.62725,-2.145925 0.54846,-2.646165 1.99414,-2.713606 z m 27.44816,52.839588 6.96242,-0.0261 c 5.08115,-0.0186 8.02719,-2.30173 8.01416,-5.91766 -0.0296,-7.95345 -5.95931,-13.84001 -13.97549,-13.8104 l -6.9629,0.0261 5.96181,19.72806"
       id="path48"
       style="fill:#ffffff;fill-opacity:1;fill-rule:evenodd;stroke:none" /><path
       d="m 191.11583,135.64574 c 1.21265,-0.002 1.94156,-1.13092 1.60705,-2.28012 L 175.548,75.410554 c -0.39673,-1.254118 0.66247,-2.283777 1.84344,-2.286924 l -17.26878,0.04538 c -1.17047,0.0032 -1.93085,1.090976 -1.58584,2.258246 l 17.13275,57.955624 c 0.65135,2.05221 -0.87758,2.2588 -1.62785,2.2588 z m 18.5161,-0.0193 c 1.21163,-0.002 1.94258,-1.13041 1.60706,-2.27911 L 194.06395,75.391723 c -0.45024,-1.445634 0.86951,-2.286366 1.9979,-2.287534 l -17.44467,0.01863 c -1.16945,8.12e-4 -1.91003,1.119097 -1.56461,2.286366 l 17.15351,57.954905 c 0.46749,2.05171 -0.6949,2.25932 -1.64817,2.2583 z m 18.58818,-0.0147 c 1.21316,-9.7e-4 1.94258,-1.12941 1.60756,-2.27962 L 212.65264,75.376495 c -0.34466,-1.19544 0.35938,-2.289158 1.92024,-2.290529 l -17.34559,0.01721 c -1.17052,0.0018 -1.93039,1.124072 -1.58573,2.290731 l 17.15372,57.955973 c 0.5487,2.04663 -0.79744,2.2583 -1.64969,2.25881 z m 37.08043,-0.0878 c 1.19132,-5.1e-4 1.94154,-1.15123 1.60654,-2.27911 L 249.81631,75.645165 c -0.37766,-1.462943 0.72433,-2.644069 1.83699,-2.646861 l -17.34609,0.0498 c -1.17001,0.0034 -1.9314,1.092296 -1.58573,2.258955 l 17.1532,57.955011 c 0.57003,2.04663 -0.91875,2.25881 -1.64816,2.25881 z m -18.56027,0.0691 c 1.19133,-5.1e-4 1.94207,-1.15123 1.60654,-2.27962 L 231.25605,75.713945 c -0.37765,-1.463096 0.72535,-2.64407 1.83699,-2.646659 l -17.34609,0.0498 c -1.17001,0.0031 -1.9309,1.092144 -1.58573,2.258803 l 17.15371,57.955211 c 0.56901,2.04664 -0.91926,2.25881 -1.64918,2.25881 z"
       id="path50"
       style="fill:#fff200;fill-opacity:1;fill-rule:evenodd;stroke:none" /><path
       d="m 334.88407,74.711081 15.6945,-0.05817 7.50483,24.828766 6.05457,-0.0226 c 4.1442,-0.0153 5.89057,-1.216539 5.56104,-3.924468 -0.003,-0.95928 -0.0851,-1.672866 -0.56644,-2.70793 L 366.06505,82.56321 c -0.88685,-3.027737 -1.61121,-5.411754 -1.61426,-6.369218 -0.003,-0.716617 -0.005,-0.876675 -0.008,-1.592685 l 15.05824,-0.05573 c 0.32041,0.71478 0.32041,0.874838 0.32345,1.590862 0.003,0.958664 0.17463,3.343911 0.57705,4.778194 l 3.54589,11.460573 c 0.24754,1.43202 0.41002,2.624251 0.735,4.2994 0.0168,4.380194 -2.12754,6.699674 -6.74401,7.193654 3.02955,0.86559 5.028,2.05434 6.94141,3.55925 5.03258,3.48924 8.56631,10.48489 8.90496,16.53794 0.0152,3.90578 -2.44189,7.74019 -5.85868,9.34381 -1.83141,0.80788 -4.37807,1.29383 -8.28385,1.3075 l -25.81129,0.0957 -18.94731,-60.001318 z m 31.33588,49.678019 4.94296,-0.0181 c 4.46008,-0.0168 6.68631,-1.38191 6.67417,-4.40691 -0.41913,-5.89361 -5.4593,-10.97751 -11.51388,-10.95503 l -4.94145,0.0183 4.8382,15.36179 z m 49.13055,13.75832 12.18964,-0.0456 2.66966,10.66649 -11.39542,0.041 z m 23.50305,-0.0881 12.34908,-0.0456 3.06905,10.66498 -11.79328,0.044 z m -52.50333,-63.538699 16.73473,-0.06288 5.77818,11.608163 15.53355,-0.05759 -1.07666,-11.625491 16.0134,-0.05922 1.09794,60.066787 -17.60792,0.0652 -36.47322,-59.935113 z m 41.84899,47.882149 -2.48744,-25.722741 -11.39237,0.04204 13.87981,25.680671 z m 76.29947,-6.97483 c 0.88685,3.66281 1.3728,4.61799 1.38039,7.08569 0.10167,6.05609 -1.95441,9.33167 -7.44863,11.42275 -2.70156,1.12526 -5.89057,1.29535 -8.91406,1.30598 -12.9884,0.0486 -22.25022,-5.01435 -27.22964,-15.59277 -3.77062,-7.23633 -6.59518,-16.94582 -9.50479,-28.727259 -0.48443,-1.590864 -0.73195,-3.742386 -0.97795,-5.491788 -0.0319,-8.288703 4.33402,-12.52645 14.2154,-12.562591 6.93081,-0.02613 11.2375,1.711895 16.75601,6.630722 l -0.73803,-5.3334 9.96036,-0.03736 9.59741,31.751356 -21.91308,0.0813 -2.82,-9.470312 7.24968,-0.02733 c -2.34772,-9.868939 -5.86778,-13.9199 -11.52298,-13.899248 -3.42743,0.01265 -4.77441,1.770201 -4.6028,4.956788 0.009,2.708536 2.02882,10.35124 3.80555,15.999602 l 3.78279,11.13953 c 1.85114,5.49118 3.0569,7.95431 5.84957,9.70068 1.2027,1.10855 2.79722,1.42138 4.54813,1.41531 3.18599,-0.0122 4.45703,-1.44872 4.29,-4.31428 -0.005,-1.51555 -0.41003,-3.02957 -0.81852,-5.97713 l 15.05519,-0.0563 z m 0.32194,-41.347554 39.28107,-0.145324 3.62485,11.139682 -24.06036,0.08905 4.99461,14.081174 21.27073,-0.07885 3.62636,11.143182 -21.74909,0.0807 3.79038,12.49275 22.46586,-0.0835 3.62636,11.14182 -38.08292,0.1413 -18.78785,-60.001792 z m 50.99084,-0.189216 15.29665,-0.05695 7.98012,24.826938 5.49727,-0.02004 c 4.06523,-0.01555 5.65366,-1.21547 5.64302,-3.925223 -0.005,-0.959133 -0.246,-1.672259 -0.40848,-2.707929 l -3.54133,-10.262247 c -0.49203,-3.029429 -0.89596,-5.414205 -1.14501,-6.370909 -10e-4,-0.715995 -0.003,-0.876221 -0.006,-1.592216 l 15.38018,-0.05756 c 0.003,0.716617 0.003,0.876826 0.006,1.592836 0.003,0.95792 0.41003,3.342545 0.81396,4.777602 l 3.2285,11.461013 c 0.48292,1.430805 0.96886,2.621978 0.97494,4.298344 0.25664,4.379581 -2.36899,6.700721 -7.14645,7.195481 3.19055,0.86483 5.26492,2.05358 7.42586,3.55742 4.31125,3.49152 8.32029,10.48457 8.66501,16.53915 0.0137,3.90578 -2.44188,7.74019 -5.46081,9.34229 -2.22928,0.80789 -4.86097,1.29384 -8.68171,1.3075 l -25.73384,0.0972 z m 30.62213,49.68091 5.33478,-0.0197 c 4.54359,-0.0168 6.68782,-1.38191 6.67718,-4.40691 -0.26118,-5.89391 -5.21934,-10.97826 -11.66875,-10.95457 l -4.78353,0.0173 4.44032,15.36392 z"
       id="path48-2"
       style="fill:#ffffff;fill-opacity:1;fill-rule:evenodd;stroke:none" /></g></svg>